<?xml version="1.0" encoding="utf-8"?>
<!-- Generator: Adobe Illustrator 19.2.1, SVG Export Plug-In . SVG Version: 6.00 Build 0)  -->
<svg version="1.1" id="Layer_2" xmlns="http://www.w3.org/2000/svg" xmlns:xlink="http://www.w3.org/1999/xlink" x="0px" y="0px"
	 viewBox="0 0 612 366.6" style="enable-background:new 0 0 612 366.6;" xml:space="preserve">
<style type="text/css">
	.st0{fill:#FFFFFF;}
</style>
<path class="st0" d="M251.1,125.9c-0.2-0.8-0.5-1.5-1.3-1.7c-0.8-0.2-1.6,0.1-2.3,0.6c-0.5,0.4-0.3,1.2,0.4,0.7c1-0.7,2-0.3,2.2,0.9
	C250.2,127,251.2,126.3,251.1,125.9z"/>
<path class="st0" d="M318,123.1c-1.3,0-2.7,2.7-1,2.7C318.3,125.8,319.7,123.1,318,123.1z"/>
<path class="st0" d="M327.6,116.8c-1.6,0.6-3.2,0.1-4.9,0c-1.8-0.1-3.5,0.4-5.2,0.6c-3.5,0.5-7.1,0.2-10.7,0.2
	c-0.7,0-1.4,1.5-0.5,1.5c3.7,0,7.4,0.3,11.1-0.3c1.7-0.3,3.4-0.6,5.2-0.5c1.7,0.1,3.2,0.5,4.8-0.1C328,118,328.5,116.5,327.6,116.8z
	"/>
<path class="st0" d="M323.5,114.2c-3.7,2.3-8.6,0.3-12.7,0.6c-0.7,0-1.4,1.5-0.5,1.5c4.4-0.3,9.4,1.8,13.4-0.8
	C324.2,115,324.4,113.6,323.5,114.2z"/>
<path class="st0" d="M320.9,113.5c-2.7-1-5.8-1-8.7-0.9c-0.4,0-0.8,0.9-0.3,0.8c2.8-0.1,5.8-0.1,8.5,0.8
	C320.7,114.5,321.3,113.7,320.9,113.5z"/>
<path class="st0" d="M318.3,111.7c-1.2,0-1.7-1.4-2.7-1.9c-0.2-0.1-0.5,0.3-0.2,0.4c1.1,0.5,1.5,1.9,2.8,1.9
	C318.3,112.1,318.5,111.7,318.3,111.7z"/>
<path class="st0" d="M318.5,107.2c-0.6,0.4-1.2,0.6-1.8,0.8c-0.2,0.1-0.3,0.5-0.1,0.4c0.7-0.3,1.3-0.5,1.9-0.9
	C318.8,107.5,318.8,107.1,318.5,107.2z"/>
<path class="st0" d="M354.7,121.2c-3.7,1.4-7.4,1.8-11.3,1.5c-0.8-0.1-1.7,1.6-0.6,1.7c4,0.3,7.9-0.2,11.7-1.6
	c0.4-0.2,0.9-0.6,0.9-1C355.4,121.4,355.1,121,354.7,121.2z"/>
<path class="st0" d="M352.1,125.1c-1.2,0-2.4-0.1-3.5-0.3c-0.3-0.1-0.7,0.5-0.4,0.6c1.2,0.3,2.4,0.3,3.7,0.4
	C352.2,125.8,352.5,125.1,352.1,125.1z"/>
<path class="st0" d="M356.9,127.9c-2.2,0.1-4.4-0.5-6.7-0.5c-2.2-0.1-4.4,0-6.5-0.8c-0.3-0.1-0.7,0.5-0.4,0.6c2,0.8,4.1,0.8,6.2,0.8
	c2.4,0,4.7,0.6,7.1,0.5C357,128.5,357.3,127.9,356.9,127.9z"/>
<path class="st0" d="M282,122.8c-3.7,1.4-7.4,1.8-11.3,1.5c-0.8-0.1-1.7,1.6-0.6,1.7c4,0.3,7.9-0.2,11.7-1.6c0.4-0.2,0.9-0.6,0.9-1
	C282.7,123,282.4,122.6,282,122.8z"/>
<path class="st0" d="M279.4,126.7c-1.2,0-2.4-0.1-3.5-0.3c-0.3-0.1-0.7,0.5-0.4,0.6c1.2,0.3,2.4,0.3,3.7,0.4
	C279.5,127.3,279.8,126.7,279.4,126.7z"/>
<path class="st0" d="M284.2,129.4c-2.2,0.1-4.4-0.5-6.7-0.5c-2.2-0.1-4.4,0-6.5-0.8c-0.3-0.1-0.7,0.5-0.4,0.6c2,0.8,4.1,0.8,6.2,0.8
	c2.4,0,4.7,0.6,7.1,0.5C284.3,130.1,284.6,129.4,284.2,129.4z"/>
<path class="st0" d="M243.3,222.1c-0.1-0.2-0.3-0.3-0.5-0.2c0.2-1.1-1.4-0.3-1.6,0.5c-0.3,1.8-0.9,3.7-0.6,5.6
	c0.3,1.7,1.9,2.8,3.5,2C247,228.5,244.3,223.9,243.3,222.1z M242.1,225.9c0-0.6,0.1-1.2,0.2-1.8c0.3,0.5,0.5,1.1,0.8,1.6
	c0.2,0.6,0.5,1.2,0.6,1.8c0,0.2,0,0.5,0.1,0.8c0,0,0,0,0,0C242.3,228.3,242,227.4,242.1,225.9z"/>
<path class="st0" d="M255.3,219.6c-0.2-0.2-0.5-0.2-0.7,0c-0.3-1-1.8,0.1-1.6,0.9c0.4,1.7-0.8,7.2,2.6,6.6c1.4-0.2,2.1-1.8,2.3-3
	C258,222,256.6,220.8,255.3,219.6z M256,225.3c-0.4,0.2-0.9-0.2-1-0.6c-0.5-0.9-0.4-2.1-0.3-3.2c0.8,0.7,1.5,1.4,1.6,2.5
	C256.3,224.3,256.3,225.2,256,225.3z"/>
<path class="st0" d="M272.4,221.7c-0.6-0.7-1.6-1.1-2.4-1.6c-0.1,0-0.1-0.1-0.2-0.1c0.1-0.2,0.2-0.4,0.3-0.7c0.4-1.2-1.2-0.8-1.4,0
	c-0.7,2.1-5.3,6.4-1.1,7.8c2.1,0.7,4.4-0.9,5-2.9C272.8,223.5,272.9,222.5,272.4,221.7z M271.2,224c-0.1,1-1.1,1.8-2.2,1.7
	c-0.6-0.1-1.3-0.4-1.5-1c-0.3-0.9,0.7-2.1,1.1-2.8c0.1-0.1,0.1-0.2,0.2-0.3C269.7,222.3,271.4,222.7,271.2,224z"/>
<path class="st0" d="M228.3,232.3c-1-1-2.4-0.9-3.6-0.5c0,0,0,0,0-0.1c0-0.5-0.6-0.4-0.9-0.3c-0.4,0.2-0.7,0.7-0.7,1.1
	c0,1.3-0.6,4.3,1.4,4.4c2,0.1,3.2-2.5,3.8-4C228.5,232.7,228.5,232.4,228.3,232.3z M225,235.2c-0.4-0.3-0.4-1.2-0.4-1.6
	c0-0.1,0-0.2,0-0.3c0.7-0.2,1.5-0.2,2.1,0.2C226.4,234.3,225.7,235.7,225,235.2z"/>
<path class="st0" d="M212.9,242.2c-0.2-0.1-0.4,0-0.6,0.1c-0.2-0.1-0.6-0.1-1,0.3c-0.9,1.1-4.1,7.1-1,7.3c1.8,0.1,3.3-1.6,3.9-3.1
	C214.8,245.2,214.8,242.8,212.9,242.2z M212.8,246.8c-0.2,0.5-1.3,2-2,1.4c-0.5-0.5,0.1-1.8,0.2-2.3c0.2-0.7,0.5-1.4,1-2
	C213.1,244.3,213.1,245.8,212.8,246.8z"/>
<path class="st0" d="M196.7,255.2c-2.2-0.6-3.5,1.6-3.9,3.4c-0.1,0.4,0.3,0.6,0.7,0.6c0,0,0,0,0.1,0c-0.3,1.5-0.3,3.1,0.2,4.2
	c0.9,2.2,3.7,2.6,5.3,1C201.7,261.9,200.3,256.2,196.7,255.2z M197.9,263.6c-1,0.5-2.2-0.3-2.7-1.1c-0.8-1.4-0.3-3.9,0.2-5.3
	c0.1-0.2,0.1-0.3,0.1-0.4c0.5,0,1.1,0.4,1.4,0.7c1.1,1,1.9,2.5,1.9,3.9C198.9,262.2,198.7,263.2,197.9,263.6z"/>
<path class="st0" d="M403.2,322.1c-2.9-0.5-6.2-1.5-8.7-3.3c1.7-1.4,4.1-2.2,5.9-3.5c0.4-0.3,1.2-1.5,0.5-2c-4.5-2.8-10-1.7-15-3
	c2.2-2.4,4.9-4.5,6.4-7.5c0.3-0.5,0.5-1.2-0.2-1.5c-2.6-1.1-5.4-0.1-8-0.6c2.3-2.6,5.5-4.5,8.1-6.7c0.4-0.4,1-1.2,0.7-1.8
	c-0.3-0.6-1.1-0.3-1.5,0c-3.5,2.9-7.4,5.4-10.1,9.1c-0.3,0.4-0.4,1.3,0.2,1.5c2.7,1,5.5-0.1,8.2,0.6c-1.8,2.6-4.6,4.5-6.5,7.1
	c-0.3,0.4-0.9,1.5,0,1.8c4.5,1.5,9.8,0.5,14.2,2.3c-2,1.1-4,2-5.4,3.9c-0.3,0.4-0.8,1.2-0.2,1.7c2.7,2.3,6.6,3.6,10,4.2
	C402.9,324.7,404.5,322.3,403.2,322.1z"/>
<path class="st0" d="M232.3,289.4c-4.2-3-7.9-6.8-11.1-11c-0.8-1.1-2.9,0.8-2.2,1.8c2.8,3.7,6,7.2,9.7,10.1c-0.4,0-0.7-0.1-0.9-0.1
	c-1.3-0.1-2.5-0.4-3.8-0.6c-3.2-0.4-6.6-0.1-9.5,1.2c-0.5,0.2-1.2,1.1-1,1.7c1,4.7,7,5.8,8.9,9.8c-1.2,0.4-2.5,0.5-3.8,0.5
	c-0.9,0-2,1.3-1.6,2.1c0.5,1.1,1.7,1.6,2.6,2.2c0,0,0.3,0.3,0.6,0.6c0,0,0,0,0,0c-2.3,0.3-4.5-0.2-6.8,0.7c-1.8,0.7-3.1,2.5-1.9,4.3
	c1.3,1.8,3.4,3.1,5,4.5c0.9,0.8,2.9-1.3,1.9-2.2c-0.9-0.8-1.9-1.5-2.8-2.3c-0.7-0.6-1.6-1.2-2.1-2.1c0,0,0,0,0,0
	c0.3-0.1,0.6-0.2,0.7-0.2c1.1-0.2,2.1-0.2,3.2-0.2c2,0,4.5-0.1,5.3-2.3c0.6-1.6-0.4-2.4-1.5-3.1c1-0.2,1.9-0.6,2.9-1
	c0.5-0.3,1.2-1.1,1-1.7c-0.6-2.5-2.6-4.3-4.6-5.8c-1.4-1.1-3.4-2.3-4.3-3.9c2.8-0.8,5.8-0.5,8.6-0.1c2.5,0.4,5.3,0.8,7.2-1.3
	C232.4,290.8,232.8,289.8,232.3,289.4z"/>
<path class="st0" d="M271.1,196.4c-0.6-2-1-4-1.5-6c-0.2-1.1-2,0.1-1.8,0.9c0.5,2.1,1,4.2,1.6,6.3
	C269.7,198.6,271.4,197.2,271.1,196.4z"/>
<path class="st0" d="M248.6,197.4c-1.2-2.3-1.1-5-3.2-6.8c-0.7-0.6-2.2,1-1.4,1.6c1.9,1.6,1.8,4.4,3,6.5
	C247.4,199.6,249,198.2,248.6,197.4z"/>
<path class="st0" d="M308.2,106.1c-2.4,1.3-5.3,0.6-7.7-0.2c-2.3-0.8-4.5-1.8-6.7-2.8c-6.2-2.8-12.1-6.3-18.8-8
	c-0.5-0.1-1.1,0.9-0.6,1c2,0.5,3.9,1.2,5.7,1.9c-0.1,0-0.3,0.1-0.4,0.3c-2.1,2.8-2.5,5.8-2.3,9.3c0.1,1.4,0,2.9,0.4,4.3
	c0.4,1.6,1.8,2,3.1,2.7c1.7,0.9,3.4,1.7,5.3,2.3c1.7,0.5,3.5,0.8,5.2,1.1c2.5,0.4,5.7,1.1,7.9-0.6c1.2-0.9,1.4-2.3,1.4-3.7
	c0-1.1,0-2,0.4-3c0.3-1,0.7-1.8,0.7-2.9c0,0,0-0.1,0-0.1c2.2,0.5,4.3,0.5,6.3-0.6C308.8,106.8,308.9,105.7,308.2,106.1z
	 M301.1,108.2c0,1.2-0.6,2.2-0.9,3.3c-0.2,0.6-0.2,1.3-0.2,2c0,1,0.1,2.3-0.7,3.1c-0.6,0.5-1.5,0.7-2.3,0.8
	c-1.6,0.1-3.2-0.1-4.7-0.4c-1.8-0.3-3.5-0.6-5.2-1.1c-1.9-0.6-3.6-1.4-5.3-2.3c-0.9-0.4-2-0.7-2.5-1.6c-0.4-0.6-0.5-1.5-0.5-2.2
	c-0.4-3.8-0.7-7.7,1.7-10.9c0.2-0.3,0.2-0.5,0.1-0.7c4.6,1.8,9,4.2,13.5,6.3c2.2,1,4.9,2.4,7.7,3.1
	C301.4,107.6,301.1,107.9,301.1,108.2z"/>
<path class="st0" d="M361.2,97.5c-2.7,1.8-5.9,2.7-8.9,4c-1.6,0.7-3.2,1.6-4.8,2.2c-1.7,0.7-3.5,1.2-5.2,1.9
	c-1.9,0.7-3.8,1.5-5.7,2.1c-0.9,0.3-2.5,0.9-3.8,0.9c0,0,0,0,0,0c-0.1-0.1-0.3-0.1-0.5,0c-0.6,0-1.2-0.2-1.6-0.5
	c-0.4-0.3-1.2,0.6-0.8,0.9c0.6,0.5,1.3,0.6,2.2,0.6c1.3,1.4,2.5,2.7,3,4.6c0.4,1.3,0.7,2.5,1.8,3.4c3.2,2.4,7.4,1.6,10.9,0.7
	c1.7-0.5,3.4-0.9,5.1-1.3c1.4-0.3,2.7-0.6,4-1.2c2.6-1.2,3.7-3.5,3.8-6.3c0.1-3.1-0.3-7-2-9.6c0.9-0.4,1.8-0.9,2.7-1.5
	C361.8,98.1,361.9,97.1,361.2,97.5z M357.6,100.4c1.6,2.2,2,5.3,2.1,7.9c0.2,2.9-0.3,5.5-3.2,6.7c-2.6,1.1-5.5,1.5-8.2,2.2
	c-3.4,0.9-7.9,1.9-10.9-0.6c-1.2-1-1.2-2.6-1.7-3.9c-0.5-1.2-1.3-2.2-2.2-3.2c0.7-0.1,1.3-0.3,1.8-0.4c2.1-0.6,4.1-1.4,6.2-2.2
	c1.8-0.7,3.7-1.3,5.5-2c1.6-0.6,3.2-1.4,4.8-2.2C353.6,101.9,355.6,101.2,357.6,100.4C357.5,100.4,357.6,100.4,357.6,100.4z"/>
<path class="st0" d="M294.2,100.6c-0.8-0.5-1.7-0.8-2.5-1.3c-1-0.6-1.2-1.4-1.7-2.5c-0.8-1.5-2.6-2.3-4-3.3
	c-0.4-0.3-1.2,0.6-0.8,0.9c1.6,1.1,3.4,1.9,4.1,3.8c0.8,1.9,2.5,2.3,4.1,3.3C293.9,101.8,294.7,100.9,294.2,100.6z"/>
<path class="st0" d="M338.8,103.8c0.7-0.6,1.3-1.4,2.1-1.9c1-0.8,1.8-0.7,2.9-0.8c1.7-0.2,3.1-1.7,4.4-2.7c0.4-0.3-0.2-1.3-0.6-1
	c-1.6,1.1-2.9,2.5-4.9,2.6c-2,0.1-3,1.6-4.5,2.8C337.8,103.1,338.4,104.1,338.8,103.8z"/>
<path class="st0" d="M598.5,140.7c-1.7,0.1-3.2-0.5-4.7-1.2c-1.1-0.5-2.3-0.9-3.4-1.2c0.4-1.7,2.2-2.9,3-4.4c1.6-3,1.8-6.6,2.5-9.9
	c0.8-3.6,1.7-7.2,2.5-10.8c0.7-3.5,1.4-7.1,2.2-10.6c1.4-6.2,2.8-12.7,0.7-18.9c-1.6-4.7-5.5-7.8-9.7-10.2c-2.7-1.5-5.5-3.2-8.6-3.9
	c-3-0.6-5.8-0.1-8.2,1.6c0.1-0.4,0-0.7-0.3-1c-2.2-1.8-4.3-3.7-6.4-5.5c-1-0.9-2.1-1.7-3.2-2.5c-1.1-0.8-2.3-1.5-3.3-2.4
	c-1.7-1.6-3.1-3.5-5.3-4.5c-2.4-1.1-5.2-0.7-7.7-0.7c-0.3,0-0.6,0.1-0.8,0.3c-0.3,0.1-0.6,0.2-0.8,0.3c-0.1-0.1-0.2-0.1-0.3-0.2
	c-0.4-0.2-0.9-0.3-1.3-0.4c0.1-0.5-0.1-0.9-0.6-1.1c-2.8-1.3-5.4-3.2-8.1-4.7c-2.6-1.4-5.3-2.1-8.2-2.5c-5.8-0.7-12-0.7-17.1,2.6
	c-4.8,3-8,8-11.2,12.6c-1.8,2.6-3.3,5.4-4.7,8.2c-1.4,2.9-2.3,5.9-3.5,8.9c-2.6,6.7-6.6,12.6-10.9,18.3c-0.1,0.1-0.1,0.2-0.2,0.3
	c-6.5-1.8-13.5-2.9-18.6-7.7c-0.2-0.2-0.4-0.2-0.6-0.1c0.1-1.4,0-2.8-0.2-4.2c-0.7-5.1-3.9-8.6-8-11.4c-2.7-1.9-5.5-3.4-8.7-4.1
	c-3.2-0.7-6.5-0.9-9.7-0.9c-3.5,0-7.1-0.1-10.6,0.1c-1.8,0.1-3.6,0.3-5.3,0.8c-1.7,0.5-3.3,1.2-5.1,1.2c-0.6,0-1.2,0.6-1.4,1.2
	c-0.6,0.5-1.1,1-1.6,1.6c0,0-0.1-0.1-0.1-0.1c-5-2.6-10.3-4.3-15.7-5.7c0,0,0,0,0,0c-1.8-3.3-3.5-6.7-4.9-10.2
	c2.6,0.4,5.2,0.4,7.8-0.2c0.6-0.1,1.4-1,1.2-1.7c-1.1-4.3-4.5-7.4-7.4-10.5c-1.2-1.3-2.5-2.6-3.8-4c-0.6-0.6-1.1-1.3-1.3-2.2
	c-0.2-1,0-2.2,0.1-3.3c0.2-1.7,0.4-3.5,0.6-5.2c0.2-1.5,1-4.4-0.2-5.6c-1.4-1.4-4.4,0.2-5.8,0.8c-3.8,1.6-7.3,3.7-10.9,5.7
	c-3.6,2-7.4,3.4-11.6,2.8c-2-0.3-4-0.8-5.9-1.6c-1-0.4-2.1-1.1-2.6-2.1c-1-1.9,0.2-4.3,0.8-6.1c0.9-2.8,1.4-5.5,0.5-8.4
	c-0.2-0.6-1.1-0.3-1.4,0c-1.6,1.5-3.3,3.1-5,4.5c-1.5,1.3-3.2,2.6-5,3.3c-4.7,2-3.1-5.9-2.6-8.1c0.2-1.2-1.3-0.9-1.7-0.3
	c-2,2.7-3.8,5.6-6,8.2c-2.1,2.5-4.8,5-8.2,5.4c-6.2,0.7-9.8-4.9-13.7-8.6c-2.3-2.2-5-3.8-8.2-4.2c-0.8-0.1-1.6,1-1.5,1.7
	c0.4,2.6,1.2,5.5,0.8,8.1c0,0.3-0.1,0.7-0.2,0.8c-0.1,0.2,0,0.1-0.2,0.2c-0.5,0.2-1.5,0.2-2.2,0.2c-2.9-0.3-5.7-1.5-8.6-2
	c-3-0.6-6.1-1-9-1.9c-2.6-0.9-5-2.3-6.2-4.7c-0.2-0.6-0.4-1.3-0.6-1.9c-0.5-1.1-2.3,0.5-2.1,1.4c0.1,0.7,0.4,1.3,0.6,1.9
	c1.3,5.2-1.1,11.3-6.2,13.6c-7.2,3.2-14.6-2.6-21.3-4.5c-0.8-0.2-1.7,0.7-1.7,1.4c-0.1,1.9,0.3,3.7,0.6,5.5c0.2,1.6,0.9,4.2,0.1,5.7
	c-0.7,1.4-3.5,1.2-4.8,1.3c-2,0-4.1-0.2-6,0.5c-0.6,0.2-1.7,1.2-1.2,1.9c1.3,1.7,2.9,2.8,4.5,4.2c1.6,1.3,2.8,3.2,2.3,5.3
	c-0.4,1.7-2.1,2.8-3.1,4.1c-1.4,1.7-2.2,3.6-2.1,5.9c0,0.1,0,0.1,0,0.2c0,0.1-0.1,0.3-0.1,0.4c0,0.1,0,0.3,0,0.4
	c-1.8-0.1-3.7-0.2-5.5-0.2c-3.4-0.1-6.8,0.2-10,1.5c-0.8,0.3-1.6,0.9-1.9,1.8c-0.6-2.2-1.6-4.1-3.6-5.4c-1.8-1.2-4-1.4-6.1-1.7
	c-3.3-0.5-6.4-1.8-9.7-2.3c-3.3-0.5-6.7,0.5-9.8,1.3c-1.5,0.4-3,0.9-4.4,1.6c-1.5,0.8-3,1.9-4.8,2.2c-0.3,0-0.5,0.1-0.8,0.3
	c-0.1,0-0.3,0.1-0.4,0.1c-4.4,2.7-7.9,7-10.4,11.5c-0.3,0.5-0.6,1-0.8,1.5c-0.2,0-0.3,0-0.5,0.1c-4.3,1.3-8.7,1.8-13,3.1
	c-1.1-2.4-2.2-4.8-3.2-7.3c-1.1-2.8-1.9-5.6-2.9-8.4c-1.8-5.5-4.8-10.7-8-15.5c-1.6-2.3-3.1-4.6-4.3-7.2c-1.2-2.5-2.5-4.8-4.2-6.9
	c-1.7-2.2-3.5-4.9-5.7-6.6c-1.8-1.4-4.3-0.8-6.4-0.9c-1.7-0.1-3.4-0.3-5.1-0.1c-1.6,0.2-3.2,0.6-4.8,1c-3.4,0.9-6.7,1.9-10.1,2.5
	c-0.5,0.1-1,0.5-1.3,1c-2.4-0.8-5.4-0.4-7.7,0.2c-6,1.5-11.4,4.3-17.1,6.5c-3.4,1.3-6.9,2.3-10.5,2.7c-3.6,0.3-7.2,0.3-10.7,1
	c-0.9,0.2-1.8,0.4-2.7,0.7c-0.3,0-0.6,0.1-0.9,0.2c-7.5,3.8-15.5,7.2-21,13.8c-6.1,7.2-8.5,17-8.2,26.3c0.2,5.1,1.1,10.4,3.8,14.8
	c0.1,0.1,0.1,0.2,0.2,0.2c1,5.7,4.7,10.7,5.4,16.5c0.1,0.8,0.2,1.5,0.3,2.2c-3,0.9-6,1.9-8.9,3.2c-1.3-0.8-2.8-1.2-4.4-0.9
	c-1.6,0.3-2.8,3.6-0.5,3.2c-0.1,0,0.3,0,0.6,0c-3.1,4.6-2.4,11.1-1,16.2c0.8,3.2,2,6.3,3.5,9.2c1.2,2.3,2.6,4.6,4.5,6.4
	c1.3,1.3,3.1,2.1,4.9,1.1c1.2-0.7,1.9-1.8,2.4-3c0.6-0.5,1.2-1,1.8-1.5c1.4-1.2,2.9-2.4,4.6-3.1c1.6,4.6,3,9.2,4.2,13.9
	c1.3,4.8,2.5,9.8,4.5,14.3c0.9,2,2.3,3.9,3.7,5.6c3.8,4.7,8.3,8.9,13.2,12.5c4.7,3.5,10.2,6.8,16.1,7.7c2.9,0.5,5.8,0.3,8.4-0.9
	c2.6-1.2,4.7-3.4,6.1-6c1.8,0.9,3.7,1.5,5.9,1.7c3.2,0.3,6.5-0.6,9.5-1.5c4-1.2,7.9-2.8,12-4.1c3.9-1.2,7.7-2.2,11.4-4
	c3.3-1.6,6.4-3.8,9.2-6.2c1.5-1.3,2.9-2.7,4.4-4c0.3,0,0.6-0.1,0.8-0.2c2.9-1.4,6.1-1.2,9.1-2.2c2.8-1,4.8-2.9,7-4.9
	c2.1-2,4.7-3.1,6.7-5.1c1.8-1.8,3.1-3.8,3.7-6.3c0.7-2.9,0.9-6,1-9c0.1-3.1-0.2-6.2-1-9.3c-1.8-6.6-3.5-13.1-5.4-19.7
	c-1-3.5-1.8-7.1-2.9-10.6c-0.5-1.7-1.1-3.3-1.6-5c-0.1-0.3-0.2-0.7-0.3-1c0.2-0.4,0.2-0.9,0.1-1.2c-0.2-0.4-0.4-0.9-0.6-1.3
	c2.6-0.8,5.2-1.3,7.8-2.1c0.5-0.2,1-0.5,1.4-1c0.8,1.1,1.7,2.2,2.6,3.2c1.6,1.8,3.4,3.1,5.8,3.5c0.1,0,0.3,0,0.4,0.1
	c0,0,0,0.1,0,0.1c1.5,5.8,5.4,10.6,8.2,15.8c3.2,5.9,6,12,9.6,17.7c3.4,5.5,7.4,10.6,11.2,15.8c3.9,5.2,7.2,10.7,10,16.6
	c1,2.2,1.7,4.5,2.8,6.6c0.8,1.6,1.8,3.3,3.4,4.1c0,0.5,0.4,0.9,0.9,0.7c0.1,0,0.2-0.1,0.3-0.1c0,4.8,1.8,9.3,3.5,13.7
	c1.5,3.8,2.4,8.4,5.3,11.4c0.5,0.6,1.6-0.2,1.9-1c1.4,0,2.7-0.3,4-0.6c-0.4,1.3-0.7,2.7-0.9,4c-0.2,0.9-0.4,1.8-0.6,2.7
	c-0.1-0.1-0.4-0.2-0.7-0.1c-9.2,1.9-17.9,6.3-25.6,11.5c-8.2,5.5-17.5,9.6-24.6,16.5c-3,3-5.7,6.2-8.6,9.4c-0.4,0-0.8,0.3-1,0.6
	c0,0,0,0,0,0c0,0-0.1,0-0.1,0c-1,0-2,1.9-1.2,2.2c-2.5,6,1.2,13.4,2.8,19.2c0.8,2.9,0.9,5.9,1.4,8.8c0.4,2.5,1,5.4,2.7,7.4
	c2.4,2.6,6.1,1.4,8.7-0.1c0.2-0.1,0.4-0.3,0.5-0.4c7.1-3.8,12.5-10.2,18.1-15.9c3.2-3.2,6.4-6.4,9.3-9.8c3.1-3.6,6-7.3,9.5-10.4
	c2.9-2.7,6-5.2,8.9-7.9c0,0.3-0.1,0.7-0.2,1c-0.1,0.3-0.1,0.5,0,0.6c-3.9,3-6,8.3-8,12.6c-1.4,3-3,5.8-5.1,8.4
	c-1.8,2.3-3.7,4.6-5.5,6.9c-0.1,0-0.2,0-0.3,0c-1,0-2.1,1.9-1.4,2.4c-0.1,0.2-0.2,0.4-0.3,0.7c-0.6,4.3-1.8,8.4-3.4,12.4
	c-1.7,4.2-3.9,8.2-6,12.3c-2.2,4.2-4.3,8.4-6.4,12.7c-1.4,2.7-2.5,5.5-3.9,8.2c-1.1,2.2-2.6,4.3-4.9,4.9c0.1-0.4,0-0.8-0.4-1
	c-0.7-0.3-1.3,0.4-1.7,0.9c-0.2,0.3-0.4,0.6-0.6,0.8c-0.2,0.2-0.3,0.4-0.4,0.6c-1.9,2.9-3.5,6.2-6.2,8.3c-0.4,0.4-1,1.2-0.7,1.8
	c0,0.1,0.1,0.1,0.1,0.2c-0.3,0.6-0.3,1.3,0.5,1.4c5.5,0.2,10.5,2.5,15.7,3.8c2.6,0.6,5.4,0.9,8,1.2c2.9,0.4,5.8,0.7,8.6,1
	c5.8,0.6,11.7,1,17.5,1.1c5.7,0.1,11.4,0.1,17.1-0.5c3-0.3,6.1-0.7,9.1-1c2.6-0.2,5.1-0.7,7.5-1.6c0,0,0,0,0,0
	c0.1,1.5,2.5-0.1,2.4-1.3c-0.2-1.9,0.7-3.5,1.5-5.1c0.8-1.5,1.3-3,1.7-4.7c0.4-1.8,0.5-3.7,0.9-5.6c0.4-1.9,1.2-3.5,2.2-5.1
	c1.9-3.1,4-5.9,5.5-9.2c1.3-2.8,2.3-5.7,3.4-8.6c0,0,0,0,0,0c0.7-0.2,1.2-0.9,1.3-1.5c1.2-5,5.5-8.7,8.8-12.3c1.8-1.9,3.4-3.9,5-6
	c1.8-2.4,3.5-4.9,4.7-7.6c3.9,1.4,7.7,3.7,12,2.5c4,5.7,8.5,10.9,11,17.5c2.4,6.3,4.9,13.1,9.4,18.2c-0.1,0.3-0.2,0.6-0.1,0.8
	c1.2,3.7,3.3,6.9,3.8,10.8c0.4,3.6,0.4,6.9,2.4,10.1c0.9,1.5,1.5,3,1.8,4.8c0.3,1.5,0.5,3.1,1.2,4.5c1,2,2.8,3.4,4.9,4.2
	c4.5,1.8,9.7,1.5,14.4,1.3c3.2-0.1,6.5,0,9.7-0.2c4-0.2,7.9-0.6,11.9-0.9c8.1-0.7,16.2-0.8,24.3-0.5c4,0.2,8,0.5,12,0.8
	c2.6,0.2,5.3-0.1,7.7-0.9c4.5-1.6,10.1-6.8,7.5-12c-1.2-2.4-3.5-3.9-5.4-5.7c-2.6-2.5-4.4-5.6-7.2-7.9c-1.3-1.1-2.8-2-4-3.3
	c-1.2-1.3-2.3-2.7-3.4-4.1c-2.2-2.9-4.2-6-6.1-9.2c-3.8-6.2-7.9-12.5-11-19.1c-0.8-1.7-1.5-3.5-2.1-5.2c-0.4-1.2-2.6,0.6-2.2,1.8
	c2.3,6.9,6.4,13,10,19.3c3.4,5.8,6.9,11.6,11.2,16.8c1,1.2,2.1,2.4,3.4,3.4c1.3,1.1,2.8,2,4,3.3c2.3,2.3,4.1,5.2,6.6,7.4
	c1.7,1.5,4,3.2,4.5,5.6c0.4,2.5-1.7,4.8-3.7,5.9c-2.2,1.2-4.8,1.6-7.3,1.6c-3.5,0-7.1-0.5-10.6-0.7c-7.7-0.4-15.3-0.5-23,0
	c-7.6,0.5-15.2,1.4-22.9,1.4c-4.6,0-9.3,0.5-13.8-0.4c-2.3-0.4-4.6-1.3-6.2-3.1c-2.3-2.6-1.6-6.4-3.2-9.3c-0.9-1.6-1.9-3-2.3-4.8
	c-0.4-2-0.4-4.1-0.7-6.1c-0.4-3.3-1.9-6.2-3.2-9.3c6.4-6.4,12.6-12.9,20.1-17.9c7.2-4.7,14.8-8.1,23.2-9.9c4.4-0.9,8.8-2.1,12.4-5
	c0,0,0,0,0,0c0,0.1,0.1,0.1,0.1,0.2c0.7,0.9,2.5-1.1,1.7-2c-5-6-8.5-13.3-9.7-21c-0.3-2-0.4-4-0.5-6.1c-0.2-2.1-0.4-4.2-0.6-6.3
	c-0.4-4.2-0.2-8.3,0.3-12.4c0.5-4.5,1.5-9,3.3-13.1c0.4-0.2,0.8-0.5,0.9-0.9c0.5-1.5,1.1-3.1,2-4.4c0.9-1.4,2.3-2.5,3.5-3.6
	c3.3-2.8,5.8-6.4,8.2-9.9c1.1-1.7,2.3-3.4,3.2-5.2c0.9-1.8,1.2-3.8,1.6-5.8c0.6-3.2,1.7-6.3,1.7-9.6c0-2.6-0.6-5.6-2.4-7.5
	c0.5-0.4,0.9-1.2,0.8-1.6c3.1-3.1,6.8-5.5,9.9-8.6c3.7-3.7,7-7.9,10.8-11.7c1.8-1.8,3.8-3.5,5.5-5.4c1.8-1.9,3.4-3.9,4.9-6
	c2.9-4.1,5.8-8.8,7.1-13.7c1.5-5.5,1.3-11.3,2.7-16.8c2.2-1.3,4.2-3,6-4.9c6.3,3.3,14.7,4.9,18.9,11.1c-0.2,0.4-0.3,0.7-0.3,1.1
	c0.1,3.3-2.2,6.3-3.7,9.2c-1.8,3.5-2.3,7.2-3.4,10.9c-0.6,2-1.5,3.9-2.3,5.8c-0.7,1.8-1.3,3.7-1.8,5.6c-1,3.8-1.7,7.7-2.5,11.6
	c-1.3,6.9-4.1,14.6-1.7,21.6c1.1,3.3,3.4,6.3,5.7,8.9c2.5,2.7,5.3,5.1,8.2,7.3c6.4,4.8,13.6,10,21.9,10.8c0.4,0,0.9-0.2,1.2-0.5
	c1.5,0.3,2.9,0.9,4.2,1.5c2.1,1,4.2,2.2,6.3,3.3c4,2.1,8.5,3.3,13.1,3.2c0.1,0.3,0.3,0.5,0.6,0.6c0.8,0.3,1.6,0.3,2.4,0
	c4.3,1.3,8.4,3.3,12.6,4.8c4.5,1.6,9.6,3,14.4,1.6c5.5-1.6,8.9-6.9,12-11.3c3.6-5.2,6.6-10.7,9.4-16.4c1.6-3.2,3.7-6.1,5.3-9.3
	c0.8-1.6,1.5-3.2,1.8-4.9c0.3-1.4,0-2.7,0.2-4.1c3.2-0.2,6.3-0.7,9.5-0.7c0.4,0,0.9-0.3,1.2-0.6c0.2,0.1,0.5,0.3,0.7,0.3
	c1.8,0.4,3.5-1.2,4.5-2.5c1.7-2.1,2.3-4.5,3-7c1-3.4,2.4-6.7,3.8-10c2.3-5.5,5.7-12.8,0.8-17.7C599.5,141.3,599.2,140.7,598.5,140.7
	z M233.3,63.9c-0.2-2.2,1.1-3.6,2.6-5.1c1.4-1.5,2.6-3.1,2.7-5.2c0.1-2.2-0.7-4-2.3-5.4c-1.1-1-2.3-1.8-3.4-2.7
	c3.7-0.2,8,0.8,10.2-2.7c2-3.2,0.4-7.1,0-10.7c5.8,2.1,11.3,5.7,17.7,4.7c5.6-0.9,9.9-5.5,11.4-10.8c0.2-0.9,0.4-1.7,0.5-2.6
	c3.5,2.8,9,3.4,13.2,4.2c3.3,0.6,6.4,2,9.7,2.2c2.2,0.1,4.2-0.7,4.9-2.9c0.4-1.2,0.4-2.5,0.3-3.8c-0.1-1.3-0.3-2.6-0.5-3.9
	c5.1,1.5,8,6.8,12.1,9.9c2.4,1.8,5.3,2.8,8.3,2.4c3.5-0.5,6.3-2.6,8.7-5c1.9-1.9,3.4-4.1,5-6.3c-0.3,2.8-0.2,6,2.4,6.5
	c1.4,0.3,2.9-0.4,4.1-1c1.7-0.9,3.2-2.1,4.7-3.3c1.3-1.1,2.6-2.2,3.9-3.4c0.3,2-0.2,4-0.8,6c-0.6,1.9-1.5,4-1.2,6
	c0.4,2.5,2.7,3.7,4.8,4.5c3.8,1.3,8,1.8,12,0.7c3.8-1.1,7.1-3.2,10.5-5.1c1.9-1.1,3.8-2,5.7-2.8c1.1-0.5,2.4-1.1,3.7-1.3
	c0.3,0,0.6,0,0.7,0c0.2,0.1,0.2,0.2,0.3,0.4c0.2,0.9,0,1.9-0.1,2.8c-0.4,3-0.9,6-0.9,9c0,2.6,1.8,4.2,3.5,6c1.7,1.8,3.5,3.6,5.1,5.5
	c1.4,1.5,2.7,3.2,3.5,5.1c-2.6,0.3-5.2,0-7.7-0.7c-1-0.3-2,1.1-1.7,1.9c1.3,3.6,2.9,7,4.6,10.3c-5.5-1.3-11.1-2.3-16.7-3.4
	c-6.2-1.2-12.3-3.2-18.6-3.8c-6.5-0.7-13.1-0.7-19.6-0.6c-6.6,0.1-13.2,0.4-19.8,0.7c-3.4,0.1-6.8,0.3-10.1,0.7
	c-3.2,0.3-6.3,0.9-9.5,1.5c-3.2,0.6-6.5,1.1-9.8,1.3c-3.2,0.2-6.5,0.5-9.7,0.8c-6.4,0.7-12.8,1.5-19.3,1.9c-3.7,0.2-7.4,0-11.2-0.1
	c-3.6-0.1-7.3,0-10.9,0.1c-1,0-1.9,0-2.9,0c0-0.5-0.1-1-0.1-1.5c0-0.1,0-0.2-0.1-0.2C233.3,64.3,233.3,64.1,233.3,63.9z M214.4,78.4
	c0-2.3,0.1-4.9-0.3-7.4c0.3,0.2,0.6,0.2,1,0.1c5.6-2.3,11.9-1.1,17.9-1.1c3.3,0,6.7-0.1,10-0.1c3.3,0,6.6,0.2,9.9,0.2
	c6.5,0,12.9-0.8,19.3-1.5c3.2-0.4,6.4-0.7,9.6-1c3.2-0.3,6.4-0.4,9.7-0.9c3.1-0.5,6.1-1.1,9.2-1.6c3.1-0.5,6.3-0.8,9.5-1
	c6.6-0.4,13.2-0.6,19.8-0.8c6.6-0.2,13.1-0.1,19.7,0.2c3.2,0.2,6.4,0.4,9.6,1c3.1,0.6,6.2,1.4,9.3,2.1c6.7,1.6,13.6,2.5,20.4,4.1
	c6.6,1.5,13.1,3.6,19.1,6.6c-1.1,1.7-2,3.6-2.7,5.5c-1,2.6-1.1,5.3-0.6,8c-2.2-0.6-4.1-2-6-3.1c-2.5-1.5-5.1-2.5-7.8-3.3
	c-6-1.7-12-2.9-18.2-3.7c-13.2-1.8-26.3-3.2-39.6-3.6c-13.4-0.4-26.7,0.1-40.1,0.6c-6.5,0.2-13,0-19.4,0.9c-3.1,0.4-6.3,1-9.5,1.2
	c-3.2,0.2-6.3-0.2-9.5-0.5c-3.5-0.3-7-0.1-10.5,0.3c-3.6,0.4-7.2,0.6-10.8,0.9c-3.4,0.2-6.6,1-9.8,2.2c-2.9,1.1-5.7,2.2-8.9,2.3
	c-0.2,0-0.4,0.1-0.6,0.1C214.5,82.9,214.4,80.6,214.4,78.4z M402.2,107.2c-0.4,0.3-0.7,0.8-0.8,1.2c-0.6,2.8-3.4,5-5.2,7.1
	c-1.1,1.2-2,2.5-3.1,3.7c-1.3,1.3-2.7,2.5-4,3.8c-0.1,0.1-0.1,0.1-0.2,0.2c-0.4-1.5-1-3-2.3-3.9c-0.4-0.3-0.8-0.5-1.3-0.7
	c-0.2-2.8,0.8-5.9,1.7-8.3c1.9-5,4.5-9.8,7-14.5c0.8-1.5,1.6-3.1,2.3-4.6c2.2,1.3,4.3,2.6,6.7,3.2c-1.5,1.7-2.6,3.7-2.9,5.9
	C399.8,102.9,400.6,105.4,402.2,107.2z M366.2,139.9c0.3,0.5,0.6,1.1,0.9,1.6c-0.1,0-0.1,0.1-0.2,0.2c-2.4-0.4-4.8-0.6-7.2-1.2
	c-3.4-0.9-6.7-1.8-10.2-2.2c-3.3-0.4-6.6-0.5-9.9-0.7c0.1-0.2,0.1-0.3,0-0.5c-0.8-1.7-2.5-3-3.1-4.8c-0.4-1.2-0.5-2.7-2.1-2.9
	c-0.7-0.1-1.5,0.2-2.2,0.4c-1,0.3-2,0.3-3,0.4c-1.1,0.1-2.3,0.3-3.4,0.2c-1.2-0.1-2.1-0.7-3.1-1.3c-1.9-1-4-1.2-6.1-1.3
	c-2.1-0.1-4-0.5-6.1-1.1c-3.3-0.9-7.2-2.1-10.4-0.3c-4.2,2.4-7.3,6.4-11.1,9.3c-0.6,0.5-0.3,1.5,0.4,0.9c1.8-1.4,3.5-3,5.2-4.6
	c-0.1,1.4-0.3,2.7-0.2,4.1c0.1,0.8,1.2,0,1.2-0.6c-0.1-1.5,0.1-3,0.2-4.6c0.9-0.8,1.8-1.6,2.8-2.3c0.6-0.5,1.3-0.9,1.9-1.2
	c0,0.7,0,1.3-0.2,2c-0.1,0.1-0.1,0.2-0.1,0.4c-0.2,2.6-2.1,4.7-2.1,7.4c-1.3-0.1-2.7-0.1-4-0.1c-3.7,0.1-7.4,0.4-11.1,0.3
	c-3.7-0.1-7.4-0.1-11.1,0.5c-3.1,0.5-6.4,1.2-9.2,2.9c-0.1,0-0.1,0.1-0.2,0.2c0.9-7.8-2.9-15.8-5.8-22.8c-0.1-0.2-0.2-0.3-0.4-0.4
	c3.1-7.4,9.5-13.8,10.2-22.1c0-0.3,0-0.4-0.1-0.6c1-0.3,2.1-0.7,3.1-1.2c2.5-1.1,4.8-2.4,6.3-4.6c1.1,0.6,1.8,1.5,3.2,1.8
	c1.3,0.3,2.8,0.2,4.1,0.2c1.6,0,3.2-0.1,4.8-0.3c1.4-0.2,2.9-0.1,4.2-0.6c0.2-0.1,0.3-0.5,0.1-0.4c-1.4,0.5-3.1,0.4-4.6,0.6
	c-1.4,0.2-2.9,0.3-4.3,0.2c-1.4,0-3,0.1-4.4-0.3c-1.1-0.3-1.8-1.1-2.8-1.6c0.2-0.4,0.4-0.7,0.6-1.1c0.9-2,1.4-4.9,3-6.3
	c1.5,0,3,0,4.4-0.1c1.2,1.5,0.8,4.5,0.6,6.2c-0.1,1,0.9,1,1.5,0.5c1.8-1.5,3.7-2.6,5.8-3.5c-0.3,2.2,0.3,4.4,0.4,6.7
	c0,0.5,0.5,0.6,0.9,0.5c1.4-0.3,2.6-0.9,3.6-1.7c0,0.1,0,0.2,0.2,0.1c0.9-0.5,2-0.6,3-0.9c1.3-0.4,2.5-0.4,3.9-0.5c0,0,0,0,0,0
	c0,0,0,0,0,0c0.2-0.1,0.5-0.2,0.7-0.3c0.1,0,0.2-0.2,0.2-0.3c0-0.1-0.1-0.1-0.2-0.1c-0.2,0.1-0.4,0.1-0.6,0.2
	c-1.4,0.1-2.6,0-3.9,0.5c-0.8,0.3-1.7,0.4-2.5,0.7c2.1-1.7,3.7-4,5.8-5.8c1.1,2.1,1.7,4.3,1.7,6.7c0,2.4-0.6,4.7-1.2,6.9
	c-0.1,0.2-0.1,0.5-0.2,0.7c0,0.1,0,0.1,0,0.2c0,0,0,0,0,0c0,0.1-0.1,0.2-0.1,0.3c-0.1,0.5,0.3,0.9,0.8,0.8c0.6,0,1.1-0.6,1.3-1.1
	c0.2-0.5,0.3-1.1,0.5-1.6c0.9-2.7,2.5-5.3,4.4-7.6c1.6,0,3.1,0.4,4.6,0.6c0.6,0.1,1.2,0.3,1.8,0.4c0.6,0.1,1.1-0.1,1.6-0.1
	c0,0,0.1,0,0.1-0.1c0,0,0.1,0,0.1,0c0.1,0,0.1-0.1,0.2-0.1c0.7,2,1.2,4.1,1.7,6.2c1.1,4.9,1.6,9.9,2.8,14.7c0.3,1.1,1.6,0.3,1.9-0.3
	c1.9-3.1,2.1-6.8,2.2-10.3c0.1-2.5,0-5.4,1.1-7.7c0.5,1.2,1.2,2.3,1.6,3.6c0.1,0.5,0.4,0.6,0.9,0.5c3.4-0.8,5.7-3.4,6.8-6.6
	c0.1-0.3,0.2-0.5,0.3-0.8c0.7,0.3,1.4,0.3,2.1,0.3c1.4,0,2.7,0,4-0.1c2.7-0.3,5.6,0.3,8.2-0.4c0.1,0,0.1-0.1,0.2-0.2
	c0.7,1.2,1.4,2.3,2.2,3.4c0.6,0.7,1.7-0.6,1.9-1c0.5-1.1,1-2.2,1.3-3.4c0,0,0,0,0.1,0c0.8-0.3,1.6-0.6,2.3-0.9c0,0.1,0,0.2,0,0.2
	c0.6,1.6,0.5,3.3,0.8,4.9c0.3,1.7,0.7,3.4,0.9,5.2c0.2,1.7,0.4,3.4,0.8,5c0.3,1.4,0.8,2.7,1.1,4.1c1.1,4.7,1.6,10.3,5.1,14.1
	c0.1,0.1,0.2,0.1,0.4,0.1c0.2,0.2,0.4,0.4,0.7,0.5c0,0.2-0.1,0.5-0.1,0.7c-0.1,0.4,0.2,0.7,0.5,0.8c0,0,0,0,0,0.1
	c-0.6,1.5-0.7,3.2-0.7,4.8c-0.1,1.7,0.1,3.3-0.6,4.9c-0.8,1.9-1.9,3.5-2.2,5.4C366.6,138.3,365.8,139.2,366.2,139.9z M328.7,131.6
	c1-0.1,1.9-0.2,2.8-0.4c0.8-0.2,2-0.8,2.8-0.4c0.6,0.3,0.8,0.9,0.9,1.5c-0.2,0.1-0.4,0.4-0.5,0.6c-0.3,1.6-1.2,2.8-1.6,4.3
	c-1.7-0.1-3.4-0.2-5.1-0.2c0.1-0.1,0.2-0.3,0.2-0.5C328.2,135.1,327.9,133.1,328.7,131.6z M335.7,133.7c0.6,1.4,1.9,2.6,2.7,3.9
	c-0.1,0-0.2,0-0.2,0c-1.3-0.1-2.6-0.1-3.9-0.2C334.5,136.1,335.2,134.9,335.7,133.7z M327.1,137.1c-0.1,0-0.2,0-0.3,0
	c-1.3,0-2.7,0-4,0.1c-0.1-1.9,0.8-3.8,1.5-5.5c0-0.1,0-0.1,0.1-0.2c0.5,0.2,1,0.3,1.5,0.3c0.6,0,1.2,0,1.8,0
	C326.9,133.4,327,135.2,327.1,137.1z M318.4,130.2c0.2-0.8-1-0.2-1.2,0.3c-0.5,2.3-1,4.7-0.9,7.1c-0.2,0-0.5,0.1-0.7,0.1
	c-1.6,0.2-3.2,0.4-4.9,0.5c-1.9,0.1-3.8-0.1-5.7-0.4c-2-0.2-4-0.5-6-0.6c0.2-0.2,0.3-0.4,0.2-0.6c-0.1-2.5,1.7-4.5,2-6.9
	c0.3-0.9,0.4-1.8,0.4-2.8c0.7-0.2,1.5-0.3,2.4-0.3c1.8,0.1,3.6,0.6,5.4,1.1c0.3,0.1,0.7,0.2,1,0.3c-1,3-1.5,6.2-2.5,9.3
	c-0.3,0.9,0.9,0.6,1.1,0c1-3,1.5-6,2.4-9c1,0.2,1.9,0.4,2.9,0.5c2.2,0.2,4.6,0.1,6.7,1c0.9,0.4,1.6,0.8,2.4,1.2
	c-0.2,0.1-0.4,0.3-0.5,0.5c-0.7,1.7-1.6,3.7-1.6,5.6c-1.4,0.1-2.7,0.2-4.1,0.4c0.1-0.1,0.2-0.3,0.1-0.4
	C317.5,134.8,317.9,132.5,318.4,130.2z M248.9,98.1c3.3,0.2,6.6-0.3,9.8-0.9c2-0.4,4.1-0.8,6.1-1.4c-0.1,0.2-0.2,0.4-0.2,0.6
	c-0.3,4-2.4,7.7-4.4,11.2c-1.6,2.7-3.2,5.3-4.6,8.1c-4.4-4.8-10.8-7-15.1-11.9c-4.8-5.5-5.3-12.8-5.3-19.8c1.4-0.1,2.7-0.1,4.1-0.3
	c3.2-0.4,6.4-0.9,9.6-0.9c3,0,6.1,0.3,9.1,0.6c3.3,0.3,6.5,0,9.7-0.5c3.2-0.5,6.4-1,9.7-1.2c0.1,0,0.2,0,0.4,0
	c-0.1,0.2-0.2,0.4-0.3,0.6c-0.8,1.5-1.3,3.2-2,4.8c-0.6,1.5-1.4,2.6-2.8,3.4c-3.2,2-7,3.1-10.7,3.9c-3.9,0.9-8,1.6-11.9,1.3
	C248.7,95.8,247.5,98,248.9,98.1z M245,111c3.3,2.2,6.7,4.2,9.3,7.3c0,0,0,0,0,0c-0.2,0.5,0,1,0.5,1.1c0,0.2,0,0.3,0,0.4
	c1.5,3.6,3,7.3,4.2,11c1,3.3,1.8,6.8,1.5,10.2c-2.9-0.6-6.1-0.6-8.2-2.9c-2.9-3.1-5.2-7-7.3-10.7c-1.6-2.7-3.3-5.5-4-8.6
	c-0.3-1.3-0.4-2.8,0.1-4.1c0.6-1.5,1.9-2.5,3.3-3.2C244.6,111.4,244.8,111.2,245,111z M352.9,88.9c-2.5,0.7-5.1,0.1-7.7,0.3
	c-1.2,0.1-2.3,0.2-3.5,0.2c-1-0.1-2.2,0.1-3.1-0.4c0.8-2.6,1.1-5.3,2.1-7.8c2,0.1,4.1,0.2,6.1,0.4c0.8,0.1,1.7,0.1,2.5,0.2
	C350.5,84.1,351.6,86.6,352.9,88.9z M352.3,82.1c1.8,0.2,3.5,0.4,5.3,0.6c0,0,0,0,0,0c-0.2,2.2-0.8,4.4-1.5,6.5
	C354.6,87,353.5,84.5,352.3,82.1z M336.6,89c-0.7,2.5-1.8,4.6-4.3,5.4c-0.6-1.6-1.6-3-1.8-4.7c-0.1-1-1.3-0.4-1.7,0
	c-4.6,4.6-2.4,11.4-3.7,17.1c-0.8-4.1-1.3-8.2-2.3-12.3c-0.6-2.7-1.3-5.4-2.4-7.9c-0.8-1.8-1.8-3.8-3.6-4.9
	c-0.4-0.3-0.9-0.1-1.3,0.2c-3,2.6-5.9,5.6-8.2,9c0-0.3,0-0.6,0-0.9c0-3-0.8-5.8-2.3-8.3c-0.3-0.5-1-0.3-1.4,0c-3.1,2.5-5.2,6.6-9,8
	c-0.2-2.1-0.8-4.3-0.2-6.3c0.2-0.6-0.1-1.4-0.8-1.1c-2.3,0.8-4.5,1.9-6.4,3.3c0.1-1.3,0.2-2.7-0.1-3.9c13.3-0.4,26.6-1.1,39.9-0.9
	c3.9,0.1,7.8,0.2,11.7,0.4C337.7,83.6,337.3,86.4,336.6,89z M319,89.8c-0.1,0-0.2,0-0.3,0.1c-0.7,0-1.3,0.1-2,0
	c-0.7-0.2-1.4-0.3-2.1-0.4c-1.2-0.2-2.4-0.5-3.7-0.5c1.5-1.7,3.1-3.3,4.7-4.8c1.3,1.1,2.2,2.8,2.8,4.3
	C318.7,88.9,318.8,89.4,319,89.8z M358.6,87.7c0.4-1.1,0.6-2.3,0.9-3.5c0.5,0.8,1,1.7,1.5,2.5C360.2,87.1,359.4,87.4,358.6,87.7z
	 M371.4,111c-0.9-3.5-1.9-7-2.3-10.6c-0.4-3.2-1.1-6.3-2.6-9.2c-1.4-2.7-3.1-5.3-4.7-7.9c1.6,0.2,3.1,0.4,4.7,0.6
	c7.1,0.9,14,2,20.9,3.8c2.6,0.7,5.1,1.5,7.4,2.7c-1.8,4.3-4.3,8.3-6.4,12.4c-2.4,4.7-5,9.9-5.2,15.3c0,0.1,0,0.2,0,0.2
	c-0.3,0-0.6,0-0.9,0c-3.2,0.3-6.4,1.9-9.6,1.7C372.9,117,372.2,113.9,371.4,111z M370.6,119.8C370.5,119.8,370.5,119.8,370.6,119.8
	c-0.2-0.2-0.3-0.3-0.5-0.2c-3.4-3.9-3.7-9.6-4.9-14.4c-0.4-1.4-0.8-2.7-1.1-4.1c-0.3-1.7-0.5-3.5-0.7-5.3c-0.2-1.6-0.7-3.2-0.9-4.8
	c-0.1-0.7-0.1-1.5-0.2-2.2c0.7,1.2,1.4,2.4,2.1,3.7c1.4,2.8,2.2,5.9,2.6,9c0.4,3.5,1.4,6.9,2.2,10.3
	C369.8,114.4,370.6,117.1,370.6,119.8z M369.3,138.2c0-1.9,1.3-3.6,2.1-5.2c0.2-0.4,0.4-0.9,0.5-1.3c1.6-0.7,3.2-1.5,5-1.9
	c0.5-0.1,0.9-1.2,0.1-1c-1.7,0.4-3.3,1.1-4.9,1.9c0.1-0.7,0.2-1.3,0.2-2.1c0-1.3,0-2.5,0.2-3.8c0.1-0.6,0.2-1.1,0.3-1.6
	c0.1,0,0.1,0,0.1,0c0.6,0.2,1.3-0.4,1.6-1c2-0.4,4.1-1.1,6.1-1.4c0.9-0.1,1.9-0.2,2.8-0.1c0.2,1.4,0.8,2.7,1.7,3.8
	c0.4,0.4,1.1,0.1,1.5-0.4c0.1,0.4,0.2,0.8,0.3,1.3c0,0,0,0,0,0c-2.2,3.2-6.4,4.5-9.1,7.2c-1.6,1.5-2.9,3.3-4.1,5.1
	c-1,1.4-1.9,2.8-2.7,4.4c-0.9-0.7-1.6-1.6-2.3-2.6C369.1,139.1,369.3,138.6,369.3,138.2z M405.4,94.6c0.1,0,0.1-0.1,0.2-0.1
	c0.6,1.8,1.5,3.5,2.4,5.1c2.1,3.7,4.9,7,8.6,9.3c-0.2,0-0.4,0.1-0.6,0.3c-1.5,1.1-3.7,0.7-5.4,0.2c-2-0.6-3.9-1.6-5.5-3
	c-1.7-1.4-2.9-3.5-2.9-5.7C402.3,98.2,403.7,96.1,405.4,94.6z M213.2,90.9c-0.1,1.8-1.1,3.5-1.9,5.1c-1,1.8-2,3-3.8,4.4
	c-2.1,1.7-5.1,3.4-7.9,2.7c0.2-0.7,0.4-1.3,0.5-2c0.2-0.9-0.3-1.2-0.8-1c4.3-2.1,6.6-6.9,10.6-9.5c0.3-0.2,0.6-0.4,0.9-0.6
	C211.9,89.4,213.3,89.2,213.2,90.9z M17.4,148.1c-1.4-2.5-2.5-5.1-3.4-7.9c-1-3.1-1.7-6.3-1.7-9.5c0-1.3,0.1-2.7,0.4-3.9
	c0.1-0.2,0.2-0.6,0.3-0.8c0.1-0.2,0.2-0.4,0.2-0.5c0.3,0,0.5-0.1,0.8-0.2c0.1,0,0.1-0.1,0.2-0.1c0.3,0.2,0.5,0.5,0.8,0.7
	c1.7,1.8,3,4.1,4,6.3c2.4,5.2,4,11,4.3,16.7c0,1.1,0,2.2-0.1,3.2c0,0.1,0,0.2-0.1,0.3c-0.2,0.2-0.5,0.3-0.7,0.5
	c-0.2,0.1-0.4,0.3-0.6,0.5c-0.1-0.1-0.3-0.2-0.4-0.3C19.6,151.7,18.4,149.9,17.4,148.1z M26.3,149.8c0.4-5.9-1.3-12.3-3.5-17.7
	c-1-2.6-2.6-6.2-4.9-8.8c2.4-0.9,4.8-1.6,7.2-2.4c0.4,1.4,0.5,2.8,0.7,4.2c0.3,2.9,1.1,5.8,1.8,8.6c0.6,4.3,1.9,8.5,3.4,12.7
	C29.3,147.3,27.8,148.6,26.3,149.8z M81.7,199.3c-1.7,0.8-4.1,0.9-6.1,0.6c-5.5-0.8-10.6-3.8-15-7c-4.8-3.4-9.2-7.5-13-12
	c-1.4-1.6-2.6-3.3-3.6-5.2c-1.9-3.7-3-8-4.1-12.1c-1.5-5.4-2.9-10.7-4.7-16c-1.6-4.5-3.3-9.1-4.1-13.9c0-0.2,0.1-0.4,0-0.6
	c-0.1-0.4-0.2-0.7-0.3-1.1c0-0.3-0.1-0.6-0.1-0.9c0-0.3-0.1-0.5-0.3-0.7c-0.6-2.3-1.2-4.7-1.4-7.1c-0.2-1.5-0.3-3-0.7-4.5
	c-0.5-1.6-0.9-3.1-1.1-4.8c-0.4-3.1-1.6-6-2.7-9c-1-2.7-2.4-5.3-2.8-8.2c-0.1-0.5-0.3-0.7-0.6-0.8c-4.1-7.2-4-16.8-2.2-24.7
	c0.9-4,2.7-7.9,5.2-11.1c2.2-2.8,5.1-5.1,8.2-7c2.8-1.7,5.8-3.2,8.8-4.7c0.1,3.8,1.3,7.5,2.7,11c0.8,2.2,1.7,4.3,2.4,6.6
	c0.7,2.3,1.2,4.7,1.7,7.1c1.1,5.1,2.2,10.1,3.7,15.1c0.7,2.5,1.7,4.9,2.4,7.4c0.8,2.6,1.4,5.2,1.9,7.8c1.1,5,1.9,10.1,3,15.2
	c0.9,4.2,2.2,8.2,3.4,12.3c1.3,4.3,2.2,9,3.1,13.5c2.4,11.5,4.7,23.3,9.2,34.3c2.4,5.9,5.9,12.4,11.2,16.1
	C84.8,197.1,83.7,198.4,81.7,199.3z M139.8,170.9c-0.3,1.5-0.9,3-1.5,4.4c-0.2,0.5-0.2,1,0.1,1.3c-2.6,2.4-5.2,4.9-8.2,6.8
	c-3,2-6.4,3.4-9.9,4.5c-3.9,1.2-7.8,2.5-11.7,3.8c-3.5,1.2-7.2,2.7-11,2.9c-9.7,0.7-15.6-8.1-19.1-15.9c-4.7-10.4-7.1-21.8-9.4-33
	c-1-4.8-1.9-9.6-3.2-14.3c-0.7-2.6-1.6-5.2-2.4-7.8c-1.4-5-2.4-10.1-3.3-15.1c-0.9-4.9-1.9-9.9-3.4-14.7c-1.4-4.9-3.1-9.7-4.3-14.7
	c-1.1-4.8-1.9-9.7-3.3-14.4C48,60.4,46,56.4,44.9,52c-0.4-1.5-0.7-3.1-0.7-4.7c2.8-1,5.8-1.2,8.7-1.4c3.5-0.2,7-0.5,10.4-1.4
	c6.2-1.7,11.8-5,17.8-7c2.2-0.7,4.6-1.6,6.9-1.7c1.5-0.1,4.2,0.1,5.1,1.3c0.3,0.4,0.6,1.2,0.8,1.8c0.4,0.9,0.9,1.8,1.5,2.7
	c2,2.8,4.1,5.3,5.7,8.3c3.3,6,5.3,12.5,8.3,18.6c3.4,6.9,7.5,13.4,11.1,20.1c3.7,6.8,6.8,13.7,8.7,21.2c1.8,7.2,2.7,14.7,4.3,21.9
	c1.4,6.5,3.6,12.8,5.1,19.3C140.2,157.6,141.3,164.4,139.8,170.9z M158.3,120.2c1.7,6.2,3.4,12.4,5.1,18.6c0.8,3,1.7,5.9,2,8.9
	c0.3,2.9,0.1,5.8-0.3,8.6c-0.3,2.2-0.5,4.5-1.9,6.3c-1.6,2-4,3-5.9,4.6c-2.3,1.9-4,4.3-6.9,5.3c-3,1-6.1,1-9,2.2
	c5.6-12.7-0.1-27.2-3.4-39.7c-1.9-7.1-2.8-14.4-4.3-21.6c-1.6-7.7-4-15.1-7.5-22.2c-3.5-7-7.7-13.7-11.4-20.6
	c-1.8-3.4-3.5-6.9-5-10.4c-1.3-3.1-2.5-6.3-4-9.4c-1.4-3.1-3.2-6-5.2-8.7c-0.9-1.3-2-2.4-2.8-3.8c-0.5-0.8-0.8-1.6-1.1-2.4
	c-0.2-0.4-0.3-0.7-0.6-1c2.4-0.5,4.7-1.2,7-1.8c2.8-0.7,5.4-1.4,8.3-1.3c1.3,0.1,2.5,0.3,3.8,0.2c1,0,2.1-0.3,3,0.1
	c1.1,0.5,2.1,1.9,2.9,2.8c1,1.1,1.9,2.3,2.8,3.5c1.7,2.1,3,4.3,4.1,6.7c1.2,2.5,2.6,4.8,4.1,7c3.1,4.5,5.9,9.4,7.8,14.6
	c1.2,3,1.9,6.2,3.1,9.2c0.9,2.3,1.9,4.6,3,6.8c-0.2,0.4-0.2,0.8-0.1,1.3c0.3,0.9,0.8,1.6,1.2,2.3c0.6,0.9,0.7,1.7,0.9,2.7
	c0.3,1.9,1,3.5,1.8,5.2c1.2,2.4,2.1,4.9,3,7.3c-0.3,0.8-0.2,1.6,0.4,1.8c1.2,2.6,1.7,5.4,2.6,8C156.9,114.3,157.5,117.3,158.3,120.2
	z M155.8,99.3c-0.9-2.5-1.8-5-3-7.5c-0.4-0.8-0.8-1.6-1.1-2.5c-0.3-0.9-0.4-1.9-0.6-2.8c-0.1-0.7-0.4-1.3-0.7-1.8
	c3.6-0.9,7.3-1.5,10.9-2.5c-0.1,0.4-0.3,0.9-0.4,1.3c-0.5,2.2-0.3,4.3,0.3,6.4c0.7,2.4,1.9,4.8,3.2,7
	C161.6,97.6,158.7,98.2,155.8,99.3z M173.7,103c-1.9-0.9-3.3-2.7-4.6-4.3c-1.4-1.8-2.7-3.7-3.8-5.8c-1.2-2.2-2.2-4.6-2.5-7.1
	c-0.2-2.3,0.6-4.5,1.6-6.5c2.2-4.6,5.7-9.4,10-12.1c0.1,0,0.2-0.1,0.2-0.2c2.6-0.4,4.6-2.1,7-3c2.6-1,5.4-1.5,8.1-2
	c2.8-0.5,5.6,0.4,8.3,1.2c2.3,0.7,4.6,1,6.9,1.4c1.6,0.3,3.2,0.7,4.4,1.9c1.7,1.7,2.5,4.2,2.7,6.5c0.3,2.6,0.1,5.2,0.1,7.9
	c0,1.9,0.1,4.1-0.9,5.9c-0.3,0.5-0.6,0.9-1,1.2c-0.3,0.1-0.5,0.3-0.7,0.6c-0.2,0.1-0.4,0.3-0.6,0.4c-1,0.7-1.9,1.4-2.8,2.2
	c-1.6,1.6-3,3.4-4.6,5c-1.8,1.8-4,2.5-6.3,3.5c-2.4,1-4.9,2.1-7.4,2.7c-2.4,0.6-4.9,1-7.4,1.3C178.3,103.9,175.9,104,173.7,103z
	 M218.7,176.6c-0.8-1.7-1.3-3.5-2.1-5.2c-2.6-5.8-5.8-11.2-9.5-16.3c-3.7-5.1-7.6-10.1-11-15.3c-3.5-5.4-6.4-11.2-9.3-16.9
	c-1.6-3-3.3-5.9-5.1-8.8c-1.6-2.5-3.1-5.2-4-8c1.6-0.1,3.3-0.3,4.9-0.6c2.8-0.5,5.6-0.9,8.3-1.9c2.7-1,5.3-2.1,8-3.3c0,0,0,0,0.1,0
	c-0.3,0.2-0.5,0.5-0.6,0.8c-0.3,1-0.5,1.9-0.8,2.9c-0.1,0.4-0.1,0.9,0.3,1.1c2.7,1,5.7,0,8.1-1.4c2.3-1.3,4.5-3.2,6.1-5.3
	c1-1.4,1.8-3,2.5-4.5c0.3-0.7,0.6-1.5,0.8-2.3c1.2,2.3,2.1,4.8,3.7,6.9c0.9,1.2,1.8,2.2,2.8,3.3c1,1.2,1.9,2.5,2.9,3.7
	c3.4,4.6,8.2,7.4,12.5,11c0.9,0.8,2.6-1.2,1.7-2c-4.2-3.6-9.1-6.4-12.4-11c-1.7-2.3-3.6-4.4-5.3-6.6c-1.9-2.4-2.7-5.3-4.3-7.9
	c-0.3-0.5-0.9-0.4-1.4,0c0-0.1,0-0.1,0-0.2c0-0.1-0.1-0.2-0.1-0.3c5.1-0.7,9.5-3.5,14.7-4.1c1-0.1,2-0.2,3-0.2
	c0,7.4,0.4,15.1,5.3,21.1c1.5,1.9,3.3,3.3,5.2,4.7c-2.2,1.4-4.1,3.3-4.6,6c-0.5,2.6,0.2,5.2,1.3,7.6c1.1,2.5,2.6,4.9,3.9,7.3
	c1,1.9,2.2,3.6,3.5,5.3c1.1,1.5,2.1,3.1,3.5,4.4c0.7,0.7,1.5,1.1,2.3,1.5c-0.5,3.9-3.3,7.1-5.7,10.1c-2.8,3.6-5.4,7.3-8,11
	c-1.3,1.8-2.6,3.6-4.1,5.3c-1.5,1.7-3.1,3.2-4.8,4.7c-2.6,2.5-5,5.9-8.4,7.6C220.5,180.2,219.5,178.3,218.7,176.6z M183.4,243.9
	c3.1-3.3,6.6-5.9,10.5-8.2c4.3-2.6,8.7-5.1,12.9-7.9c3.9-2.6,7.8-5.1,12-7.1c4.7-2.3,9.6-4.2,14.7-5.2c0.2,0,0.4-0.2,0.6-0.3
	c0,0.2-0.1,0.3-0.1,0.4c0,0.1-0.1,0.3-0.1,0.4c-3.4,2.3-7,4.2-10.4,6.6c-3.4,2.5-6.4,5.4-9.7,8c-3.4,2.7-7.3,4.6-11,6.9
	c-3.7,2.3-7.4,4.7-11,7.2c-3.7,2.6-6.6,6.3-10.5,8.7c-0.1-0.1-0.2-0.1-0.3-0.1c0-0.3-0.1-0.5-0.4-0.6c-1.4-0.4-2.7-0.9-4.1-1.2
	C178.8,249.1,181,246.4,183.4,243.9z M181.5,287.1c-1.6-1.7-2.1-4.4-2.4-6.6c-0.4-2.5-0.5-5.2-1.1-7.7c-0.8-3.3-2.1-6.5-3-9.8
	c-0.7-2.8-1.7-6.5-0.5-9.3c0,0,0,0,0.1,0c1.6,0.3,3.1,0.9,4.7,1.3c0.1,0,0.1,0,0.2,0c-0.1,2.9,0.8,5.5,1.5,8.3
	c0.7,3,0.5,5.8,0.4,8.8c-0.1,5.6,2.6,10.6,4.7,15.6C184.5,288.4,182.8,288.5,181.5,287.1z M225.9,249.8c-3.4,3-6.3,6.2-9.2,9.7
	c-2.9,3.6-6,6.9-9.3,10.1c-2.9,2.9-5.7,5.9-8.6,8.8c-3.2,3.1-6.6,6.1-10.5,8.2c-2.1-5.1-4.8-10-4.7-15.7c0.1-2.8,0.3-5.6-0.3-8.3
	c-0.5-2.4-1.4-4.7-1.6-7.1c3.4-2.1,6.1-5,9.1-7.6c3.4-2.9,7.4-5.2,11.2-7.6c3.7-2.3,7.6-4.1,11-6.7c3.5-2.6,6.6-5.6,10-8.3
	c3.4-2.7,7.2-4.7,10.8-7c0.1,1.7,0.6,3.3,1,5.1c1.3,6,0.4,12.2,0.2,18.3C232.1,244.6,229,247.1,225.9,249.8z M275.6,314
	c-1.6,3.4-4,6.2-5.8,9.5c-0.9,1.6-1.5,3.3-1.9,5c-0.4,2-0.6,4-1,6c-0.6,2.7-2.4,5-2.9,7.6c-2.3,0.9-4.8,1.2-7.3,1.4
	c-2.6,0.2-5.2,0.5-7.8,0.9c-5.6,0.7-11.3,0.7-16.9,0.6c-5.7-0.1-11.4-0.3-17.1-0.9c-2.8-0.3-5.6-0.6-8.4-1c-2.8-0.4-5.7-0.6-8.5-1.2
	c-5.4-1.2-10.4-3.5-15.9-3.9c2.4-2.3,4-5.2,5.7-7.9c6.1-0.4,8.7-7.6,10.9-12.4c4.1-8.9,9.3-17.4,13.3-26.4c2.1-4.7,3.5-9.7,4.3-14.8
	c0,0,0.1-0.1,0.1-0.1c9,0.1,18,1.2,26.5,4.2c4.5,1.5,8.9,3.6,12.9,6.1c4.1,2.6,7.8,5.7,11.9,8.3c4.2,2.6,9.1,4.1,12.3,8
	C278.5,306.7,277.2,310.4,275.6,314z M299,277.6c-1.2,2.8-3.1,5.3-4.9,7.7c-1.6,2.1-3.4,4.1-5.2,6c-2.7,2.8-5.5,5.8-7.2,9.3
	c-2.8-3.2-6.8-4.8-10.5-6.8c-4.4-2.4-8.2-5.8-12.4-8.5c-8.1-5.3-17.2-8.5-26.7-10.1c-4.6-0.7-9.2-1.1-13.8-1.2
	c3.5-4.6,7.3-8.8,9.8-14c1.1-2.4,2.2-4.8,3.5-7.1c1.1-2,2.5-4.2,4.5-5.5c3.9,1.9,7.4,4.4,11.2,6.3c2,1,4.2,1.6,6.3,2.3
	c2.2,0.7,4.1,1.6,6.1,2.7c8.1,4.6,16.3,8.9,25,12.1c5,1.9,9.9,4,14.7,6.3C299.1,277.3,299.1,277.4,299,277.6z M313.9,276.1
	c-0.8-1.2-2.8,0.7-2.2,1.7c0,0,0,0.1,0,0.1c-3.7,0.1-7.2-2.5-10.8-3.3c-0.1,0-0.2,0-0.3,0c-4.1-2-8.2-3.8-12.5-5.4
	c-4.4-1.7-8.8-3.4-13-5.5c-4.2-2-8.4-4.2-12.5-6.5c-2-1.1-3.9-2.2-6-3c-2-0.7-4.1-1.3-6.1-2.1c-4.8-2-9-5.3-13.7-7.5
	c0.1-0.5,0.1-1,0.2-1.4c0.2-0.3,0.3-0.6,0.3-0.9c0,0,0,0,0,0c1.6-0.1,3.2-0.5,4.7-1.1c2.2-0.7,4.3-1.3,6.6-1.3
	c2.4,0,4.8,0.2,7.2,0.2c2.5,0,4.9-0.5,7.4-0.8c10-1.2,19.9-1.1,29.9-0.7c9.8,0.5,19.6,1,29.2,2.8c4.7,0.9,9.4,2.1,14.1,3.1
	c4.6,0.9,9.3,1.3,13.9,2.3c5.3,1.1,10.3,3.5,15.5,4.9c0.6,0.2,1.2,0.3,1.8,0.5c-2.7,1-5.2,2.5-7.6,4.1c-3.3,2.3-6.4,4.9-9.7,7.2
	c-3.6,2.5-7.7,3.8-11.9,4.8c-2.1,0.5-4.2,0.9-6.2,1.5c-2,0.6-3.9,1.5-5.8,2.4c-3.8,1.9-7.9,4.3-12.3,4.3
	C314,276.2,313.9,276.2,313.9,276.1z M385.4,272.7c1.5,3.5,3.5,6.8,5.8,9.8c-3.2,2.5-7.2,3.3-11.1,4.1c-4.2,0.9-8.2,2.1-12.1,3.8
	c-8.1,3.5-15.6,8.6-22.1,14.5c-3.3,3-6.4,6.2-9.6,9.4c0-0.1-0.1-0.1-0.1-0.2c-4.9-5.2-7.3-12.3-9.9-18.8
	c-2.4-6.3-6.8-11.4-10.6-16.8c2.9-0.5,5.7-1.8,8.3-3.1c1.9-0.9,3.8-1.9,5.7-2.7c2-0.8,4.2-1.3,6.3-1.8c4.1-0.9,8.2-1.9,12-3.9
	c3.6-1.9,6.7-4.6,9.9-7.1c3.7-2.7,7.6-5.6,12.2-6.3c0.4-0.1,0.8-0.5,1.1-0.9c3.5,0.6,7,1,10.5,2c0.2,2.1,0.2,4.1,0.5,6.2
	C382.6,265,383.7,269,385.4,272.7z M385,223.3c-1.7,3.8-2.7,7.8-3.3,11.9c-0.6,4.2-1,8.6-0.7,12.8c0.1,1.4,0.2,2.7,0.4,4.1
	c-4.2-1-8.5-1.3-12.7-2.2c-4.8-1.1-9.2-3.1-13.9-4.5c-4.5-1.4-9.3-1.8-13.9-2.6c-4.9-0.8-9.6-2-14.4-3.1c-9.4-2.1-19.1-2.8-28.7-3.3
	c-10-0.5-20-0.8-29.9,0.1c-2.8,0.2-5.6,0.6-8.4,1c-2.7,0.3-5.4,0.1-8.1,0c-2.6-0.1-5,0-7.5,0.8c-2.2,0.7-4.3,1.6-6.7,1.5
	c0.2-5.6,0.9-11.3-0.1-16.8c-0.4-2.3-1.4-4.4-1.2-6.7c0,0,0-0.1,0-0.1c0-0.3,0.1-0.7,0.2-1c0.4-1.4,0.8-2.8,1-4.2
	c0.3-1.6,0.6-3.3,1.1-4.8c2.1-0.6,4.3-1.2,6.5-1.4c5.3-0.4,10.7-0.5,16-1.2c2.7-0.4,5.3-1,8-1.3c2.7-0.3,5.3-0.3,8-0.1
	c2.6,0.2,5.2,0.6,7.8,0.9c2.8,0.3,5.6,0.5,8.4,0.7c2.7,0.2,5.4,0.4,8.1,0.8c2.7,0.4,5.3,1.1,7.9,1.8c5.1,1.3,10.3,1.9,15.5,2.7
	c5.3,0.9,10.5,2.2,15.8,3.2c2.6,0.5,5.2,1.3,7.8,1.9c2.5,0.6,5,1,7.5,1.5c5.7,1.1,11,3.5,16.7,4.4c4.4,0.7,9.2,0.4,13.3,2.3
	C385.3,222.7,385.1,223,385,223.3z M405.9,184.4c0.1,3.1-1,6-1.6,9c-0.4,2-0.7,4-1.6,5.9c-0.9,1.8-2,3.4-3.2,5
	c-2.4,3.5-4.9,6.6-8,9.3c-2.2,1.9-3.7,4-4.8,6.5c-3.4-1.4-7.4-1.5-11-1.9c-0.1,0-0.2,0-0.2,0c0,0,0.1,0,0.1,0
	c2.1-1.4,4.3-2.7,5.1-5.3c0.4-1.4-1.3-0.9-1.6,0c-0.6,2-2.5,2.9-4.1,3.9c-0.5,0.3-0.6,0.9-0.5,1.2c-0.8-0.1-1.6-0.3-2.4-0.4
	c0.1-0.1,0.1-0.1,0.2-0.2c2.3-2.9,2.9-6.4,4.4-9.7c0.2-0.4,0-0.9-0.5-0.9c-0.5-0.1-1,0.5-1.2,1c-1.3,2.9-1.8,6.2-3.8,8.7
	c-0.2,0.3-0.3,0.6-0.3,0.8c-3.5-0.8-6.8-2.1-10.3-3c-2.5-0.7-5.1-1.1-7.7-1.6c-2.6-0.5-5.1-1.3-7.7-1.9c-2.6-0.6-5.3-1.1-7.9-1.6
	c-2.7-0.5-5.3-1.2-7.9-1.8c-5.2-1-10.6-1.4-15.8-2.6c-5.2-1.2-10.3-2.6-15.6-3.1c-5.5-0.5-10.9-0.9-16.3-1.5
	c-5.3-0.7-10.5-0.8-15.8,0.3c-2.1,0.4-4.3,0.8-6.5,1c0-0.1,0-0.2,0-0.3c-0.7-2.9-2.7-5.5-3-8.5c-0.4-3.6,0.9-7.3,1.5-10.8
	c0.2-1.3-1.6-0.4-1.8,0.5c-0.6,3.6-1.8,7.2-1.5,10.8c0.2,3.1,2.1,5.6,2.9,8.5c-3.2,0.3-6.5,0.5-9.7,0.6c-2.8,0.1-5.5,0.6-8.2,1.3
	c-2.7,0.7-5.4,1.5-8.2,1.3c-0.2,0-0.4,0-0.5,0.1c-1.9-2.7-2.7-6.4-3.9-9.5c-1.7-4.2-3.6-8.8-3.5-13.4c0,0,0,0,0,0
	c2-1.2,3.7-2.9,5.4-4.7c2.5-2.7,5.4-5.1,7.8-7.9c2.6-2.9,4.8-6.2,7-9.4c2.2-3.1,4.5-6,6.8-9c2-2.6,3.9-5.4,4.7-8.6
	c1.5,0.3,3.2,0.5,4.7,0.9c0.2,0.1,0.5,0,0.7-0.1c0.2,0.1,0.4,0.2,0.7,0.1c0.4-0.1,0.8-0.5,1.1-0.9c0.2,0.1,0.5,0.1,0.7,0
	c2.5-1.5,5.5-2.2,8.4-2.6c3.2-0.5,6.4-0.6,9.7-0.5c3.7,0.1,7.3-0.1,11-0.2c3.5-0.1,7,0,10.5,0.5c1.6,0.2,3.3,0.4,4.9,0.6
	c1.9,0.1,3.8,0,5.7-0.3c3.5-0.4,6.9-0.8,10.5-0.9c3.1-0.1,6.2,0.1,9.3,0.3c0.1,0.1,0.2,0.1,0.3,0c0.6,0,1.1,0.1,1.7,0.1
	c3.6,0.2,7.2,0.4,10.8,0.6c4,0.3,7.8,1.1,11.7,2.1c1.7,0.4,3.4,0.9,5.2,1.1c1.3,0.2,2.7,0.3,4,0.6c4.3,4.8,5.9,11.3,9.3,16.7
	c1.8,2.8,4.1,5.1,7,6.8c3.4,1.9,7.2,3,10.6,5c2.7,1.6,5.5,3.5,8.6,4.2c-0.1,0.3,0,0.5,0.3,0.7C405.1,178.6,405.8,181.5,405.9,184.4z
	 M443.1,126.9c-0.9,5.2-3.5,9.8-6.4,14.2c-2.9,4.2-6.3,7.7-10,11.2c-3.7,3.6-7,7.7-10.6,11.5c-3.6,3.8-8.1,6.6-11.6,10.4
	c-3.2-0.3-6.2-2.3-8.9-4c-3.2-1.9-6.7-3.1-10-4.8c-3-1.5-5.5-3.8-7.3-6.6c-1.7-2.7-3-5.6-4.4-8.5c-0.9-1.8-1.8-3.7-2.9-5.4
	c0.6-0.1,1.1-0.7,1.2-1.2c0.8-2.2,2.1-4.2,3.5-6c1.2-1.7,2.5-3.5,4.2-4.8c3.1-2.5,6.8-4,9-7.4c0.1-0.2,0.2-0.4,0.2-0.6
	c0.3,0,0.6-0.1,0.8-0.3c1.5-1.4,3.1-2.8,4.5-4.2c1.3-1.3,2.3-2.8,3.5-4.2c2.1-2.3,4.6-4.7,5.5-7.8c3.5,3,9.3,5.2,13.3,2.3
	c0.5-0.4,0.7-1,0.6-1.4c0.1,0.1,0.2,0.1,0.3,0.2c2.2,1.2,4.6,2,7.1,2.4c1.2,0.2,2.3,0.3,3.5,0.3c1.4,0,2.8-0.3,4.3-0.3
	c2.6,0.1,4.4,2.1,6.8,2.5c1.9,0.3,3.8-0.1,5.6-0.9C444,118,443.9,122.5,443.1,126.9z M450.5,107.8c-1.1,1-2.3,2-3.6,2.8
	c-0.4,0-0.8,0.3-1.1,0.6c-0.6,0.3-1.2,0.5-1.8,0.7c-1.1,0.3-2.4,0.5-3.6,0.3c-1.1-0.2-2.1-0.8-3-1.3c-2.2-1.2-4.1-1.3-6.6-1.1
	c-2.5,0.2-4.9,0-7.3-0.7c-4.2-1.2-7.9-3.8-10.7-7.2c-1.6-1.9-2.9-4.1-4-6.4c-1.4-2.9-2.5-6.2-2.3-9.5c0.2-2.7,1.4-5.2,2.7-7.5
	c1.2-2,2.6-4.3,4.7-5.3c2.4-0.3,4.6-1.5,7-1.8c2.9-0.4,5.9-0.2,8.8-0.2c5.4,0,10.9-0.3,16.1,1.6c2.5,0.9,4.8,2.4,6.9,4.1
	c1.7,1.3,3.3,2.7,4.4,4.6c2.6,4.2,2.3,9.4,1.1,14C456.9,100.4,454.2,104.4,450.5,107.8z M454.9,105.8c1.3-1.6,2.4-3.2,3.2-4.9
	c1.3-2.7,2.4-5.7,2.9-8.7c5.2,4.5,12.2,5.6,18.7,7.4c0.2,0.1,0.5,0,0.7-0.1c0,0,0,0,0.1,0c0,0,0,0,0,0.1c-0.8,3.2-3,5.9-4,9
	c-1,2.8-1.3,5.7-2.7,8.3C469.3,110.7,461.3,109.1,454.9,105.8z M490.4,188.9c-0.7,3.5-1,7-0.2,10.5c0.7,2.8,1.9,5.7,1.7,8.6
	c-6.5-1.2-12.3-5.3-17.5-9.1c-5.6-4.1-11.3-8.8-14.4-15.2c-3.1-6.5-0.2-14.3,1.1-20.9c0.7-3.7,1.4-7.5,2.3-11.2
	c0.5-1.9,1.1-3.8,1.8-5.6c0.7-1.8,1.6-3.5,2.2-5.4c1.2-3.9,1.7-8,3.7-11.6c1.6-3,3.5-6.1,3.8-9.6c0.2-0.2,0.4-0.4,0.5-0.6
	c2.1-3.2,2.5-6.7,3.7-10.2c1.2-3.4,3.4-6.3,4.3-9.8c0-0.1,0-0.2,0-0.3c0.8-0.6,1.3-1.8,1-2.4c2.9-4,5.7-8.2,7.9-12.7
	c2.7-5.5,4.2-11.4,7.2-16.7c1.5-2.6,3.2-5.1,5-7.5c1.4-1.9,2.8-3.9,4.6-5.5c4.4-4,10-4.4,15.6-3.9c3.2,0.3,6.1,0.8,9,2.3
	c2.7,1.4,5.1,3.2,7.8,4.5c-0.2,0.6-0.1,1.7,0.8,1.6c0.3,0,0.6,0,0.9,0c-0.3,0.3-0.6,0.7-0.8,0.9c-2.4,2.9-4.3,6.1-6.1,9.4
	c-5.1,9.3-9.2,19-13.2,28.8c-2.4,5.9-4.6,11.9-7.5,17.6c-2.7,5.5-5.8,10.9-8.6,16.3c-2.9,5.7-5.3,11.4-7.2,17.5
	c-2,6.2-3.5,12.5-4.8,18.9c-0.8,3.6-1.5,7.1-2.2,10.7C492.1,181.9,491.2,185.4,490.4,188.9z M520.9,215.9c-0.1-0.2-0.4-0.3-0.7-0.3
	c-5.2,0.5-10.1-0.9-14.7-3.3c-3.2-1.7-6.8-4.1-10.5-4.6c0.3-2.2-0.1-4.4-0.7-6.6c-0.8-3-1.6-5.9-1.4-9c0.3-3.1,1.1-6.2,1.8-9.2
	c0.7-3.1,1.3-6.2,2-9.4c2.5-12.2,5.1-24.6,10.2-36c2.5-5.5,5.4-10.7,8.2-16c2.9-5.4,5.5-10.9,7.8-16.6c4.4-10.9,8.7-21.9,14.1-32.3
	c1.6-3.2,3.3-6.3,5.3-9.3c0.9-1.3,2.2-3,3.1-3.9c0.7-0.6,0.8-0.7,1.5-1c-0.1,0.1,0.1,0,0.3,0c0.1,0,0.2,0,0.5,0.2
	c0.5,0.2,1.1,0,1.6-0.4c1.7,0,3.3,0,4.8,0.7c2.1,1,3.4,3.2,5.1,4.6c2,1.6,4.2,2.9,6.1,4.5c2,1.7,3.9,3.4,6,5.1c0,0.3,0,0.5,0.1,0.7
	c4.7,9.7-1,20.6-5.3,29.3c-2.6,5.2-4.6,10.5-6.2,16c-1.6,5.5-2.9,11.1-4.6,16.5c-3.6,11.5-9.7,21.8-14.4,32.9
	c-2.4,5.8-4.4,11.7-6.7,17.5c-2.1,5.5-4.2,10.9-6.4,16.4c-1.2,2.9-2.4,5.8-3.8,8.6c-0.8,1.6-1.7,3.2-2.8,4.4
	C521.3,215.5,521.1,215.7,520.9,215.9z M572.9,176.6c0,0.1,0,0.3,0,0.4c-0.4,0.8-0.5,1.6,0.1,1.9c-0.1,0.3-0.1,0.6,0,0.8
	c-0.3,1.1-0.3,2.2-0.3,3.3c0,1.6-0.3,2.9-0.9,4.4c-1.2,2.8-2.9,5.3-4.4,7.9c-1.5,2.5-2.6,5.2-3.9,7.8c-1.4,2.7-3,5.3-4.6,7.8
	c-1.6,2.5-3.3,4.9-5.1,7.1c-1.4,1.8-2.9,3.6-5.1,4.5c-4.1,1.7-8.9,0.4-12.9-1c-4.1-1.4-8.1-3.4-12.2-4.7c0.5-0.6,0.9-1.2,1.2-1.7
	c2-3,3.5-6.3,4.8-9.5c4.2-10,8-20.2,11.7-30.3c2.2-5.9,4.7-11.6,7.5-17.3c2.8-5.7,5.7-11.5,7.9-17.4c4.2-11.3,5.7-23.5,10.9-34.5
	c4.6-9.7,11.4-21.1,7.9-32c4.3-2.9,9.7,0.6,13.7,2.8c4,2.2,7.6,5.1,9.1,9.6c2,5.9,0.2,12.3-1.1,18.2c-1.5,6.7-2.7,13.4-4.3,20.1
	c-0.5,1.9-0.8,3.9-1.2,5.8c-0.3,1.3-0.6,2.7-1.5,3.8c-0.7,0.9-1.5,1.7-2.1,2.7c-0.4,0.7-0.7,1.4-0.8,2.2c-0.5,0.7-0.7,1.5-0.3,2
	c0,0.1-0.1,0.1-0.1,0.2c-1.4,3-2.7,6.1-3.8,9.2c-1.1,3-1.9,6.2-3.1,9.1C577.7,165.3,574.3,170.6,572.9,176.6z M586.8,164.3
	c-1,3.4-1.8,6.9-1.7,10.4c0,0.4,0,0.9,0.1,1.4c-3,0.1-6,0.6-9,0.7c0.2-0.6,0.2-1.1-0.2-1.3c1.4-5.8,4.8-10.8,6.9-16.3
	c1.1-2.9,1.9-5.9,2.9-8.8c1.1-2.9,2.3-5.8,3.5-8.6c1.8,0.6,3.5,1.6,5.3,2c-2.8,3.4-3.8,8.2-5,12.2
	C588.9,158.8,587.7,161.5,586.8,164.3z M596.7,157.4c-1.2,2.8-2.5,5.7-3.5,8.6c-0.9,2.4-1.3,5.1-2.4,7.5c-0.3,0.6-0.7,1.3-1,1.7
	c-0.1,0.1-0.2,0.3-0.3,0.4c0,0,0,0,0,0c0,0,0,0-0.1,0.1c-0.1,0.1-0.2,0.1-0.3,0.2c0.2-0.1,0.1,0.1-0.1,0c0,0-0.2-0.2-0.2-0.3
	c-0.4-0.8-0.5-1.7-0.5-2.5c-0.1-5.7,2.4-10.7,4-15.9c0.8-2.3,1.4-4.7,2.2-7.1c0.6-1.6,1.3-3.8,2.5-5
	C600.2,148.5,598.4,153.4,596.7,157.4z"/>
</svg>
