<?xml version="1.0" encoding="UTF-8" standalone="no"?>
<!-- Generator: Adobe Illustrator 19.2.1, SVG Export Plug-In . SVG Version: 6.00 Build 0)  -->
<svg id="Layer_2" style="enable-background:new 0 0 612 366.6" xmlns="http://www.w3.org/2000/svg" xml:space="preserve" viewBox="0 0 612 366.6" version="1.1" y="0px" x="0px" xmlns:xlink="http://www.w3.org/1999/xlink">
<style type="text/css">
	.st0{fill:#FFFFFF;}
</style>
<path class="st0" d="m251.1 125.9c-0.2-0.8-0.5-1.5-1.3-1.7s-1.6 0.1-2.3 0.6c-0.5 0.4-0.3 1.2 0.4 0.7 1-0.7 2-0.3 2.2 0.9 0.1 0.6 1.1-0.1 1-0.5z"/>
<path class="st0" d="m318 123.1c-1.3 0-2.7 2.7-1 2.7 1.3 0 2.7-2.7 1-2.7z"/>
<path class="st0" d="m327.6 116.8c-1.6 0.6-3.2 0.1-4.9 0-1.8-0.1-3.5 0.4-5.2 0.6-3.5 0.5-7.1 0.2-10.7 0.2-0.7 0-1.4 1.5-0.5 1.5 3.7 0 7.4 0.3 11.1-0.3 1.7-0.3 3.4-0.6 5.2-0.5 1.7 0.1 3.2 0.5 4.8-0.1 0.6-0.2 1.1-1.7 0.2-1.4z"/>
<path class="st0" d="m323.5 114.2c-3.7 2.3-8.6 0.3-12.7 0.6-0.7 0-1.4 1.5-0.5 1.5 4.4-0.3 9.4 1.8 13.4-0.8 0.5-0.5 0.7-1.9-0.2-1.3z"/>
<path class="st0" d="m320.9 113.5c-2.7-1-5.8-1-8.7-0.9-0.4 0-0.8 0.9-0.3 0.8 2.8-0.1 5.8-0.1 8.5 0.8 0.3 0.3 0.9-0.5 0.5-0.7z"/>
<path class="st0" d="m318.3 111.7c-1.2 0-1.7-1.4-2.7-1.9-0.2-0.1-0.5 0.3-0.2 0.4 1.1 0.5 1.5 1.9 2.8 1.9 0.1 0 0.3-0.4 0.1-0.4z"/>
<path class="st0" d="m318.5 107.2c-0.6 0.4-1.2 0.6-1.8 0.8-0.2 0.1-0.3 0.5-0.1 0.4 0.7-0.3 1.3-0.5 1.9-0.9 0.3 0 0.3-0.4 0-0.3z"/>
<path class="st0" d="m354.7 121.2c-3.7 1.4-7.4 1.8-11.3 1.5-0.8-0.1-1.7 1.6-0.6 1.7 4 0.3 7.9-0.2 11.7-1.6 0.4-0.2 0.9-0.6 0.9-1s-0.3-0.8-0.7-0.6z"/>
<path class="st0" d="m352.1 125.1c-1.2 0-2.4-0.1-3.5-0.3-0.3-0.1-0.7 0.5-0.4 0.6 1.2 0.3 2.4 0.3 3.7 0.4 0.3 0 0.6-0.7 0.2-0.7z"/>
<path class="st0" d="m356.9 127.9c-2.2 0.1-4.4-0.5-6.7-0.5-2.2-0.1-4.4 0-6.5-0.8-0.3-0.1-0.7 0.5-0.4 0.6 2 0.8 4.1 0.8 6.2 0.8 2.4 0 4.7 0.6 7.1 0.5 0.4 0 0.7-0.6 0.3-0.6z"/>
<path class="st0" d="m282 122.8c-3.7 1.4-7.4 1.8-11.3 1.5-0.8-0.1-1.7 1.6-0.6 1.7 4 0.3 7.9-0.2 11.7-1.6 0.4-0.2 0.9-0.6 0.9-1s-0.3-0.8-0.7-0.6z"/>
<path class="st0" d="m279.4 126.7c-1.2 0-2.4-0.1-3.5-0.3-0.3-0.1-0.7 0.5-0.4 0.6 1.2 0.3 2.4 0.3 3.7 0.4 0.3-0.1 0.6-0.7 0.2-0.7z"/>
<path class="st0" d="m284.2 129.4c-2.2 0.1-4.4-0.5-6.7-0.5-2.2-0.1-4.4 0-6.5-0.8-0.3-0.1-0.7 0.5-0.4 0.6 2 0.8 4.1 0.8 6.2 0.8 2.4 0 4.7 0.6 7.1 0.5 0.4 0.1 0.7-0.6 0.3-0.6z"/>
<path class="st0" d="m243.3 222.1c-0.1-0.2-0.3-0.3-0.5-0.2 0.2-1.1-1.4-0.3-1.6 0.5-0.3 1.8-0.9 3.7-0.6 5.6 0.3 1.7 1.9 2.8 3.5 2 2.9-1.5 0.2-6.1-0.8-7.9zm-1.2 3.8c0-0.6 0.1-1.2 0.2-1.8 0.3 0.5 0.5 1.1 0.8 1.6 0.2 0.6 0.5 1.2 0.6 1.8 0 0.2 0 0.5 0.1 0.8-1.5 0-1.8-0.9-1.7-2.4z"/>
<path class="st0" d="m255.3 219.6c-0.2-0.2-0.5-0.2-0.7 0-0.3-1-1.8 0.1-1.6 0.9 0.4 1.7-0.8 7.2 2.6 6.6 1.4-0.2 2.1-1.8 2.3-3 0.1-2.1-1.3-3.3-2.6-4.5zm0.7 5.7c-0.4 0.2-0.9-0.2-1-0.6-0.5-0.9-0.4-2.1-0.3-3.2 0.8 0.7 1.5 1.4 1.6 2.5 0 0.3 0 1.2-0.3 1.3z"/>
<path class="st0" d="m272.4 221.7c-0.6-0.7-1.6-1.1-2.4-1.6-0.1 0-0.1-0.1-0.2-0.1 0.1-0.2 0.2-0.4 0.3-0.7 0.4-1.2-1.2-0.8-1.4 0-0.7 2.1-5.3 6.4-1.1 7.8 2.1 0.7 4.4-0.9 5-2.9 0.2-0.7 0.3-1.7-0.2-2.5zm-1.2 2.3c-0.1 1-1.1 1.8-2.2 1.7-0.6-0.1-1.3-0.4-1.5-1-0.3-0.9 0.7-2.1 1.1-2.8 0.1-0.1 0.1-0.2 0.2-0.3 0.9 0.7 2.6 1.1 2.4 2.4z"/>
<path class="st0" d="m228.3 232.3c-1-1-2.4-0.9-3.6-0.5v-0.1c0-0.5-0.6-0.4-0.9-0.3-0.4 0.2-0.7 0.7-0.7 1.1 0 1.3-0.6 4.3 1.4 4.4s3.2-2.5 3.8-4c0.2-0.2 0.2-0.5 0-0.6zm-3.3 2.9c-0.4-0.3-0.4-1.2-0.4-1.6v-0.3c0.7-0.2 1.5-0.2 2.1 0.2-0.3 0.8-1 2.2-1.7 1.7z"/>
<path class="st0" d="m212.9 242.2c-0.2-0.1-0.4 0-0.6 0.1-0.2-0.1-0.6-0.1-1 0.3-0.9 1.1-4.1 7.1-1 7.3 1.8 0.1 3.3-1.6 3.9-3.1 0.6-1.6 0.6-4-1.3-4.6zm-0.1 4.6c-0.2 0.5-1.3 2-2 1.4-0.5-0.5 0.1-1.8 0.2-2.3 0.2-0.7 0.5-1.4 1-2 1.1 0.4 1.1 1.9 0.8 2.9z"/>
<path class="st0" d="m196.7 255.2c-2.2-0.6-3.5 1.6-3.9 3.4-0.1 0.4 0.3 0.6 0.7 0.6h0.1c-0.3 1.5-0.3 3.1 0.2 4.2 0.9 2.2 3.7 2.6 5.3 1 2.6-2.5 1.2-8.2-2.4-9.2zm1.2 8.4c-1 0.5-2.2-0.3-2.7-1.1-0.8-1.4-0.3-3.9 0.2-5.3 0.1-0.2 0.1-0.3 0.1-0.4 0.5 0 1.1 0.4 1.4 0.7 1.1 1 1.9 2.5 1.9 3.9 0.1 0.8-0.1 1.8-0.9 2.2z"/>
<path class="st0" d="m403.2 322.1c-2.9-0.5-6.2-1.5-8.7-3.3 1.7-1.4 4.1-2.2 5.9-3.5 0.4-0.3 1.2-1.5 0.5-2-4.5-2.8-10-1.7-15-3 2.2-2.4 4.9-4.5 6.4-7.5 0.3-0.5 0.5-1.2-0.2-1.5-2.6-1.1-5.4-0.1-8-0.6 2.3-2.6 5.5-4.5 8.1-6.7 0.4-0.4 1-1.2 0.7-1.8s-1.1-0.3-1.5 0c-3.5 2.9-7.4 5.4-10.1 9.1-0.3 0.4-0.4 1.3 0.2 1.5 2.7 1 5.5-0.1 8.2 0.6-1.8 2.6-4.6 4.5-6.5 7.1-0.3 0.4-0.9 1.5 0 1.8 4.5 1.5 9.8 0.5 14.2 2.3-2 1.1-4 2-5.4 3.9-0.3 0.4-0.8 1.2-0.2 1.7 2.7 2.3 6.6 3.6 10 4.2 1.1 0.3 2.7-2.1 1.4-2.3z"/>
<path class="st0" d="m232.3 289.4c-4.2-3-7.9-6.8-11.1-11-0.8-1.1-2.9 0.8-2.2 1.8 2.8 3.7 6 7.2 9.7 10.1-0.4 0-0.7-0.1-0.9-0.1-1.3-0.1-2.5-0.4-3.8-0.6-3.2-0.4-6.6-0.1-9.5 1.2-0.5 0.2-1.2 1.1-1 1.7 1 4.7 7 5.8 8.9 9.8-1.2 0.4-2.5 0.5-3.8 0.5-0.9 0-2 1.3-1.6 2.1 0.5 1.1 1.7 1.6 2.6 2.2l0.6 0.6c-2.3 0.3-4.5-0.2-6.8 0.7-1.8 0.7-3.1 2.5-1.9 4.3 1.3 1.8 3.4 3.1 5 4.5 0.9 0.8 2.9-1.3 1.9-2.2-0.9-0.8-1.9-1.5-2.8-2.3-0.7-0.6-1.6-1.2-2.1-2.1 0.3-0.1 0.6-0.2 0.7-0.2 1.1-0.2 2.1-0.2 3.2-0.2 2 0 4.5-0.1 5.3-2.3 0.6-1.6-0.4-2.4-1.5-3.1 1-0.2 1.9-0.6 2.9-1 0.5-0.3 1.2-1.1 1-1.7-0.6-2.5-2.6-4.3-4.6-5.8-1.4-1.1-3.4-2.3-4.3-3.9 2.8-0.8 5.8-0.5 8.6-0.1 2.5 0.4 5.3 0.8 7.2-1.3 0.4-0.2 0.8-1.2 0.3-1.6z"/>
<path class="st0" d="m271.1 196.4c-0.6-2-1-4-1.5-6-0.2-1.1-2 0.1-1.8 0.9 0.5 2.1 1 4.2 1.6 6.3 0.3 1 2-0.4 1.7-1.2z"/>
<path class="st0" d="m248.6 197.4c-1.2-2.3-1.1-5-3.2-6.8-0.7-0.6-2.2 1-1.4 1.6 1.9 1.6 1.8 4.4 3 6.5 0.4 0.9 2-0.5 1.6-1.3z"/>
<path class="st0" d="m308.2 106.1c-2.4 1.3-5.3 0.6-7.7-0.2-2.3-0.8-4.5-1.8-6.7-2.8-6.2-2.8-12.1-6.3-18.8-8-0.5-0.1-1.1 0.9-0.6 1 2 0.5 3.9 1.2 5.7 1.9-0.1 0-0.3 0.1-0.4 0.3-2.1 2.8-2.5 5.8-2.3 9.3 0.1 1.4 0 2.9 0.4 4.3 0.4 1.6 1.8 2 3.1 2.7 1.7 0.9 3.4 1.7 5.3 2.3 1.7 0.5 3.5 0.8 5.2 1.1 2.5 0.4 5.7 1.1 7.9-0.6 1.2-0.9 1.4-2.3 1.4-3.7 0-1.1 0-2 0.4-3 0.3-1 0.7-1.8 0.7-2.9v-0.1c2.2 0.5 4.3 0.5 6.3-0.6 0.7-0.3 0.8-1.4 0.1-1zm-7.1 2.1c0 1.2-0.6 2.2-0.9 3.3-0.2 0.6-0.2 1.3-0.2 2 0 1 0.1 2.3-0.7 3.1-0.6 0.5-1.5 0.7-2.3 0.8-1.6 0.1-3.2-0.1-4.7-0.4-1.8-0.3-3.5-0.6-5.2-1.1-1.9-0.6-3.6-1.4-5.3-2.3-0.9-0.4-2-0.7-2.5-1.6-0.4-0.6-0.5-1.5-0.5-2.2-0.4-3.8-0.7-7.7 1.7-10.9 0.2-0.3 0.2-0.5 0.1-0.7 4.6 1.8 9 4.2 13.5 6.3 2.2 1 4.9 2.4 7.7 3.1-0.4 0-0.7 0.3-0.7 0.6z"/>
<path class="st0" d="m361.2 97.5c-2.7 1.8-5.9 2.7-8.9 4-1.6 0.7-3.2 1.6-4.8 2.2-1.7 0.7-3.5 1.2-5.2 1.9-1.9 0.7-3.8 1.5-5.7 2.1-0.9 0.3-2.5 0.9-3.8 0.9-0.1-0.1-0.3-0.1-0.5 0-0.6 0-1.2-0.2-1.6-0.5s-1.2 0.6-0.8 0.9c0.6 0.5 1.3 0.6 2.2 0.6 1.3 1.4 2.5 2.7 3 4.6 0.4 1.3 0.7 2.5 1.8 3.4 3.2 2.4 7.4 1.6 10.9 0.7 1.7-0.5 3.4-0.9 5.1-1.3 1.4-0.3 2.7-0.6 4-1.2 2.6-1.2 3.7-3.5 3.8-6.3 0.1-3.1-0.3-7-2-9.6 0.9-0.4 1.8-0.9 2.7-1.5 0.4-0.3 0.5-1.3-0.2-0.9zm-3.6 2.9c1.6 2.2 2 5.3 2.1 7.9 0.2 2.9-0.3 5.5-3.2 6.7-2.6 1.1-5.5 1.5-8.2 2.2-3.4 0.9-7.9 1.9-10.9-0.6-1.2-1-1.2-2.6-1.7-3.9-0.5-1.2-1.3-2.2-2.2-3.2 0.7-0.1 1.3-0.3 1.8-0.4 2.1-0.6 4.1-1.4 6.2-2.2 1.8-0.7 3.7-1.3 5.5-2 1.6-0.6 3.2-1.4 4.8-2.2 1.8-0.8 3.8-1.5 5.8-2.3-0.1 0 0 0 0 0z"/>
<path class="st0" d="m294.2 100.6c-0.8-0.5-1.7-0.8-2.5-1.3-1-0.6-1.2-1.4-1.7-2.5-0.8-1.5-2.6-2.3-4-3.3-0.4-0.3-1.2 0.6-0.8 0.9 1.6 1.1 3.4 1.9 4.1 3.8 0.8 1.9 2.5 2.3 4.1 3.3 0.5 0.3 1.3-0.6 0.8-0.9z"/>
<path class="st0" d="m338.8 103.8c0.7-0.6 1.3-1.4 2.1-1.9 1-0.8 1.8-0.7 2.9-0.8 1.7-0.2 3.1-1.7 4.4-2.7 0.4-0.3-0.2-1.3-0.6-1-1.6 1.1-2.9 2.5-4.9 2.6s-3 1.6-4.5 2.8c-0.4 0.3 0.2 1.3 0.6 1z"/>
<path class="st0" d="m598.5 140.7c-1.7 0.1-3.2-0.5-4.7-1.2-1.1-0.5-2.3-0.9-3.4-1.2 0.4-1.7 2.2-2.9 3-4.4 1.6-3 1.8-6.6 2.5-9.9 0.8-3.6 1.7-7.2 2.5-10.8 0.7-3.5 1.4-7.1 2.2-10.6 1.4-6.2 2.8-12.7 0.7-18.9-1.6-4.7-5.5-7.8-9.7-10.2-2.7-1.5-5.5-3.2-8.6-3.9-3-0.6-5.8-0.1-8.2 1.6 0.1-0.4 0-0.7-0.3-1-2.2-1.8-4.3-3.7-6.4-5.5-1-0.9-2.1-1.7-3.2-2.5s-2.3-1.5-3.3-2.4c-1.7-1.6-3.1-3.5-5.3-4.5-2.4-1.1-5.2-0.7-7.7-0.7-0.3 0-0.6 0.1-0.8 0.3-0.3 0.1-0.6 0.2-0.8 0.3-0.1-0.1-0.2-0.1-0.3-0.2-0.4-0.2-0.9-0.3-1.3-0.4 0.1-0.5-0.1-0.9-0.6-1.1-2.8-1.3-5.4-3.2-8.1-4.7-2.6-1.4-5.3-2.1-8.2-2.5-5.8-0.7-12-0.7-17.1 2.6-4.8 3-8 8-11.2 12.6-1.8 2.6-3.3 5.4-4.7 8.2-1.4 2.9-2.3 5.9-3.5 8.9-2.6 6.7-6.6 12.6-10.9 18.3-0.1 0.1-0.1 0.2-0.2 0.3-6.5-1.8-13.5-2.9-18.6-7.7-0.2-0.2-0.4-0.2-0.6-0.1 0.1-1.4 0-2.8-0.2-4.2-0.7-5.1-3.9-8.6-8-11.4-2.7-1.9-5.5-3.4-8.7-4.1s-6.5-0.9-9.7-0.9c-3.5 0-7.1-0.1-10.6 0.1-1.8 0.1-3.6 0.3-5.3 0.8s-3.3 1.2-5.1 1.2c-0.6 0-1.2 0.6-1.4 1.2-0.6 0.5-1.1 1-1.6 1.6l-0.1-0.1c-5-2.6-10.3-4.3-15.7-5.7-1.8-3.3-3.5-6.7-4.9-10.2 2.6 0.4 5.2 0.4 7.8-0.2 0.6-0.1 1.4-1 1.2-1.7-1.1-4.3-4.5-7.4-7.4-10.5-1.2-1.3-2.5-2.6-3.8-4-0.6-0.6-1.1-1.3-1.3-2.2-0.2-1 0-2.2 0.1-3.3 0.2-1.7 0.4-3.5 0.6-5.2 0.2-1.5 1-4.4-0.2-5.6-1.4-1.4-4.4 0.2-5.8 0.8-3.8 1.6-7.3 3.7-10.9 5.7s-7.4 3.4-11.6 2.8c-2-0.3-4-0.8-5.9-1.6-1-0.4-2.1-1.1-2.6-2.1-1-1.9 0.2-4.3 0.8-6.1 0.9-2.8 1.4-5.5 0.5-8.4-0.2-0.6-1.1-0.3-1.4 0-1.6 1.5-3.3 3.1-5 4.5-1.5 1.3-3.2 2.6-5 3.3-4.7 2-3.1-5.9-2.6-8.1 0.2-1.2-1.3-0.9-1.7-0.3-2 2.7-3.8 5.6-6 8.2-2.1 2.5-4.8 5-8.2 5.4-6.2 0.7-9.8-4.9-13.7-8.6-2.3-2.2-5-3.8-8.2-4.2-0.8-0.1-1.6 1-1.5 1.7 0.4 2.6 1.2 5.5 0.8 8.1 0 0.3-0.1 0.7-0.2 0.8-0.1 0.2 0 0.1-0.2 0.2-0.5 0.2-1.5 0.2-2.2 0.2-2.9-0.3-5.7-1.5-8.6-2-3-0.6-6.1-1-9-1.9-2.6-0.9-5-2.3-6.2-4.7-0.2-0.6-0.4-1.3-0.6-1.9-0.5-1.1-2.3 0.5-2.1 1.4 0.1 0.7 0.4 1.3 0.6 1.9 1.3 5.2-1.1 11.3-6.2 13.6-7.2 3.2-14.6-2.6-21.3-4.5-0.8-0.2-1.7 0.7-1.7 1.4-0.1 1.9 0.3 3.7 0.6 5.5 0.2 1.6 0.9 4.2 0.1 5.7-0.7 1.4-3.5 1.2-4.8 1.3-2 0-4.1-0.2-6 0.5-0.6 0.2-1.7 1.2-1.2 1.9 1.3 1.7 2.9 2.8 4.5 4.2 1.6 1.3 2.8 3.2 2.3 5.3-0.4 1.7-2.1 2.8-3.1 4.1-1.4 1.7-2.2 3.6-2.1 5.9v0.2c0 0.1-0.1 0.3-0.1 0.4v0.4c-1.8-0.1-3.7-0.2-5.5-0.2-3.4-0.1-6.8 0.2-10 1.5-0.8 0.3-1.6 0.9-1.9 1.8-0.6-2.2-1.6-4.1-3.6-5.4-1.8-1.2-4-1.4-6.1-1.7-3.3-0.5-6.4-1.8-9.7-2.3s-6.7 0.5-9.8 1.3c-1.5 0.4-3 0.9-4.4 1.6-1.5 0.8-3 1.9-4.8 2.2-0.3 0-0.5 0.1-0.8 0.3-0.1 0-0.3 0.1-0.4 0.1-4.4 2.7-7.9 7-10.4 11.5-0.3 0.5-0.6 1-0.8 1.5-0.2 0-0.3 0-0.5 0.1-4.3 1.3-8.7 1.8-13 3.1-1.1-2.4-2.2-4.8-3.2-7.3-1.1-2.8-1.9-5.6-2.9-8.4-1.8-5.5-4.8-10.7-8-15.5-1.6-2.3-3.1-4.6-4.3-7.2-1.2-2.5-2.5-4.8-4.2-6.9-1.7-2.2-3.5-4.9-5.7-6.6-1.8-1.4-4.3-0.8-6.4-0.9-1.7-0.1-3.4-0.3-5.1-0.1-1.6 0.2-3.2 0.6-4.8 1-3.4 0.9-6.7 1.9-10.1 2.5-0.5 0.1-1 0.5-1.3 1-2.4-0.8-5.4-0.4-7.7 0.2-6 1.5-11.4 4.3-17.1 6.5-3.4 1.3-6.9 2.3-10.5 2.7-3.6 0.3-7.2 0.3-10.7 1-0.9 0.2-1.8 0.4-2.7 0.7-0.3 0-0.6 0.1-0.9 0.2-7.5 3.8-15.5 7.2-21 13.8-6.1 7.2-8.5 17-8.2 26.3 0.2 5.1 1.1 10.4 3.8 14.8 0.1 0.1 0.1 0.2 0.2 0.2 1 5.7 4.7 10.7 5.4 16.5 0.1 0.8 0.2 1.5 0.3 2.2-3 0.9-6 1.9-8.9 3.2-1.3-0.8-2.8-1.2-4.4-0.9s-2.8 3.6-0.5 3.2h0.6c-3.1 4.6-2.4 11.1-1 16.2 0.8 3.2 2 6.3 3.5 9.2 1.2 2.3 2.6 4.6 4.5 6.4 1.3 1.3 3.1 2.1 4.9 1.1 1.2-0.7 1.9-1.8 2.4-3l1.8-1.5c1.4-1.2 2.9-2.4 4.6-3.1 1.6 4.6 3 9.2 4.2 13.9 1.3 4.8 2.5 9.8 4.5 14.3 0.9 2 2.3 3.9 3.7 5.6 3.8 4.7 8.3 8.9 13.2 12.5 4.7 3.5 10.2 6.8 16.1 7.7 2.9 0.5 5.8 0.3 8.4-0.9s4.7-3.4 6.1-6c1.8 0.9 3.7 1.5 5.9 1.7 3.2 0.3 6.5-0.6 9.5-1.5 4-1.2 7.9-2.8 12-4.1 3.9-1.2 7.7-2.2 11.4-4 3.3-1.6 6.4-3.8 9.2-6.2 1.5-1.3 2.9-2.7 4.4-4 0.3 0 0.6-0.1 0.8-0.2 2.9-1.4 6.1-1.2 9.1-2.2 2.8-1 4.8-2.9 7-4.9 2.1-2 4.7-3.1 6.7-5.1 1.8-1.8 3.1-3.8 3.7-6.3 0.7-2.9 0.9-6 1-9 0.1-3.1-0.2-6.2-1-9.3-1.8-6.6-3.5-13.1-5.4-19.7-1-3.5-1.8-7.1-2.9-10.6-0.5-1.7-1.1-3.3-1.6-5-0.1-0.3-0.2-0.7-0.3-1 0.2-0.4 0.2-0.9 0.1-1.2-0.2-0.4-0.4-0.9-0.6-1.3 2.6-0.8 5.2-1.3 7.8-2.1 0.5-0.2 1-0.5 1.4-1 0.8 1.1 1.7 2.2 2.6 3.2 1.6 1.8 3.4 3.1 5.8 3.5 0.1 0 0.3 0 0.4 0.1v0.1c1.5 5.8 5.4 10.6 8.2 15.8 3.2 5.9 6 12 9.6 17.7 3.4 5.5 7.4 10.6 11.2 15.8 3.9 5.2 7.2 10.7 10 16.6 1 2.2 1.7 4.5 2.8 6.6 0.8 1.6 1.8 3.3 3.4 4.1 0 0.5 0.4 0.9 0.9 0.7 0.1 0 0.2-0.1 0.3-0.1 0 4.8 1.8 9.3 3.5 13.7 1.5 3.8 2.4 8.4 5.3 11.4 0.5 0.6 1.6-0.2 1.9-1 1.4 0 2.7-0.3 4-0.6-0.4 1.3-0.7 2.7-0.9 4l-0.6 2.7c-0.1-0.1-0.4-0.2-0.7-0.1-9.2 1.9-17.9 6.3-25.6 11.5-8.2 5.5-17.5 9.6-24.6 16.5-3 3-5.7 6.2-8.6 9.4-0.4 0-0.8 0.3-1 0.6h-0.1c-1 0-2 1.9-1.2 2.2-2.5 6 1.2 13.4 2.8 19.2 0.8 2.9 0.9 5.9 1.4 8.8 0.4 2.5 1 5.4 2.7 7.4 2.4 2.6 6.1 1.4 8.7-0.1 0.2-0.1 0.4-0.3 0.5-0.4 7.1-3.8 12.5-10.2 18.1-15.9 3.2-3.2 6.4-6.4 9.3-9.8 3.1-3.6 6-7.3 9.5-10.4 2.9-2.7 6-5.2 8.9-7.9 0 0.3-0.1 0.7-0.2 1s-0.1 0.5 0 0.6c-3.9 3-6 8.3-8 12.6-1.4 3-3 5.8-5.1 8.4-1.8 2.3-3.7 4.6-5.5 6.9h-0.3c-1 0-2.1 1.9-1.4 2.4-0.1 0.2-0.2 0.4-0.3 0.7-0.6 4.3-1.8 8.4-3.4 12.4-1.7 4.2-3.9 8.2-6 12.3-2.2 4.2-4.3 8.4-6.4 12.7-1.4 2.7-2.5 5.5-3.9 8.2-1.1 2.2-2.6 4.3-4.9 4.9 0.1-0.4 0-0.8-0.4-1-0.7-0.3-1.3 0.4-1.7 0.9-0.2 0.3-0.4 0.6-0.6 0.8s-0.3 0.4-0.4 0.6c-1.9 2.9-3.5 6.2-6.2 8.3-0.4 0.4-1 1.2-0.7 1.8 0 0.1 0.1 0.1 0.1 0.2-0.3 0.6-0.3 1.3 0.5 1.4 5.5 0.2 10.5 2.5 15.7 3.8 2.6 0.6 5.4 0.9 8 1.2 2.9 0.4 5.8 0.7 8.6 1 5.8 0.6 11.7 1 17.5 1.1 5.7 0.1 11.4 0.1 17.1-0.5 3-0.3 6.1-0.7 9.1-1 2.6-0.2 5.1-0.7 7.5-1.6 0.1 1.5 2.5-0.1 2.4-1.3-0.2-1.9 0.7-3.5 1.5-5.1 0.8-1.5 1.3-3 1.7-4.7 0.4-1.8 0.5-3.7 0.9-5.6s1.2-3.5 2.2-5.1c1.9-3.1 4-5.9 5.5-9.2 1.3-2.8 2.3-5.7 3.4-8.6 0.7-0.2 1.2-0.9 1.3-1.5 1.2-5 5.5-8.7 8.8-12.3 1.8-1.9 3.4-3.9 5-6 1.8-2.4 3.5-4.9 4.7-7.6 3.9 1.4 7.7 3.7 12 2.5 4 5.7 8.5 10.9 11 17.5 2.4 6.3 4.9 13.1 9.4 18.2-0.1 0.3-0.2 0.6-0.1 0.8 1.2 3.7 3.3 6.9 3.8 10.8 0.4 3.6 0.4 6.9 2.4 10.1 0.9 1.5 1.5 3 1.8 4.8 0.3 1.5 0.5 3.1 1.2 4.5 1 2 2.8 3.4 4.9 4.2 4.5 1.8 9.7 1.5 14.4 1.3 3.2-0.1 6.5 0 9.7-0.2 4-0.2 7.9-0.6 11.9-0.9 8.1-0.7 16.2-0.8 24.3-0.5 4 0.2 8 0.5 12 0.8 2.6 0.2 5.3-0.1 7.7-0.9 4.5-1.6 10.1-6.8 7.5-12-1.2-2.4-3.5-3.9-5.4-5.7-2.6-2.5-4.4-5.6-7.2-7.9-1.3-1.1-2.8-2-4-3.3s-2.3-2.7-3.4-4.1c-2.2-2.9-4.2-6-6.1-9.2-3.8-6.2-7.9-12.5-11-19.1-0.8-1.7-1.5-3.5-2.1-5.2-0.4-1.2-2.6 0.6-2.2 1.8 2.3 6.9 6.4 13 10 19.3 3.4 5.8 6.9 11.6 11.2 16.8 1 1.2 2.1 2.4 3.4 3.4 1.3 1.1 2.8 2 4 3.3 2.3 2.3 4.1 5.2 6.6 7.4 1.7 1.5 4 3.2 4.5 5.6 0.4 2.5-1.7 4.8-3.7 5.9-2.2 1.2-4.8 1.6-7.3 1.6-3.5 0-7.1-0.5-10.6-0.7-7.7-0.4-15.3-0.5-23 0-7.6 0.5-15.2 1.4-22.9 1.4-4.6 0-9.3 0.5-13.8-0.4-2.3-0.4-4.6-1.3-6.2-3.1-2.3-2.6-1.6-6.4-3.2-9.3-0.9-1.6-1.9-3-2.3-4.8-0.4-2-0.4-4.1-0.7-6.1-0.4-3.3-1.9-6.2-3.2-9.3 6.4-6.4 12.6-12.9 20.1-17.9 7.2-4.7 14.8-8.1 23.2-9.9 4.4-0.9 8.8-2.1 12.4-5 0 0.1 0.1 0.1 0.1 0.2 0.7 0.9 2.5-1.1 1.7-2-5-6-8.5-13.3-9.7-21-0.3-2-0.4-4-0.5-6.1l-0.6-6.3c-0.4-4.2-0.2-8.3 0.3-12.4 0.5-4.5 1.5-9 3.3-13.1 0.4-0.2 0.8-0.5 0.9-0.9 0.5-1.5 1.1-3.1 2-4.4 0.9-1.4 2.3-2.5 3.5-3.6 3.3-2.8 5.8-6.4 8.2-9.9 1.1-1.7 2.3-3.4 3.2-5.2s1.2-3.8 1.6-5.8c0.6-3.2 1.7-6.3 1.7-9.6 0-2.6-0.6-5.6-2.4-7.5 0.5-0.4 0.9-1.2 0.8-1.6 3.1-3.1 6.8-5.5 9.9-8.6 3.7-3.7 7-7.9 10.8-11.7 1.8-1.8 3.8-3.5 5.5-5.4 1.8-1.9 3.4-3.9 4.9-6 2.9-4.1 5.8-8.8 7.1-13.7 1.5-5.5 1.3-11.3 2.7-16.8 2.2-1.3 4.2-3 6-4.9 6.3 3.3 14.7 4.9 18.9 11.1-0.2 0.4-0.3 0.7-0.3 1.1 0.1 3.3-2.2 6.3-3.7 9.2-1.8 3.5-2.3 7.2-3.4 10.9-0.6 2-1.5 3.9-2.3 5.8-0.7 1.8-1.3 3.7-1.8 5.6-1 3.8-1.7 7.7-2.5 11.6-1.3 6.9-4.1 14.6-1.7 21.6 1.1 3.3 3.4 6.3 5.7 8.9 2.5 2.7 5.3 5.1 8.2 7.3 6.4 4.8 13.6 10 21.9 10.8 0.4 0 0.9-0.2 1.2-0.5 1.5 0.3 2.9 0.9 4.2 1.5 2.1 1 4.2 2.2 6.3 3.3 4 2.1 8.5 3.3 13.1 3.2 0.1 0.3 0.3 0.5 0.6 0.6 0.8 0.3 1.6 0.3 2.4 0 4.3 1.3 8.4 3.3 12.6 4.8 4.5 1.6 9.6 3 14.4 1.6 5.5-1.6 8.9-6.9 12-11.3 3.6-5.2 6.6-10.7 9.4-16.4 1.6-3.2 3.7-6.1 5.3-9.3 0.8-1.6 1.5-3.2 1.8-4.9 0.3-1.4 0-2.7 0.2-4.1 3.2-0.2 6.3-0.7 9.5-0.7 0.4 0 0.9-0.3 1.2-0.6 0.2 0.1 0.5 0.3 0.7 0.3 1.8 0.4 3.5-1.2 4.5-2.5 1.7-2.1 2.3-4.5 3-7 1-3.4 2.4-6.7 3.8-10 2.3-5.5 5.7-12.8 0.8-17.7-0.1-0.5-0.4-1.1-1.1-1.1zm-365.2-76.8c-0.2-2.2 1.1-3.6 2.6-5.1 1.4-1.5 2.6-3.1 2.7-5.2 0.1-2.2-0.7-4-2.3-5.4-1.1-1-2.3-1.8-3.4-2.7 3.7-0.2 8 0.8 10.2-2.7 2-3.2 0.4-7.1 0-10.7 5.8 2.1 11.3 5.7 17.7 4.7 5.6-0.9 9.9-5.5 11.4-10.8 0.2-0.9 0.4-1.7 0.5-2.6 3.5 2.8 9 3.4 13.2 4.2 3.3 0.6 6.4 2 9.7 2.2 2.2 0.1 4.2-0.7 4.9-2.9 0.4-1.2 0.4-2.5 0.3-3.8s-0.3-2.6-0.5-3.9c5.1 1.5 8 6.8 12.1 9.9 2.4 1.8 5.3 2.8 8.3 2.4 3.5-0.5 6.3-2.6 8.7-5 1.9-1.9 3.4-4.1 5-6.3-0.3 2.8-0.2 6 2.4 6.5 1.4 0.3 2.9-0.4 4.1-1 1.7-0.9 3.2-2.1 4.7-3.3 1.3-1.1 2.6-2.2 3.9-3.4 0.3 2-0.2 4-0.8 6-0.6 1.9-1.5 4-1.2 6 0.4 2.5 2.7 3.7 4.8 4.5 3.8 1.3 8 1.8 12 0.7 3.8-1.1 7.1-3.2 10.5-5.1 1.9-1.1 3.8-2 5.7-2.8 1.1-0.5 2.4-1.1 3.7-1.3h0.7c0.2 0.1 0.2 0.2 0.3 0.4 0.2 0.9 0 1.9-0.1 2.8-0.4 3-0.9 6-0.9 9 0 2.6 1.8 4.2 3.5 6s3.5 3.6 5.1 5.5c1.4 1.5 2.7 3.2 3.5 5.1-2.6 0.3-5.2 0-7.7-0.7-1-0.3-2 1.1-1.7 1.9 1.3 3.6 2.9 7 4.6 10.3-5.5-1.3-11.1-2.3-16.7-3.4-6.2-1.2-12.3-3.2-18.6-3.8-6.5-0.7-13.1-0.7-19.6-0.6-6.6 0.1-13.2 0.4-19.8 0.7-3.4 0.1-6.8 0.3-10.1 0.7-3.2 0.3-6.3 0.9-9.5 1.5s-6.5 1.1-9.8 1.3c-3.2 0.2-6.5 0.5-9.7 0.8-6.4 0.7-12.8 1.5-19.3 1.9-3.7 0.2-7.4 0-11.2-0.1-3.6-0.1-7.3 0-10.9 0.1h-2.9c0-0.5-0.1-1-0.1-1.5 0-0.1 0-0.2-0.1-0.2 0.1-0.4 0.1-0.6 0.1-0.8zm-18.9 14.5c0-2.3 0.1-4.9-0.3-7.4 0.3 0.2 0.6 0.2 1 0.1 5.6-2.3 11.9-1.1 17.9-1.1 3.3 0 6.7-0.1 10-0.1s6.6 0.2 9.9 0.2c6.5 0 12.9-0.8 19.3-1.5 3.2-0.4 6.4-0.7 9.6-1s6.4-0.4 9.7-0.9c3.1-0.5 6.1-1.1 9.2-1.6s6.3-0.8 9.5-1c6.6-0.4 13.2-0.6 19.8-0.8s13.1-0.1 19.7 0.2c3.2 0.2 6.4 0.4 9.6 1 3.1 0.6 6.2 1.4 9.3 2.1 6.7 1.6 13.6 2.5 20.4 4.1 6.6 1.5 13.1 3.6 19.1 6.6-1.1 1.7-2 3.6-2.7 5.5-1 2.6-1.1 5.3-0.6 8-2.2-0.6-4.1-2-6-3.1-2.5-1.5-5.1-2.5-7.8-3.3-6-1.7-12-2.9-18.2-3.7-13.2-1.8-26.3-3.2-39.6-3.6-13.4-0.4-26.7 0.1-40.1 0.6-6.5 0.2-13 0-19.4 0.9-3.1 0.4-6.3 1-9.5 1.2s-6.3-0.2-9.5-0.5c-3.5-0.3-7-0.1-10.5 0.3-3.6 0.4-7.2 0.6-10.8 0.9-3.4 0.2-6.6 1-9.8 2.2-2.9 1.1-5.7 2.2-8.9 2.3-0.2 0-0.4 0.1-0.6 0.1 0.4-2.2 0.3-4.5 0.3-6.7zm187.8 28.8c-0.4 0.3-0.7 0.8-0.8 1.2-0.6 2.8-3.4 5-5.2 7.1-1.1 1.2-2 2.5-3.1 3.7-1.3 1.3-2.7 2.5-4 3.8l-0.2 0.2c-0.4-1.5-1-3-2.3-3.9-0.4-0.3-0.8-0.5-1.3-0.7-0.2-2.8 0.8-5.9 1.7-8.3 1.9-5 4.5-9.8 7-14.5 0.8-1.5 1.6-3.1 2.3-4.6 2.2 1.3 4.3 2.6 6.7 3.2-1.5 1.7-2.6 3.7-2.9 5.9-0.3 2.6 0.5 5.1 2.1 6.9zm-36 32.7c0.3 0.5 0.6 1.1 0.9 1.6-0.1 0-0.1 0.1-0.2 0.2-2.4-0.4-4.8-0.6-7.2-1.2-3.4-0.9-6.7-1.8-10.2-2.2-3.3-0.4-6.6-0.5-9.9-0.7 0.1-0.2 0.1-0.3 0-0.5-0.8-1.7-2.5-3-3.1-4.8-0.4-1.2-0.5-2.7-2.1-2.9-0.7-0.1-1.5 0.2-2.2 0.4-1 0.3-2 0.3-3 0.4-1.1 0.1-2.3 0.3-3.4 0.2-1.2-0.1-2.1-0.7-3.1-1.3-1.9-1-4-1.2-6.1-1.3s-4-0.5-6.1-1.1c-3.3-0.9-7.2-2.1-10.4-0.3-4.2 2.4-7.3 6.4-11.1 9.3-0.6 0.5-0.3 1.5 0.4 0.9 1.8-1.4 3.5-3 5.2-4.6-0.1 1.4-0.3 2.7-0.2 4.1 0.1 0.8 1.2 0 1.2-0.6-0.1-1.5 0.1-3 0.2-4.6 0.9-0.8 1.8-1.6 2.8-2.3 0.6-0.5 1.3-0.9 1.9-1.2 0 0.7 0 1.3-0.2 2-0.1 0.1-0.1 0.2-0.1 0.4-0.2 2.6-2.1 4.7-2.1 7.4-1.3-0.1-2.7-0.1-4-0.1-3.7 0.1-7.4 0.4-11.1 0.3s-7.4-0.1-11.1 0.5c-3.1 0.5-6.4 1.2-9.2 2.9-0.1 0-0.1 0.1-0.2 0.2 0.9-7.8-2.9-15.8-5.8-22.8-0.1-0.2-0.2-0.3-0.4-0.4 3.1-7.4 9.5-13.8 10.2-22.1 0-0.3 0-0.4-0.1-0.6 1-0.3 2.1-0.7 3.1-1.2 2.5-1.1 4.8-2.4 6.3-4.6 1.1 0.6 1.8 1.5 3.2 1.8 1.3 0.3 2.8 0.2 4.1 0.2 1.6 0 3.2-0.1 4.8-0.3 1.4-0.2 2.9-0.1 4.2-0.6 0.2-0.1 0.3-0.5 0.1-0.4-1.4 0.5-3.1 0.4-4.6 0.6-1.4 0.2-2.9 0.3-4.3 0.2-1.4 0-3 0.1-4.4-0.3-1.1-0.3-1.8-1.1-2.8-1.6 0.2-0.4 0.4-0.7 0.6-1.1 0.9-2 1.4-4.9 3-6.3 1.5 0 3 0 4.4-0.1 1.2 1.5 0.8 4.5 0.6 6.2-0.1 1 0.9 1 1.5 0.5 1.8-1.5 3.7-2.6 5.8-3.5-0.3 2.2 0.3 4.4 0.4 6.7 0 0.5 0.5 0.6 0.9 0.5 1.4-0.3 2.6-0.9 3.6-1.7 0 0.1 0 0.2 0.2 0.1 0.9-0.5 2-0.6 3-0.9 1.3-0.4 2.5-0.4 3.9-0.5 0.2-0.1 0.5-0.2 0.7-0.3 0.1 0 0.2-0.2 0.2-0.3s-0.1-0.1-0.2-0.1c-0.2 0.1-0.4 0.1-0.6 0.2-1.4 0.1-2.6 0-3.9 0.5-0.8 0.3-1.7 0.4-2.5 0.7 2.1-1.7 3.7-4 5.8-5.8 1.1 2.1 1.7 4.3 1.7 6.7s-0.6 4.7-1.2 6.9c-0.1 0.2-0.1 0.5-0.2 0.7v0.2c0 0.1-0.1 0.2-0.1 0.3-0.1 0.5 0.3 0.9 0.8 0.8 0.6 0 1.1-0.6 1.3-1.1s0.3-1.1 0.5-1.6c0.9-2.7 2.5-5.3 4.4-7.6 1.6 0 3.1 0.4 4.6 0.6 0.6 0.1 1.2 0.3 1.8 0.4s1.1-0.1 1.6-0.1c0 0 0.1 0 0.1-0.1h0.1c0.1 0 0.1-0.1 0.2-0.1 0.7 2 1.2 4.1 1.7 6.2 1.1 4.9 1.6 9.9 2.8 14.7 0.3 1.1 1.6 0.3 1.9-0.3 1.9-3.1 2.1-6.8 2.2-10.3 0.1-2.5 0-5.4 1.1-7.7 0.5 1.2 1.2 2.3 1.6 3.6 0.1 0.5 0.4 0.6 0.9 0.5 3.4-0.8 5.7-3.4 6.8-6.6 0.1-0.3 0.2-0.5 0.3-0.8 0.7 0.3 1.4 0.3 2.1 0.3 1.4 0 2.7 0 4-0.1 2.7-0.3 5.6 0.3 8.2-0.4 0.1 0 0.1-0.1 0.2-0.2 0.7 1.2 1.4 2.3 2.2 3.4 0.6 0.7 1.7-0.6 1.9-1 0.5-1.1 1-2.2 1.3-3.4h0.1c0.8-0.3 1.6-0.6 2.3-0.9v0.2c0.6 1.6 0.5 3.3 0.8 4.9 0.3 1.7 0.7 3.4 0.9 5.2 0.2 1.7 0.4 3.4 0.8 5 0.3 1.4 0.8 2.7 1.1 4.1 1.1 4.7 1.6 10.3 5.1 14.1 0.1 0.1 0.2 0.1 0.4 0.1 0.2 0.2 0.4 0.4 0.7 0.5 0 0.2-0.1 0.5-0.1 0.7-0.1 0.4 0.2 0.7 0.5 0.8v0.1c-0.6 1.5-0.7 3.2-0.7 4.8-0.1 1.7 0.1 3.3-0.6 4.9-0.8 1.9-1.9 3.5-2.2 5.4-0.8 0.8-1.6 1.7-1.2 2.4zm-37.5-8.3c1-0.1 1.9-0.2 2.8-0.4 0.8-0.2 2-0.8 2.8-0.4 0.6 0.3 0.8 0.9 0.9 1.5-0.2 0.1-0.4 0.4-0.5 0.6-0.3 1.6-1.2 2.8-1.6 4.3-1.7-0.1-3.4-0.2-5.1-0.2 0.1-0.1 0.2-0.3 0.2-0.5 0-1.4-0.3-3.4 0.5-4.9zm7 2.1c0.6 1.4 1.9 2.6 2.7 3.9h-0.2c-1.3-0.1-2.6-0.1-3.9-0.2 0.2-1.3 0.9-2.5 1.4-3.7zm-8.6 3.4h-0.3c-1.3 0-2.7 0-4 0.1-0.1-1.9 0.8-3.8 1.5-5.5 0-0.1 0-0.1 0.1-0.2 0.5 0.2 1 0.3 1.5 0.3h1.8c-0.8 1.6-0.7 3.4-0.6 5.3zm-8.7-6.9c0.2-0.8-1-0.2-1.2 0.3-0.5 2.3-1 4.7-0.9 7.1-0.2 0-0.5 0.1-0.7 0.1-1.6 0.2-3.2 0.4-4.9 0.5-1.9 0.1-3.8-0.1-5.7-0.4-2-0.2-4-0.5-6-0.6 0.2-0.2 0.3-0.4 0.2-0.6-0.1-2.5 1.7-4.5 2-6.9 0.3-0.9 0.4-1.8 0.4-2.8 0.7-0.2 1.5-0.3 2.4-0.3 1.8 0.1 3.6 0.6 5.4 1.1 0.3 0.1 0.7 0.2 1 0.3-1 3-1.5 6.2-2.5 9.3-0.3 0.9 0.9 0.6 1.1 0 1-3 1.5-6 2.4-9 1 0.2 1.9 0.4 2.9 0.5 2.2 0.2 4.6 0.1 6.7 1 0.9 0.4 1.6 0.8 2.4 1.2-0.2 0.1-0.4 0.3-0.5 0.5-0.7 1.7-1.6 3.7-1.6 5.6-1.4 0.1-2.7 0.2-4.1 0.4 0.1-0.1 0.2-0.3 0.1-0.4 0.2-2.3 0.6-4.6 1.1-6.9zm-69.5-32.1c3.3 0.2 6.6-0.3 9.8-0.9 2-0.4 4.1-0.8 6.1-1.4-0.1 0.2-0.2 0.4-0.2 0.6-0.3 4-2.4 7.7-4.4 11.2-1.6 2.7-3.2 5.3-4.6 8.1-4.4-4.8-10.8-7-15.1-11.9-4.8-5.5-5.3-12.8-5.3-19.8 1.4-0.1 2.7-0.1 4.1-0.3 3.2-0.4 6.4-0.9 9.6-0.9 3 0 6.1 0.3 9.1 0.6 3.3 0.3 6.5 0 9.7-0.5s6.4-1 9.7-1.2h0.4l-0.3 0.6c-0.8 1.5-1.3 3.2-2 4.8-0.6 1.5-1.4 2.6-2.8 3.4-3.2 2-7 3.1-10.7 3.9-3.9 0.9-8 1.6-11.9 1.3-1.4 0.1-2.6 2.3-1.2 2.4zm-3.9 12.9c3.3 2.2 6.7 4.2 9.3 7.3-0.2 0.5 0 1 0.5 1.1v0.4c1.5 3.6 3 7.3 4.2 11 1 3.3 1.8 6.8 1.5 10.2-2.9-0.6-6.1-0.6-8.2-2.9-2.9-3.1-5.2-7-7.3-10.7-1.6-2.7-3.3-5.5-4-8.6-0.3-1.3-0.4-2.8 0.1-4.1 0.6-1.5 1.9-2.5 3.3-3.2 0.2-0.1 0.4-0.3 0.6-0.5zm107.9-22.1c-2.5 0.7-5.1 0.1-7.7 0.3-1.2 0.1-2.3 0.2-3.5 0.2-1-0.1-2.2 0.1-3.1-0.4 0.8-2.6 1.1-5.3 2.1-7.8 2 0.1 4.1 0.2 6.1 0.4 0.8 0.1 1.7 0.1 2.5 0.2 1.2 2.3 2.3 4.8 3.6 7.1zm-0.6-6.8c1.8 0.2 3.5 0.4 5.3 0.6-0.2 2.2-0.8 4.4-1.5 6.5-1.5-2.2-2.6-4.7-3.8-7.1zm-15.7 6.9c-0.7 2.5-1.8 4.6-4.3 5.4-0.6-1.6-1.6-3-1.8-4.7-0.1-1-1.3-0.4-1.7 0-4.6 4.6-2.4 11.4-3.7 17.1-0.8-4.1-1.3-8.2-2.3-12.3-0.6-2.7-1.3-5.4-2.4-7.9-0.8-1.8-1.8-3.8-3.6-4.9-0.4-0.3-0.9-0.1-1.3 0.2-3 2.6-5.9 5.6-8.2 9v-0.9c0-3-0.8-5.8-2.3-8.3-0.3-0.5-1-0.3-1.4 0-3.1 2.5-5.2 6.6-9 8-0.2-2.1-0.8-4.3-0.2-6.3 0.2-0.6-0.1-1.4-0.8-1.1-2.3 0.8-4.5 1.9-6.4 3.3 0.1-1.3 0.2-2.7-0.1-3.9 13.3-0.4 26.6-1.1 39.9-0.9 3.9 0.1 7.8 0.2 11.7 0.4-1 2.4-1.4 5.2-2.1 7.8zm-17.6 0.8c-0.1 0-0.2 0-0.3 0.1-0.7 0-1.3 0.1-2 0-0.7-0.2-1.4-0.3-2.1-0.4-1.2-0.2-2.4-0.5-3.7-0.5 1.5-1.7 3.1-3.3 4.7-4.8 1.3 1.1 2.2 2.8 2.8 4.3 0.3 0.4 0.4 0.9 0.6 1.3zm39.6-2.1c0.4-1.1 0.6-2.3 0.9-3.5 0.5 0.8 1 1.7 1.5 2.5-0.8 0.4-1.6 0.7-2.4 1zm12.8 23.3c-0.9-3.5-1.9-7-2.3-10.6-0.4-3.2-1.1-6.3-2.6-9.2-1.4-2.7-3.1-5.3-4.7-7.9 1.6 0.2 3.1 0.4 4.7 0.6 7.1 0.9 14 2 20.9 3.8 2.6 0.7 5.1 1.5 7.4 2.7-1.8 4.3-4.3 8.3-6.4 12.4-2.4 4.7-5 9.9-5.2 15.3v0.2h-0.9c-3.2 0.3-6.4 1.9-9.6 1.7 0.2-3-0.5-6.1-1.3-9zm-0.8 8.8c-0.1 0-0.1 0 0 0-0.2-0.2-0.3-0.3-0.5-0.2-3.4-3.9-3.7-9.6-4.9-14.4-0.4-1.4-0.8-2.7-1.1-4.1-0.3-1.7-0.5-3.5-0.7-5.3-0.2-1.6-0.7-3.2-0.9-4.8-0.1-0.7-0.1-1.5-0.2-2.2 0.7 1.2 1.4 2.4 2.1 3.7 1.4 2.8 2.2 5.9 2.6 9 0.4 3.5 1.4 6.9 2.2 10.3 0.6 2.6 1.4 5.3 1.4 8zm-1.3 18.4c0-1.9 1.3-3.6 2.1-5.2 0.2-0.4 0.4-0.9 0.5-1.3 1.6-0.7 3.2-1.5 5-1.9 0.5-0.1 0.9-1.2 0.1-1-1.7 0.4-3.3 1.1-4.9 1.9 0.1-0.7 0.2-1.3 0.2-2.1 0-1.3 0-2.5 0.2-3.8 0.1-0.6 0.2-1.1 0.3-1.6h0.1c0.6 0.2 1.3-0.4 1.6-1 2-0.4 4.1-1.1 6.1-1.4 0.9-0.1 1.9-0.2 2.8-0.1 0.2 1.4 0.8 2.7 1.7 3.8 0.4 0.4 1.1 0.1 1.5-0.4 0.1 0.4 0.2 0.8 0.3 1.3-2.2 3.2-6.4 4.5-9.1 7.2-1.6 1.5-2.9 3.3-4.1 5.1-1 1.4-1.9 2.8-2.7 4.4-0.9-0.7-1.6-1.6-2.3-2.6 0.4-0.4 0.6-0.9 0.6-1.3zm36.1-43.6c0.1 0 0.1-0.1 0.2-0.1 0.6 1.8 1.5 3.5 2.4 5.1 2.1 3.7 4.9 7 8.6 9.3-0.2 0-0.4 0.1-0.6 0.3-1.5 1.1-3.7 0.7-5.4 0.2-2-0.6-3.9-1.6-5.5-3-1.7-1.4-2.9-3.5-2.9-5.7 0.1-2.5 1.5-4.6 3.2-6.1zm-192.2-3.7c-0.1 1.8-1.1 3.5-1.9 5.1-1 1.8-2 3-3.8 4.4-2.1 1.7-5.1 3.4-7.9 2.7 0.2-0.7 0.4-1.3 0.5-2 0.2-0.9-0.3-1.2-0.8-1 4.3-2.1 6.6-6.9 10.6-9.5l0.9-0.6c1.1-0.6 2.5-0.8 2.4 0.9zm-195.8 57.2c-1.4-2.5-2.5-5.1-3.4-7.9-1-3.1-1.7-6.3-1.7-9.5 0-1.3 0.1-2.7 0.4-3.9 0.1-0.2 0.2-0.6 0.3-0.8s0.2-0.4 0.2-0.5c0.3 0 0.5-0.1 0.8-0.2 0.1 0 0.1-0.1 0.2-0.1 0.3 0.2 0.5 0.5 0.8 0.7 1.7 1.8 3 4.1 4 6.3 2.4 5.2 4 11 4.3 16.7 0 1.1 0 2.2-0.1 3.2 0 0.1 0 0.2-0.1 0.3-0.2 0.2-0.5 0.3-0.7 0.5-0.2 0.1-0.4 0.3-0.6 0.5-0.1-0.1-0.3-0.2-0.4-0.3-1.8-1.4-3-3.2-4-5zm8.9 1.7c0.4-5.9-1.3-12.3-3.5-17.7-1-2.6-2.6-6.2-4.9-8.8 2.4-0.9 4.8-1.6 7.2-2.4 0.4 1.4 0.5 2.8 0.7 4.2 0.3 2.9 1.1 5.8 1.8 8.6 0.6 4.3 1.9 8.5 3.4 12.7-1.7 0.9-3.2 2.2-4.7 3.4zm55.4 49.5c-1.7 0.8-4.1 0.9-6.1 0.6-5.5-0.8-10.6-3.8-15-7-4.8-3.4-9.2-7.5-13-12-1.4-1.6-2.6-3.3-3.6-5.2-1.9-3.7-3-8-4.1-12.1-1.5-5.4-2.9-10.7-4.7-16-1.6-4.5-3.3-9.1-4.1-13.9 0-0.2 0.1-0.4 0-0.6-0.1-0.4-0.2-0.7-0.3-1.1 0-0.3-0.1-0.6-0.1-0.9s-0.1-0.5-0.3-0.7c-0.6-2.3-1.2-4.7-1.4-7.1-0.2-1.5-0.3-3-0.7-4.5-0.5-1.6-0.9-3.1-1.1-4.8-0.4-3.1-1.6-6-2.7-9-1-2.7-2.4-5.3-2.8-8.2-0.1-0.5-0.3-0.7-0.6-0.8-4.1-7.2-4-16.8-2.2-24.7 0.9-4 2.7-7.9 5.2-11.1 2.2-2.8 5.1-5.1 8.2-7 2.8-1.7 5.8-3.2 8.8-4.7 0.1 3.8 1.3 7.5 2.7 11 0.8 2.2 1.7 4.3 2.4 6.6s1.2 4.7 1.7 7.1c1.1 5.1 2.2 10.1 3.7 15.1 0.7 2.5 1.7 4.9 2.4 7.4 0.8 2.6 1.4 5.2 1.9 7.8 1.1 5 1.9 10.1 3 15.2 0.9 4.2 2.2 8.2 3.4 12.3 1.3 4.3 2.2 9 3.1 13.5 2.4 11.5 4.7 23.3 9.2 34.3 2.4 5.9 5.9 12.4 11.2 16.1-1 2.2-2.1 3.5-4.1 4.4zm58.1-28.4c-0.3 1.5-0.9 3-1.5 4.4-0.2 0.5-0.2 1 0.1 1.3-2.6 2.4-5.2 4.9-8.2 6.8-3 2-6.4 3.4-9.9 4.5-3.9 1.2-7.8 2.5-11.7 3.8-3.5 1.2-7.2 2.7-11 2.9-9.7 0.7-15.6-8.1-19.1-15.9-4.7-10.4-7.1-21.8-9.4-33-1-4.8-1.9-9.6-3.2-14.3-0.7-2.6-1.6-5.2-2.4-7.8-1.4-5-2.4-10.1-3.3-15.1-0.9-4.9-1.9-9.9-3.4-14.7-1.4-4.9-3.1-9.7-4.3-14.7-1.1-4.8-1.9-9.7-3.3-14.4-1.2-4.3-3.2-8.3-4.3-12.7-0.4-1.5-0.7-3.1-0.7-4.7 2.8-1 5.8-1.2 8.7-1.4 3.5-0.2 7-0.5 10.4-1.4 6.2-1.7 11.8-5 17.8-7 2.2-0.7 4.6-1.6 6.9-1.7 1.5-0.1 4.2 0.1 5.1 1.3 0.3 0.4 0.6 1.2 0.8 1.8 0.4 0.9 0.9 1.8 1.5 2.7 2 2.8 4.1 5.3 5.7 8.3 3.3 6 5.3 12.5 8.3 18.6 3.4 6.9 7.5 13.4 11.1 20.1 3.7 6.8 6.8 13.7 8.7 21.2 1.8 7.2 2.7 14.7 4.3 21.9 1.4 6.5 3.6 12.8 5.1 19.3 1.6 6.6 2.7 13.4 1.2 19.9zm18.5-50.7c1.7 6.2 3.4 12.4 5.1 18.6 0.8 3 1.7 5.9 2 8.9 0.3 2.9 0.1 5.8-0.3 8.6-0.3 2.2-0.5 4.5-1.9 6.3-1.6 2-4 3-5.9 4.6-2.3 1.9-4 4.3-6.9 5.3-3 1-6.1 1-9 2.2 5.6-12.7-0.1-27.2-3.4-39.7-1.9-7.1-2.8-14.4-4.3-21.6-1.6-7.7-4-15.1-7.5-22.2-3.5-7-7.7-13.7-11.4-20.6-1.8-3.4-3.5-6.9-5-10.4-1.3-3.1-2.5-6.3-4-9.4-1.4-3.1-3.2-6-5.2-8.7-0.9-1.3-2-2.4-2.8-3.8-0.5-0.8-0.8-1.6-1.1-2.4-0.2-0.4-0.3-0.7-0.6-1 2.4-0.5 4.7-1.2 7-1.8 2.8-0.7 5.4-1.4 8.3-1.3 1.3 0.1 2.5 0.3 3.8 0.2 1 0 2.1-0.3 3 0.1 1.1 0.5 2.1 1.9 2.9 2.8 1 1.1 1.9 2.3 2.8 3.5 1.7 2.1 3 4.3 4.1 6.7 1.2 2.5 2.6 4.8 4.1 7 3.1 4.5 5.9 9.4 7.8 14.6 1.2 3 1.9 6.2 3.1 9.2 0.9 2.3 1.9 4.6 3 6.8-0.2 0.4-0.2 0.8-0.1 1.3 0.3 0.9 0.8 1.6 1.2 2.3 0.6 0.9 0.7 1.7 0.9 2.7 0.3 1.9 1 3.5 1.8 5.2 1.2 2.4 2.1 4.9 3 7.3-0.3 0.8-0.2 1.6 0.4 1.8 1.2 2.6 1.7 5.4 2.6 8 1.1 3 1.7 6 2.5 8.9zm-2.5-20.9c-0.9-2.5-1.8-5-3-7.5-0.4-0.8-0.8-1.6-1.1-2.5s-0.4-1.9-0.6-2.8c-0.1-0.7-0.4-1.3-0.7-1.8 3.6-0.9 7.3-1.5 10.9-2.5-0.1 0.4-0.3 0.9-0.4 1.3-0.5 2.2-0.3 4.3 0.3 6.4 0.7 2.4 1.9 4.8 3.2 7-2.8 0.7-5.7 1.3-8.6 2.4zm17.9 3.7c-1.9-0.9-3.3-2.7-4.6-4.3-1.4-1.8-2.7-3.7-3.8-5.8-1.2-2.2-2.2-4.6-2.5-7.1-0.2-2.3 0.6-4.5 1.6-6.5 2.2-4.6 5.7-9.4 10-12.1 0.1 0 0.2-0.1 0.2-0.2 2.6-0.4 4.6-2.1 7-3 2.6-1 5.4-1.5 8.1-2 2.8-0.5 5.6 0.4 8.3 1.2 2.3 0.7 4.6 1 6.9 1.4 1.6 0.3 3.2 0.7 4.4 1.9 1.7 1.7 2.5 4.2 2.7 6.5 0.3 2.6 0.1 5.2 0.1 7.9 0 1.9 0.1 4.1-0.9 5.9-0.3 0.5-0.6 0.9-1 1.2-0.3 0.1-0.5 0.3-0.7 0.6-0.2 0.1-0.4 0.3-0.6 0.4-1 0.7-1.9 1.4-2.8 2.2-1.6 1.6-3 3.4-4.6 5-1.8 1.8-4 2.5-6.3 3.5-2.4 1-4.9 2.1-7.4 2.7-2.4 0.6-4.9 1-7.4 1.3-2.1 0.2-4.5 0.3-6.7-0.7zm45 73.6c-0.8-1.7-1.3-3.5-2.1-5.2-2.6-5.8-5.8-11.2-9.5-16.3s-7.6-10.1-11-15.3c-3.5-5.4-6.4-11.2-9.3-16.9-1.6-3-3.3-5.9-5.1-8.8-1.6-2.5-3.1-5.2-4-8 1.6-0.1 3.3-0.3 4.9-0.6 2.8-0.5 5.6-0.9 8.3-1.9s5.3-2.1 8-3.3h0.1c-0.3 0.2-0.5 0.5-0.6 0.8-0.3 1-0.5 1.9-0.8 2.9-0.1 0.4-0.1 0.9 0.3 1.1 2.7 1 5.7 0 8.1-1.4 2.3-1.3 4.5-3.2 6.1-5.3 1-1.4 1.8-3 2.5-4.5 0.3-0.7 0.6-1.5 0.8-2.3 1.2 2.3 2.1 4.8 3.7 6.9 0.9 1.2 1.8 2.2 2.8 3.3 1 1.2 1.9 2.5 2.9 3.7 3.4 4.6 8.2 7.4 12.5 11 0.9 0.8 2.6-1.2 1.7-2-4.2-3.6-9.1-6.4-12.4-11-1.7-2.3-3.6-4.4-5.3-6.6-1.9-2.4-2.7-5.3-4.3-7.9-0.3-0.5-0.9-0.4-1.4 0v-0.2c0-0.1-0.1-0.2-0.1-0.3 5.1-0.7 9.5-3.5 14.7-4.1 1-0.1 2-0.2 3-0.2 0 7.4 0.4 15.1 5.3 21.1 1.5 1.9 3.3 3.3 5.2 4.7-2.2 1.4-4.1 3.3-4.6 6-0.5 2.6 0.2 5.2 1.3 7.6 1.1 2.5 2.6 4.9 3.9 7.3 1 1.9 2.2 3.6 3.5 5.3 1.1 1.5 2.1 3.1 3.5 4.4 0.7 0.7 1.5 1.1 2.3 1.5-0.5 3.9-3.3 7.1-5.7 10.1-2.8 3.6-5.4 7.3-8 11-1.3 1.8-2.6 3.6-4.1 5.3s-3.1 3.2-4.8 4.7c-2.6 2.5-5 5.9-8.4 7.6-2.1-0.6-3.1-2.5-3.9-4.2zm-35.3 67.3c3.1-3.3 6.6-5.9 10.5-8.2 4.3-2.6 8.7-5.1 12.9-7.9 3.9-2.6 7.8-5.1 12-7.1 4.7-2.3 9.6-4.2 14.7-5.2 0.2 0 0.4-0.2 0.6-0.3 0 0.2-0.1 0.3-0.1 0.4s-0.1 0.3-0.1 0.4c-3.4 2.3-7 4.2-10.4 6.6-3.4 2.5-6.4 5.4-9.7 8-3.4 2.7-7.3 4.6-11 6.9s-7.4 4.7-11 7.2c-3.7 2.6-6.6 6.3-10.5 8.7-0.1-0.1-0.2-0.1-0.3-0.1 0-0.3-0.1-0.5-0.4-0.6-1.4-0.4-2.7-0.9-4.1-1.2 2.3-2.4 4.5-5.1 6.9-7.6zm-1.9 43.2c-1.6-1.7-2.1-4.4-2.4-6.6-0.4-2.5-0.5-5.2-1.1-7.7-0.8-3.3-2.1-6.5-3-9.8-0.7-2.8-1.7-6.5-0.5-9.3h0.1c1.6 0.3 3.1 0.9 4.7 1.3h0.2c-0.1 2.9 0.8 5.5 1.5 8.3 0.7 3 0.5 5.8 0.4 8.8-0.1 5.6 2.6 10.6 4.7 15.6-1.6 0.7-3.3 0.8-4.6-0.6zm44.4-37.3c-3.4 3-6.3 6.2-9.2 9.7-2.9 3.6-6 6.9-9.3 10.1-2.9 2.9-5.7 5.9-8.6 8.8-3.2 3.1-6.6 6.1-10.5 8.2-2.1-5.1-4.8-10-4.7-15.7 0.1-2.8 0.3-5.6-0.3-8.3-0.5-2.4-1.4-4.7-1.6-7.1 3.4-2.1 6.1-5 9.1-7.6 3.4-2.9 7.4-5.2 11.2-7.6 3.7-2.3 7.6-4.1 11-6.7 3.5-2.6 6.6-5.6 10-8.3s7.2-4.7 10.8-7c0.1 1.7 0.6 3.3 1 5.1 1.3 6 0.4 12.2 0.2 18.3-2.9 2.9-6 5.4-9.1 8.1zm49.7 64.2c-1.6 3.4-4 6.2-5.8 9.5-0.9 1.6-1.5 3.3-1.9 5-0.4 2-0.6 4-1 6-0.6 2.7-2.4 5-2.9 7.6-2.3 0.9-4.8 1.2-7.3 1.4-2.6 0.2-5.2 0.5-7.8 0.9-5.6 0.7-11.3 0.7-16.9 0.6-5.7-0.1-11.4-0.3-17.1-0.9-2.8-0.3-5.6-0.6-8.4-1s-5.7-0.6-8.5-1.2c-5.4-1.2-10.4-3.5-15.9-3.9 2.4-2.3 4-5.2 5.7-7.9 6.1-0.4 8.7-7.6 10.9-12.4 4.1-8.9 9.3-17.4 13.3-26.4 2.1-4.7 3.5-9.7 4.3-14.8l0.1-0.1c9 0.1 18 1.2 26.5 4.2 4.5 1.5 8.9 3.6 12.9 6.1 4.1 2.6 7.8 5.7 11.9 8.3 4.2 2.6 9.1 4.1 12.3 8-1.5 3.7-2.8 7.4-4.4 11zm23.4-36.4c-1.2 2.8-3.1 5.3-4.9 7.7-1.6 2.1-3.4 4.1-5.2 6-2.7 2.8-5.5 5.8-7.2 9.3-2.8-3.2-6.8-4.8-10.5-6.8-4.4-2.4-8.2-5.8-12.4-8.5-8.1-5.3-17.2-8.5-26.7-10.1-4.6-0.7-9.2-1.1-13.8-1.2 3.5-4.6 7.3-8.8 9.8-14 1.1-2.4 2.2-4.8 3.5-7.1 1.1-2 2.5-4.2 4.5-5.5 3.9 1.9 7.4 4.4 11.2 6.3 2 1 4.2 1.6 6.3 2.3 2.2 0.7 4.1 1.6 6.1 2.7 8.1 4.6 16.3 8.9 25 12.1 5 1.9 9.9 4 14.7 6.3-0.3 0.2-0.3 0.3-0.4 0.5zm14.9-1.5c-0.8-1.2-2.8 0.7-2.2 1.7v0.1c-3.7 0.1-7.2-2.5-10.8-3.3h-0.3c-4.1-2-8.2-3.8-12.5-5.4-4.4-1.7-8.8-3.4-13-5.5-4.2-2-8.4-4.2-12.5-6.5-2-1.1-3.9-2.2-6-3-2-0.7-4.1-1.3-6.1-2.1-4.8-2-9-5.3-13.7-7.5 0.1-0.5 0.1-1 0.2-1.4 0.2-0.3 0.3-0.6 0.3-0.9 1.6-0.1 3.2-0.5 4.7-1.1 2.2-0.7 4.3-1.3 6.6-1.3 2.4 0 4.8 0.2 7.2 0.2 2.5 0 4.9-0.5 7.4-0.8 10-1.2 19.9-1.1 29.9-0.7 9.8 0.5 19.6 1 29.2 2.8 4.7 0.9 9.4 2.1 14.1 3.1 4.6 0.9 9.3 1.3 13.9 2.3 5.3 1.1 10.3 3.5 15.5 4.9 0.6 0.2 1.2 0.3 1.8 0.5-2.7 1-5.2 2.5-7.6 4.1-3.3 2.3-6.4 4.9-9.7 7.2-3.6 2.5-7.7 3.8-11.9 4.8-2.1 0.5-4.2 0.9-6.2 1.5s-3.9 1.5-5.8 2.4c-3.8 1.9-7.9 4.3-12.3 4.3-0.1-0.3-0.2-0.3-0.2-0.4zm71.5-3.4c1.5 3.5 3.5 6.8 5.8 9.8-3.2 2.5-7.2 3.3-11.1 4.1-4.2 0.9-8.2 2.1-12.1 3.8-8.1 3.5-15.6 8.6-22.1 14.5-3.3 3-6.4 6.2-9.6 9.4 0-0.1-0.1-0.1-0.1-0.2-4.9-5.2-7.3-12.3-9.9-18.8-2.4-6.3-6.8-11.4-10.6-16.8 2.9-0.5 5.7-1.8 8.3-3.1 1.9-0.9 3.8-1.9 5.7-2.7 2-0.8 4.2-1.3 6.3-1.8 4.1-0.9 8.2-1.9 12-3.9 3.6-1.9 6.7-4.6 9.9-7.1 3.7-2.7 7.6-5.6 12.2-6.3 0.4-0.1 0.8-0.5 1.1-0.9 3.5 0.6 7 1 10.5 2 0.2 2.1 0.2 4.1 0.5 6.2 0.4 4.1 1.5 8.1 3.2 11.8zm-0.4-49.4c-1.7 3.8-2.7 7.8-3.3 11.9-0.6 4.2-1 8.6-0.7 12.8 0.1 1.4 0.2 2.7 0.4 4.1-4.2-1-8.5-1.3-12.7-2.2-4.8-1.1-9.2-3.1-13.9-4.5-4.5-1.4-9.3-1.8-13.9-2.6-4.9-0.8-9.6-2-14.4-3.1-9.4-2.1-19.1-2.8-28.7-3.3-10-0.5-20-0.8-29.9 0.1-2.8 0.2-5.6 0.6-8.4 1-2.7 0.3-5.4 0.1-8.1 0-2.6-0.1-5 0-7.5 0.8-2.2 0.7-4.3 1.6-6.7 1.5 0.2-5.6 0.9-11.3-0.1-16.8-0.4-2.3-1.4-4.4-1.2-6.7v-0.1c0-0.3 0.1-0.7 0.2-1 0.4-1.4 0.8-2.8 1-4.2 0.3-1.6 0.6-3.3 1.1-4.8 2.1-0.6 4.3-1.2 6.5-1.4 5.3-0.4 10.7-0.5 16-1.2 2.7-0.4 5.3-1 8-1.3s5.3-0.3 8-0.1c2.6 0.2 5.2 0.6 7.8 0.9 2.8 0.3 5.6 0.5 8.4 0.7 2.7 0.2 5.4 0.4 8.1 0.8s5.3 1.1 7.9 1.8c5.1 1.3 10.3 1.9 15.5 2.7 5.3 0.9 10.5 2.2 15.8 3.2 2.6 0.5 5.2 1.3 7.8 1.9 2.5 0.6 5 1 7.5 1.5 5.7 1.1 11 3.5 16.7 4.4 4.4 0.7 9.2 0.4 13.3 2.3-0.2 0.3-0.4 0.6-0.5 0.9zm20.9-38.9c0.1 3.1-1 6-1.6 9-0.4 2-0.7 4-1.6 5.9-0.9 1.8-2 3.4-3.2 5-2.4 3.5-4.9 6.6-8 9.3-2.2 1.9-3.7 4-4.8 6.5-3.4-1.4-7.4-1.5-11-1.9h-0.2 0.1c2.1-1.4 4.3-2.7 5.1-5.3 0.4-1.4-1.3-0.9-1.6 0-0.6 2-2.5 2.9-4.1 3.9-0.5 0.3-0.6 0.9-0.5 1.2-0.8-0.1-1.6-0.3-2.4-0.4l0.2-0.2c2.3-2.9 2.9-6.4 4.4-9.7 0.2-0.4 0-0.9-0.5-0.9-0.5-0.1-1 0.5-1.2 1-1.3 2.9-1.8 6.2-3.8 8.7-0.2 0.3-0.3 0.6-0.3 0.8-3.5-0.8-6.8-2.1-10.3-3-2.5-0.7-5.1-1.1-7.7-1.6s-5.1-1.3-7.7-1.9-5.3-1.1-7.9-1.6c-2.7-0.5-5.3-1.2-7.9-1.8-5.2-1-10.6-1.4-15.8-2.6s-10.3-2.6-15.6-3.1c-5.5-0.5-10.9-0.9-16.3-1.5-5.3-0.7-10.5-0.8-15.8 0.3-2.1 0.4-4.3 0.8-6.5 1v-0.3c-0.7-2.9-2.7-5.5-3-8.5-0.4-3.6 0.9-7.3 1.5-10.8 0.2-1.3-1.6-0.4-1.8 0.5-0.6 3.6-1.8 7.2-1.5 10.8 0.2 3.1 2.1 5.6 2.9 8.5-3.2 0.3-6.5 0.5-9.7 0.6-2.8 0.1-5.5 0.6-8.2 1.3s-5.4 1.5-8.2 1.3c-0.2 0-0.4 0-0.5 0.1-1.9-2.7-2.7-6.4-3.9-9.5-1.7-4.2-3.6-8.8-3.5-13.4 2-1.2 3.7-2.9 5.4-4.7 2.5-2.7 5.4-5.1 7.8-7.9 2.6-2.9 4.8-6.2 7-9.4 2.2-3.1 4.5-6 6.8-9 2-2.6 3.9-5.4 4.7-8.6 1.5 0.3 3.2 0.5 4.7 0.9 0.2 0.1 0.5 0 0.7-0.1 0.2 0.1 0.4 0.2 0.7 0.1 0.4-0.1 0.8-0.5 1.1-0.9 0.2 0.1 0.5 0.1 0.7 0 2.5-1.5 5.5-2.2 8.4-2.6 3.2-0.5 6.4-0.6 9.7-0.5 3.7 0.1 7.3-0.1 11-0.2 3.5-0.1 7 0 10.5 0.5 1.6 0.2 3.3 0.4 4.9 0.6 1.9 0.1 3.8 0 5.7-0.3 3.5-0.4 6.9-0.8 10.5-0.9 3.1-0.1 6.2 0.1 9.3 0.3 0.1 0.1 0.2 0.1 0.3 0 0.6 0 1.1 0.1 1.7 0.1l10.8 0.6c4 0.3 7.8 1.1 11.7 2.1 1.7 0.4 3.4 0.9 5.2 1.1 1.3 0.2 2.7 0.3 4 0.6 4.3 4.8 5.9 11.3 9.3 16.7 1.8 2.8 4.1 5.1 7 6.8 3.4 1.9 7.2 3 10.6 5 2.7 1.6 5.5 3.5 8.6 4.2-0.1 0.3 0 0.5 0.3 0.7 2.5 1.3 3.2 4.2 3.3 7.1zm37.2-57.5c-0.9 5.2-3.5 9.8-6.4 14.2-2.9 4.2-6.3 7.7-10 11.2-3.7 3.6-7 7.7-10.6 11.5s-8.1 6.6-11.6 10.4c-3.2-0.3-6.2-2.3-8.9-4-3.2-1.9-6.7-3.1-10-4.8-3-1.5-5.5-3.8-7.3-6.6-1.7-2.7-3-5.6-4.4-8.5-0.9-1.8-1.8-3.7-2.9-5.4 0.6-0.1 1.1-0.7 1.2-1.2 0.8-2.2 2.1-4.2 3.5-6 1.2-1.7 2.5-3.5 4.2-4.8 3.1-2.5 6.8-4 9-7.4 0.1-0.2 0.2-0.4 0.2-0.6 0.3 0 0.6-0.1 0.8-0.3 1.5-1.4 3.1-2.8 4.5-4.2 1.3-1.3 2.3-2.8 3.5-4.2 2.1-2.3 4.6-4.7 5.5-7.8 3.5 3 9.3 5.2 13.3 2.3 0.5-0.4 0.7-1 0.6-1.4 0.1 0.1 0.2 0.1 0.3 0.2 2.2 1.2 4.6 2 7.1 2.4 1.2 0.2 2.3 0.3 3.5 0.3 1.4 0 2.8-0.3 4.3-0.3 2.6 0.1 4.4 2.1 6.8 2.5 1.9 0.3 3.8-0.1 5.6-0.9-0.9 4.5-1 9-1.8 13.4zm7.4-19.1c-1.1 1-2.3 2-3.6 2.8-0.4 0-0.8 0.3-1.1 0.6-0.6 0.3-1.2 0.5-1.8 0.7-1.1 0.3-2.4 0.5-3.6 0.3-1.1-0.2-2.1-0.8-3-1.3-2.2-1.2-4.1-1.3-6.6-1.1s-4.9 0-7.3-0.7c-4.2-1.2-7.9-3.8-10.7-7.2-1.6-1.9-2.9-4.1-4-6.4-1.4-2.9-2.5-6.2-2.3-9.5 0.2-2.7 1.4-5.2 2.7-7.5 1.2-2 2.6-4.3 4.7-5.3 2.4-0.3 4.6-1.5 7-1.8 2.9-0.4 5.9-0.2 8.8-0.2 5.4 0 10.9-0.3 16.1 1.6 2.5 0.9 4.8 2.4 6.9 4.1 1.7 1.3 3.3 2.7 4.4 4.6 2.6 4.2 2.3 9.4 1.1 14-1.3 4.9-4 8.9-7.7 12.3zm4.4-2c1.3-1.6 2.4-3.2 3.2-4.9 1.3-2.7 2.4-5.7 2.9-8.7 5.2 4.5 12.2 5.6 18.7 7.4 0.2 0.1 0.5 0 0.7-0.1h0.1v0.1c-0.8 3.2-3 5.9-4 9-1 2.8-1.3 5.7-2.7 8.3-4.5-6.2-12.5-7.8-18.9-11.1zm35.5 83.1c-0.7 3.5-1 7-0.2 10.5 0.7 2.8 1.9 5.7 1.7 8.6-6.5-1.2-12.3-5.3-17.5-9.1-5.6-4.1-11.3-8.8-14.4-15.2-3.1-6.5-0.2-14.3 1.1-20.9 0.7-3.7 1.4-7.5 2.3-11.2 0.5-1.9 1.1-3.8 1.8-5.6s1.6-3.5 2.2-5.4c1.2-3.9 1.7-8 3.7-11.6 1.6-3 3.5-6.1 3.8-9.6 0.2-0.2 0.4-0.4 0.5-0.6 2.1-3.2 2.5-6.7 3.7-10.2 1.2-3.4 3.4-6.3 4.3-9.8v-0.3c0.8-0.6 1.3-1.8 1-2.4 2.9-4 5.7-8.2 7.9-12.7 2.7-5.5 4.2-11.4 7.2-16.7 1.5-2.6 3.2-5.1 5-7.5 1.4-1.9 2.8-3.9 4.6-5.5 4.4-4 10-4.4 15.6-3.9 3.2 0.3 6.1 0.8 9 2.3 2.7 1.4 5.1 3.2 7.8 4.5-0.2 0.6-0.1 1.7 0.8 1.6h0.9c-0.3 0.3-0.6 0.7-0.8 0.9-2.4 2.9-4.3 6.1-6.1 9.4-5.1 9.3-9.2 19-13.2 28.8-2.4 5.9-4.6 11.9-7.5 17.6-2.7 5.5-5.8 10.9-8.6 16.3-2.9 5.7-5.3 11.4-7.2 17.5-2 6.2-3.5 12.5-4.8 18.9-0.8 3.6-1.5 7.1-2.2 10.7s-1.6 7.1-2.4 10.6zm30.5 27c-0.1-0.2-0.4-0.3-0.7-0.3-5.2 0.5-10.1-0.9-14.7-3.3-3.2-1.7-6.8-4.1-10.5-4.6 0.3-2.2-0.1-4.4-0.7-6.6-0.8-3-1.6-5.9-1.4-9 0.3-3.1 1.1-6.2 1.8-9.2 0.7-3.1 1.3-6.2 2-9.4 2.5-12.2 5.1-24.6 10.2-36 2.5-5.5 5.4-10.7 8.2-16 2.9-5.4 5.5-10.9 7.8-16.6 4.4-10.9 8.7-21.9 14.1-32.3 1.6-3.2 3.3-6.3 5.3-9.3 0.9-1.3 2.2-3 3.1-3.9 0.7-0.6 0.8-0.7 1.5-1-0.1 0.1 0.1 0 0.3 0 0.1 0 0.2 0 0.5 0.2 0.5 0.2 1.1 0 1.6-0.4 1.7 0 3.3 0 4.8 0.7 2.1 1 3.4 3.2 5.1 4.6 2 1.6 4.2 2.9 6.1 4.5 2 1.7 3.9 3.4 6 5.1 0 0.3 0 0.5 0.1 0.7 4.7 9.7-1 20.6-5.3 29.3-2.6 5.2-4.6 10.5-6.2 16s-2.9 11.1-4.6 16.5c-3.6 11.5-9.7 21.8-14.4 32.9-2.4 5.8-4.4 11.7-6.7 17.5-2.1 5.5-4.2 10.9-6.4 16.4-1.2 2.9-2.4 5.8-3.8 8.6-0.8 1.6-1.7 3.2-2.8 4.4 0.1 0.1-0.1 0.3-0.3 0.5zm52-39.3v0.4c-0.4 0.8-0.5 1.6 0.1 1.9-0.1 0.3-0.1 0.6 0 0.8-0.3 1.1-0.3 2.2-0.3 3.3 0 1.6-0.3 2.9-0.9 4.4-1.2 2.8-2.9 5.3-4.4 7.9-1.5 2.5-2.6 5.2-3.9 7.8-1.4 2.7-3 5.3-4.6 7.8s-3.3 4.9-5.1 7.1c-1.4 1.8-2.9 3.6-5.1 4.5-4.1 1.7-8.9 0.4-12.9-1-4.1-1.4-8.1-3.4-12.2-4.7 0.5-0.6 0.9-1.2 1.2-1.7 2-3 3.5-6.3 4.8-9.5 4.2-10 8-20.2 11.7-30.3 2.2-5.9 4.7-11.6 7.5-17.3s5.7-11.5 7.9-17.4c4.2-11.3 5.7-23.5 10.9-34.5 4.6-9.7 11.4-21.1 7.9-32 4.3-2.9 9.7 0.6 13.7 2.8s7.6 5.1 9.1 9.6c2 5.9 0.2 12.3-1.1 18.2-1.5 6.7-2.7 13.4-4.3 20.1-0.5 1.9-0.8 3.9-1.2 5.8-0.3 1.3-0.6 2.7-1.5 3.8-0.7 0.9-1.5 1.7-2.1 2.7-0.4 0.7-0.7 1.4-0.8 2.2-0.5 0.7-0.7 1.5-0.3 2 0 0.1-0.1 0.1-0.1 0.2-1.4 3-2.7 6.1-3.8 9.2-1.1 3-1.9 6.2-3.1 9.1-2.3 5.5-5.7 10.8-7.1 16.8zm13.9-12.3c-1 3.4-1.8 6.9-1.7 10.4 0 0.4 0 0.9 0.1 1.4-3 0.1-6 0.6-9 0.7 0.2-0.6 0.2-1.1-0.2-1.3 1.4-5.8 4.8-10.8 6.9-16.3 1.1-2.9 1.9-5.9 2.9-8.8 1.1-2.9 2.3-5.8 3.5-8.6 1.8 0.6 3.5 1.6 5.3 2-2.8 3.4-3.8 8.2-5 12.2-0.7 2.8-1.9 5.5-2.8 8.3zm9.9-6.9c-1.2 2.8-2.5 5.7-3.5 8.6-0.9 2.4-1.3 5.1-2.4 7.5-0.3 0.6-0.7 1.3-1 1.7-0.1 0.1-0.2 0.3-0.3 0.4l-0.1 0.1c-0.1 0.1-0.2 0.1-0.3 0.2 0.2-0.1 0.1 0.1-0.1 0 0 0-0.2-0.2-0.2-0.3-0.4-0.8-0.5-1.7-0.5-2.5-0.1-5.7 2.4-10.7 4-15.9 0.8-2.3 1.4-4.7 2.2-7.1 0.6-1.6 1.3-3.8 2.5-5 3.2 3.4 1.4 8.3-0.3 12.3z"/>
</svg>
