<svg id="Layer_2" data-name="Layer 2" xmlns="http://www.w3.org/2000/svg" viewBox="0 0 227.66 356.47"><defs><style>.cls-1{fill:#fff;stroke:#fff;stroke-miterlimit:10;}</style></defs><title>ottsel</title><path class="cls-1" d="M198.17,119.37a7.11,7.11,0,0,0-1.84-4c0.94-1.73,1.66-4.09-.09-5.3l-0.11,0,0-.11a5.84,5.84,0,0,0-.75-4.25,6.29,6.29,0,0,0-3.43-2.5,0.53,0.53,0,0,0-.5.19h0a40.3,40.3,0,0,0-2-4.38,14.51,14.51,0,0,0-1-2.1c-0.4-.66-0.83-1.29-1.22-2a28.83,28.83,0,0,0-2.23-3.48c-0.54-.68-1.09-1.36-1.69-2a14.85,14.85,0,0,0,4.31-.66,6.55,6.55,0,0,0,2.91-2.49,6,6,0,0,0,1-1.9,5,5,0,0,0,0-2.23,11.47,11.47,0,0,0-1.89-4.87,4.5,4.5,0,0,0-2.07-1.58,5.23,5.23,0,0,1-2.14-.78c-0.42-.41-1.28.64-0.86,1.05a4.36,4.36,0,0,0,2.06.82,3.76,3.76,0,0,1,1.61.93,1,1,0,0,0-.37.76,5.44,5.44,0,0,1-.07,2.15A4.27,4.27,0,0,1,185.95,82,13.34,13.34,0,0,1,181,83.58a10.4,10.4,0,0,1-1.31.05,1,1,0,0,0,.16-0.76c-0.54-1.8-1.8-3.34-2.7-5a29.72,29.72,0,0,1-2.42-5.27c-0.64-2-.77-4-1.23-6a37.91,37.91,0,0,0-1.2-3.61,12,12,0,0,1-.54-2.07,3.69,3.69,0,0,1-.06-0.82s0-.08,0-0.12a1.31,1.31,0,0,0,.51-1c0-1.21-.22-2.42-0.26-3.64a21.83,21.83,0,0,0-.54-3.32c-0.17-1-.26-1.93-0.44-2.89-0.08-.43-0.16-0.87-0.2-1.3a3.9,3.9,0,0,1,0-.59c0-.13.14-0.44,0-0.22a0.91,0.91,0,0,0,.15-1.12,0.38,0.38,0,0,0-.15-0.09,41.42,41.42,0,0,0-1.13-6,31.31,31.31,0,0,1-.72-6.45c0-4.56,1.61-9,3.14-13.19a33.6,33.6,0,0,1,1.44-3.56c0.57-1.15,1.19-2.26,1.66-3.46a0.69,0.69,0,0,0,0-.62,0.78,0.78,0,0,0,0-.24c-0.07-.46-0.49-0.46-0.8-0.3-3.94,2-7.2,5.19-10.32,8.41a55.86,55.86,0,0,0-8.13,10.09,35.49,35.49,0,0,0-3.09,6.61,0.72,0.72,0,0,0,.05.65,0.85,0.85,0,0,0-.11.48,12,12,0,0,0,1.5,3.86c0.52,1,.81,2.19,1.25,3.26a0.65,0.65,0,0,0,.11.55,8,8,0,0,1,1.25,3A33.32,33.32,0,0,0,158,52.44c0.48,1.23,1.19,2.28,1.78,3.44s1.1,2.47,1.64,3.71,1.2,2.52,1.74,3.81,1,2.62,1.47,4A23,23,0,0,1,166.08,76c-0.11,1.63-.52,3.2-0.77,4.81a27.76,27.76,0,0,0-.21,4.39,13.85,13.85,0,0,0-4.34.84,8.52,8.52,0,0,0-3.5,1.85,6.12,6.12,0,0,0-1.31,4.84c0.14,0.76.3,1.49,0.39,2.27a4.62,4.62,0,0,0,.56,2c0.36,0.56,1.3-.39,1-0.85L157.84,96l0.09-.06a3.7,3.7,0,0,0,1.23-1.82c0.19-.61.19-1.28,0.41-1.88s1.14-.63,1.73-0.61c1.16,0,2.3.34,3.46,0.38a7.32,7.32,0,0,0-1.59,1.24,1,1,0,0,0-.19.32,1.2,1.2,0,0,0-.74,1,3.91,3.91,0,0,0,.85,2.39c-0.41.26-.82,0.54-1.23,0.82a1.63,1.63,0,0,0-.31.28c-0.4.34-.65,1-0.18,1.21,0.92,0.37,1.19,1.75,1.73,2.53a1.47,1.47,0,0,0,1.95.56,18.24,18.24,0,0,1,3.65-1.21,34.91,34.91,0,0,0,4.13-.42c0.62-.18,1.08-1.63.19-1.37a33.33,33.33,0,0,1-3.92.39,15,15,0,0,0-3.61,1.14,1.28,1.28,0,0,1-.85.21,1.88,1.88,0,0,1-.75-1,7.32,7.32,0,0,0-1-1.69,11.79,11.79,0,0,1,2.44-1.33,1.12,1.12,0,0,0,.72-0.88,0.59,0.59,0,0,0,0-.26c0.94-.41,1.88-0.82,2.84-1.2a11.31,11.31,0,0,0,4.1-2.82,0.78,0.78,0,0,0,.13-1c-0.28-.26-0.69.06-0.88,0.27a10.23,10.23,0,0,1-4,2.46c-1.44.57-2.85,1.23-4.26,1.88a2.85,2.85,0,0,1-.43-1.34,1.48,1.48,0,0,0,.39-0.3,8.51,8.51,0,0,1,2-1.31,10.86,10.86,0,0,0,1.91-1.47,16.06,16.06,0,0,1,5-2.74c0.86-.35,1.73-0.68,2.6-1a4.09,4.09,0,0,1,2.41-.31c1.3,0.3,2,1.71,2.94,2.54a0.44,0.44,0,0,0,.46,0c-0.08,0-.06,0,0,0a1,1,0,0,0,.21-0.12,0.71,0.71,0,0,1-.2.12l0.09,0.06L181.65,90a8.37,8.37,0,0,1,.88.85c0.52,0.55,1,1.14,1.47,1.74a21.6,21.6,0,0,1,1.82,2.78c0.65,1.14,1.46,2.21,2,3.41,0.29,0.6.48,1.23,0.77,1.83s0.69,1.27,1,1.93a19.17,19.17,0,0,1,1.14,3.72A5.66,5.66,0,0,1,191,108a3.77,3.77,0,0,1-.56,1.52,7.15,7.15,0,0,1-2.28,2.37,6.18,6.18,0,0,1-3.59.78c-1.4-.05-2.53-1-3.89-1.19a0.87,0.87,0,0,0-.85.45c-0.77-.23-1.54-0.87-2.24-1.08a1.65,1.65,0,0,0-2.1,1.47,2.55,2.55,0,0,0,.32,1.43,0.67,0.67,0,0,0-.16.29,5.07,5.07,0,0,0,1,4.76c-1.4,1.13-2,3-2.88,4.59a20.36,20.36,0,0,0-1.44,3c-0.42,1.15-.74,2.34-1.09,3.53-0.14.47,0.09,0.68,0.38,0.67a2.8,2.8,0,0,0,0,.28,2.07,2.07,0,0,0,.13.69,0.34,0.34,0,0,0,.5.17c0.49,1.57,1.83,2.82,1.78,4.54,0,1,1.23.31,1.25-.38a5.49,5.49,0,0,0-.81-3,6.62,6.62,0,0,1-1.14-2.78,0.37,0.37,0,0,0-.43-0.35,1.32,1.32,0,0,0,0-.16,1.23,1.23,0,0,0-.23-0.61,23.17,23.17,0,0,1,2-5.16c0.77-1.34,1.27-3.18,2.5-4.13a1,1,0,0,0,.22-0.24,10.09,10.09,0,0,0,5.06,1.8,19.27,19.27,0,0,0,7.09-.59,11,11,0,0,0,6.07-4.27l0.1-.14a7.76,7.76,0,0,1,1.7,4.25,36.48,36.48,0,0,1,.69,7.13,14.05,14.05,0,0,1-2.44,7.18,0.66,0.66,0,0,0-.6.9,38.61,38.61,0,0,1-2.62,3.3c-0.45.51,0.07,1,.52,0.49a38.7,38.7,0,0,0,2.74-3.48,9.89,9.89,0,0,0,1.1.39c0.43,0.12,1-.82.54-1a9.62,9.62,0,0,1-1-.36,18.31,18.31,0,0,0,2.17-4.75C199.52,126.9,198.88,122.91,198.17,119.37Zm-35-60.05c-0.58-1.26-1.08-2.56-1.66-3.82s-1.37-2.37-1.92-3.63a27.57,27.57,0,0,1-1.31-3.9,11.55,11.55,0,0,0-1-2.75,0.56,0.56,0,0,0-.06-0.23c-0.64-1.23-.92-2.63-1.53-3.88a12,12,0,0,1-1.5-3.69,0.6,0.6,0,0,0-.08-0.26l0-.07A35.18,35.18,0,0,1,160,26.69a77.57,77.57,0,0,1,8.79-9.2,28.65,28.65,0,0,1,4.72-3.5c-0.35.76-.75,1.49-1.13,2.23a32,32,0,0,0-1.35,3.2c-0.85,2.29-1.65,4.62-2.32,7a27.44,27.44,0,0,0-1.2,6.6,31.39,31.39,0,0,0,.49,6.62c0.47,2.58,1.34,5.08,1.36,7.74a0.47,0.47,0,0,0,0,.15,5.18,5.18,0,0,0,0,1.36c0.12,1,.32,2,0.46,3,0.18,1.28.59,2.51,0.67,3.8,0,0.68,0,1.36.08,2,0.05,0.49.13,1,.16,1.47-1.32,1.64.14,4.89,0.77,6.54a40,40,0,0,1,1.31,6.09,23.55,23.55,0,0,0,2.24,5.93c0.56,1.07,1.15,2.14,1.78,3.16a16.5,16.5,0,0,1,1.45,2.58,11.85,11.85,0,0,1-2.54-.73c-0.36-.15-0.71-0.29-1.08-0.4a2.39,2.39,0,0,1-1.11-.51,12.32,12.32,0,0,0-1.12-1.66,0.36,0.36,0,0,0-.26-0.07A0.32,0.32,0,0,0,172,80a0.87,0.87,0,0,0-.7.61c-0.38,1.07-.54,2.39-1.33,3.23s-2.4,1.8-3.42,1a28.5,28.5,0,0,1,.2-4.47c0.22-1.45.59-2.87,0.73-4.33a22.25,22.25,0,0,0-1.17-8.76A63.67,63.67,0,0,0,163.16,59.32Zm19.21,29.2a1.22,1.22,0,0,0-.71-0.21c-1-1-1.73-2.3-3.18-2.58a5,5,0,0,0-2.68.29c-0.93.34-1.85,0.71-2.77,1.09a18.08,18.08,0,0,0-5.52,3,11.85,11.85,0,0,1-2.11,1.59c0.23-.35.29-0.8-0.14-0.81-1.86,0-4.68-1.24-6.17.51-0.92,1.07-.45,2.88-1.55,3.76l0,0c-0.18-.79-0.16-1.66-0.35-2.42a5,5,0,0,1,0-2.58,3.23,3.23,0,0,1,.86-1.72,9.64,9.64,0,0,1,3-1.36,12.6,12.6,0,0,1,4.47-.67,0.65,0.65,0,0,0,.44-0.25h0l0.08-.05c1.32,0.73,3.09-.26,4.14-1.17a6.89,6.89,0,0,0,1.83-3.34,4.59,4.59,0,0,0,1.14,1.57,6.74,6.74,0,0,0,1.28.46c0.46,0.16.91,0.37,1.37,0.54a11.06,11.06,0,0,0,6,.45,14.58,14.58,0,0,0,5.52-2.23,3.75,3.75,0,0,0,1.69-1.93,5.18,5.18,0,0,0,.13-1.87,10.8,10.8,0,0,1,1.66,5.22,3.16,3.16,0,0,1-.88,2.1,5.35,5.35,0,0,1-1.4,1.43,5.72,5.72,0,0,1-2.21.66c-1.12.16-2.26,0.19-3.39,0.3A0.78,0.78,0,0,0,182.37,88.52Zm-5.86,23.42c0.24-.24,1,0.22,1.22.33,0.89,0.44,1.83,1.08,2.84.8a14.67,14.67,0,0,0,3.24,1.06,7.8,7.8,0,0,0,4-.66A8.81,8.81,0,0,0,190.7,111a6.65,6.65,0,0,0,1.56-3.42,6.5,6.5,0,0,0-.27-2.06c-0.09-.38-0.18-0.77-0.28-1.15a5.18,5.18,0,0,1,3.57,4.72c0.07,2.74-2.37,4.81-4.48,5.89a9.88,9.88,0,0,1-3.65,1,11.54,11.54,0,0,1-4-.2c-0.59-.16-1.17-0.35-1.76-0.51s-1.43-.28-2.13-0.44a3.41,3.41,0,0,1-2.43-1.67A1.55,1.55,0,0,1,176.51,111.94Zm19,3.22a0.81,0.81,0,0,0-.36.59L195,116a9.47,9.47,0,0,1-5.32,3.73,19.32,19.32,0,0,1-6.29.59,10.26,10.26,0,0,1-4.73-1.37,4.35,4.35,0,0,1-2.25-4.23,4.26,4.26,0,0,0,.42.41c1.18,1,3,.93,4.39,1.34a13.71,13.71,0,0,0,4.47.67,12.42,12.42,0,0,0,4.38-.84,10.73,10.73,0,0,0,5.6-5C196.78,112.25,196.25,113.91,195.55,115.17Z" transform="translate(-14.98 -11.41)"/><path class="cls-1" d="M181.27,89.74h0Z" transform="translate(-14.98 -11.41)"/><path class="cls-1" d="M194.9,140.27a15.59,15.59,0,0,0,2.65-3.09c0.37-.64-0.39-0.75-0.69-0.24a15.62,15.62,0,0,1-2.56,2.92c-0.94,1-1.73,2.06-2.7,3a1.11,1.11,0,0,0-.25.37c-0.26.37,0,.9,0.47,0.54,1.26-.89,2.81-1.21,4.17-1.9,0.44-.22.54-1.17-0.09-0.85-0.86.43-1.78,0.74-2.66,1.12C193.78,141.49,194.31,140.85,194.9,140.27Z" transform="translate(-14.98 -11.41)"/><path class="cls-1" d="M154,123.44c-0.43-.14-0.72-0.54-1.16-0.64a3.11,3.11,0,0,0-1.52.28c-0.78.18-1.38-.6-2-1a2.63,2.63,0,0,1-1.28-1.24c-0.1-.33-0.64.16-0.54,0.47a2.53,2.53,0,0,0,1.23,1.26,6.86,6.86,0,0,0,1.74,1.18c0.63,0.17,1.14-.3,1.76-0.31a4.55,4.55,0,0,1,1.4.66C154,124.17,154.35,123.55,154,123.44Z" transform="translate(-14.98 -11.41)"/><path class="cls-1" d="M162.59,124.79c-0.91-.15-1.77-0.56-2.69-0.69a8.52,8.52,0,0,0-2.41.33,17.7,17.7,0,0,1-3,0c-1,0-2-.08-3.06-0.09-0.29,0-.61.65-0.23,0.66,1.92,0,3.87.24,5.79,0.1a18.35,18.35,0,0,1,2.4-.39,28.1,28.1,0,0,1,2.83.7C162.52,125.48,162.9,124.84,162.59,124.79Z" transform="translate(-14.98 -11.41)"/><path class="cls-1" d="M165.59,134.33c-0.85-2.05-.84-4.35-2.63-5.83a10.35,10.35,0,0,0-3.34-1.92h2.17c0.29,0,.61-0.66.23-0.66h-4.37c-0.29,0-.61.66-0.23,0.66h0.3c-0.12.19-.14,0.42,0.09,0.42a5.41,5.41,0,0,1,2.37.64,10.34,10.34,0,0,1,2.42,1.53c1.65,1.43,1.64,3.69,2.44,5.63C165.18,135.12,165.71,134.62,165.59,134.33Z" transform="translate(-14.98 -11.41)"/><path class="cls-1" d="M165.69,138.18c-0.29-.61-0.48-1.25-0.75-1.87a6.24,6.24,0,0,0-1.11-1.64,7.34,7.34,0,0,0-3.18-2.29c-0.28-.09-0.68.54-0.36,0.64a7.09,7.09,0,0,1,3.08,2.22,5.87,5.87,0,0,1,1.07,1.63c0.25,0.59.44,1.2,0.72,1.78C165.3,139,165.83,138.46,165.69,138.18Z" transform="translate(-14.98 -11.41)"/><path class="cls-1" d="M163.84,138.49a20.88,20.88,0,0,0-3.54-5.15c-0.23-.22-0.7.35-0.47,0.57a20.41,20.41,0,0,1,3.46,5C163.47,139.27,164,138.76,163.84,138.49Z" transform="translate(-14.98 -11.41)"/><path class="cls-1" d="M160.7,136c-0.18-.25-0.67.31-0.47,0.57,1.47,2,1.21,4.59,1.21,6.95,0,0.39.58,0,.58-0.33C162,140.75,162.24,138.1,160.7,136Z" transform="translate(-14.98 -11.41)"/><path class="cls-1" d="M158.93,146.73a1.25,1.25,0,0,1-1.36.87,4.07,4.07,0,0,0-1.5.47c-1.3.71-2.21,2-3.52,2.7a12.68,12.68,0,0,1-2,.74c-0.74.24-1.47,0.53-2.22,0.76a11.63,11.63,0,0,0-2.1.77,14.44,14.44,0,0,1-1.62.92c0-.17-0.26-0.24-0.45,0a1.37,1.37,0,0,0-.24.36c-0.09.2-.07,0.44,0.19,0.4a6.54,6.54,0,0,0,2-1,13.15,13.15,0,0,1,2.61-.95c0.81-.26,1.6-0.56,2.4-0.82a8.14,8.14,0,0,0,2-.87c1.31-.85,2.33-2.42,3.9-2.74a5.43,5.43,0,0,0,1.49-.29,2.23,2.23,0,0,0,1-1.3C159.64,146.26,159,146.41,158.93,146.73Z" transform="translate(-14.98 -11.41)"/><path class="cls-1" d="M163.55,155.25c0-1.21,0-2.42,0-3.63,0-.34-0.39-0.32-0.59-0.22a0.94,0.94,0,0,0-.47.83c0,1.27.07,2.54,0,3.81s-0.36,2.27-.31,3.4c0,0.92.41,1.86,0,2.75s-1,1.43-1.37,2.19a4.61,4.61,0,0,0-.38,3,15.75,15.75,0,0,1,.07,3.43,14.51,14.51,0,0,1-.72,3.38,5.57,5.57,0,0,0-.27,3.1c0.19,0.73,1.2-.06,1.06-0.61a5.75,5.75,0,0,1,.45-3.29,13.2,13.2,0,0,0,.57-3.36,16.62,16.62,0,0,0-.09-3.25,3.89,3.89,0,0,1,0-1.66,4.65,4.65,0,0,1,.7-1.26,6.34,6.34,0,0,0,1.16-2.27,10.57,10.57,0,0,0-.14-2.74,10,10,0,0,1,.19-1.74A17.73,17.73,0,0,0,163.55,155.25Z" transform="translate(-14.98 -11.41)"/><path class="cls-1" d="M134.38,118.35l-0.14,0a0.19,0.19,0,0,0-.1-0.11c-0.89-.44-1.5-1.28-2.56-1.18-0.28,0-.6.69-0.23,0.66a2.74,2.74,0,0,1,1.81.78,15.19,15.19,0,0,1-1.91.17c-0.57,0-1.15-.06-1.72,0-0.66-.72-1.72-0.76-2.58-1-0.28-.09-0.68.54-0.36,0.64a12.24,12.24,0,0,1,1.9.54c-1.28.3-2.44-.48-3.7-0.55-0.29,0-.61.64-0.23,0.66,1.32,0.07,2.45.83,3.79,0.54h0.07a3.37,3.37,0,0,1,.72-0.13,0.2,0.2,0,0,0,.27,0c0.59,0,1.19.06,1.78,0,1,0,2-.22,2.95-0.32C134.44,119,134.75,118.31,134.38,118.35Z" transform="translate(-14.98 -11.41)"/><path class="cls-1" d="M134.42,122.31a10.55,10.55,0,0,0-1.63.84,7.15,7.15,0,0,1-1.84.73,31.07,31.07,0,0,0-3.92,1,0.68,0.68,0,0,0-.44.54c0,0.2.11,0.39,0.33,0.31a31.07,31.07,0,0,1,3.92-1,7.84,7.84,0,0,0,1.71-.62,15.32,15.32,0,0,1,1.76-.94C134.68,123,135,122.12,134.42,122.31Z" transform="translate(-14.98 -11.41)"/><path class="cls-1" d="M155,196.32c-1.86-.61-3.64.33-5.5,0.43a32.89,32.89,0,0,1-6.71-.1,21,21,0,0,1-6.1-2.24c-1.5-.75-3.9-1.37-4.32-3.35a0.32,0.32,0,0,0,0-.09,8.23,8.23,0,0,1,2.78,0,12.12,12.12,0,0,1,3,1.79c0.85,0.54,1.71,1.17,2.6,1.63a8,8,0,0,0,3.63.53c0.33,0,.71-0.77.27-0.77a7.25,7.25,0,0,1-3.73-.64c-1-.57-2-1.22-2.89-1.87a7.71,7.71,0,0,0-2.73-1.48,15.48,15.48,0,0,0-3.22,0c-0.33,0-.71.77-0.27,0.77h0.11a0.52,0.52,0,0,0-.21.45c0.4,1.9,2.13,2.52,3.61,3.23a27.61,27.61,0,0,0,6.32,2.58,27.28,27.28,0,0,0,6.82.3,15.65,15.65,0,0,0,3-.39,5.47,5.47,0,0,1,3.12-.1C155,197.17,155.42,196.44,155,196.32Z" transform="translate(-14.98 -11.41)"/><path class="cls-1" d="M167.47,194.51a3.46,3.46,0,0,1-2.28-.28A4.83,4.83,0,0,0,163,194c-1.66.22-3.24,0.9-4.93,0.9-0.33,0-.71.77-0.27,0.77,1.76,0,3.4-.74,5.13-0.92a5.61,5.61,0,0,1,2.37.38,3.11,3.11,0,0,0,2.07.1C167.69,195.13,167.93,194.34,167.47,194.51Z" transform="translate(-14.98 -11.41)"/><path class="cls-1" d="M164.33,203.9a12.19,12.19,0,0,0-6,.46,14.3,14.3,0,0,1-3.47.64,9.8,9.8,0,0,1-3.49-.66c-2.09-.72-4.26-1.23-6.38-1.84a14.86,14.86,0,0,1-5.69-2.63,13.86,13.86,0,0,1-1.27-1.23,8,8,0,0,0-1.16-1.2,4.47,4.47,0,0,0-2.77-.58c-0.33,0-.71.78-0.27,0.77a3.82,3.82,0,0,1,2.69.64c0.77,0.66,1.37,1.54,2.15,2.21a14,14,0,0,0,5.33,2.61c2.1,0.62,4.22,1.16,6.31,1.8a17.28,17.28,0,0,0,3.08.84,10,10,0,0,0,3.14-.17c1.2-.25,2.36-0.66,3.56-0.9a9.06,9.06,0,0,1,3.81,0C164.25,204.72,164.7,204,164.33,203.9Z" transform="translate(-14.98 -11.41)"/><path class="cls-1" d="M162,200.79a25.17,25.17,0,0,1-3,.6,17.5,17.5,0,0,1-3.17-.83,4.71,4.71,0,0,0-2.61.22,4.22,4.22,0,0,1-2.79.45c-0.33-.12-0.79.61-0.42,0.75a3.83,3.83,0,0,0,2.59-.27,5,5,0,0,1,3-.36,19.17,19.17,0,0,0,2.92.8c1.12,0.09,2.16-.47,3.25-0.59C162,201.52,162.39,200.75,162,200.79Z" transform="translate(-14.98 -11.41)"/><path class="cls-1" d="M146.22,205c-0.63-.76-1.74-0.45-2.58-0.63-1.21-.26-2.36-0.78-3.57-1.07a16.86,16.86,0,0,1-5.83-3.21c-0.31-.22-0.84.46-0.55,0.67a18.08,18.08,0,0,0,5.57,3.18c0.56,0.16,1.13.26,1.69,0.44s1.17,0.43,1.77.6a6,6,0,0,0,1.46.25,1.77,1.77,0,0,1,1.5.43C145.91,206,146.47,205.3,146.22,205Z" transform="translate(-14.98 -11.41)"/><path class="cls-1" d="M157.86,206.56a19.63,19.63,0,0,1-2.29-.31,13.83,13.83,0,0,0-2.43.12c-0.82.08-1.64,0.19-2.45,0.31s-1.43.32-2.15,0.46c-1.72.33-3-.81-4.67-1.05-1.45-.21-2.76.64-4.18,0.8-0.33,0-.7.82-0.27,0.77,1.48-.17,2.92-1.12,4.43-0.75s2.72,1.26,4.31,1c0.73-.11,1.43-0.35,2.16-0.47s1.7-.24,2.55-0.32a14.8,14.8,0,0,1,2.33-.13c0.81,0,1.57.35,2.39,0.32C157.93,207.31,158.3,206.54,157.86,206.56Z" transform="translate(-14.98 -11.41)"/><path class="cls-1" d="M163.73,205.61c-1-.43-2,0.56-2.76,1.08a12.2,12.2,0,0,0-2.64,2.09c-0.35.4,0.06,0.78,0.4,0.38a10,10,0,0,1,2.15-1.7c0.65-.43,1.65-1.44,2.43-1.1C163.63,206.49,164.1,205.77,163.73,205.61Z" transform="translate(-14.98 -11.41)"/><path class="cls-1" d="M163.87,207.32a5.25,5.25,0,0,0-2.28,1.23,11.54,11.54,0,0,1-2.73,1.73,20.27,20.27,0,0,1-6.69,1.11,41.18,41.18,0,0,1-13.66-1.09c-2.32-.65-4.58-1.62-7-1.72-0.33,0-.71.75-0.27,0.77,2.26,0.09,4.4,1,6.56,1.61a32.68,32.68,0,0,0,6.52,1.13,51.22,51.22,0,0,0,6.9.1,26.33,26.33,0,0,0,6.69-.87,10.86,10.86,0,0,0,3-1.5,7.75,7.75,0,0,1,2.87-1.77C164.11,208,164.37,207.22,163.87,207.32Z" transform="translate(-14.98 -11.41)"/><path class="cls-1" d="M132.55,210.94c-1.59,1.22-3.56-.46-5.16-0.85-0.34-.08-0.79.66-0.42,0.75,2,0.48,3.86,2.16,5.82.65C133.15,211.2,133,210.59,132.55,210.94Z" transform="translate(-14.98 -11.41)"/><path class="cls-1" d="M141.44,217.24c-1.25.33-2.52,0.18-3.78,0.39s-2.4.77-3.65,0.94a7.17,7.17,0,0,1-3.89-.73c-1.06-.5-1.94-1.46-3.11-1.67-0.53-.1-1.24,1.06-0.66,1.17,1.2,0.22,2.1,1.21,3.19,1.71a7.74,7.74,0,0,0,4,.73c1.24-.16,2.4-0.69,3.63-0.93s2.72-.09,4.06-0.45C141.8,218.27,142.2,217,141.44,217.24Z" transform="translate(-14.98 -11.41)"/><path class="cls-1" d="M157.87,216.56a15.16,15.16,0,0,1-6.94,1.83c-1.71,0-3.77-.66-5.27.5-0.57.44-.31,1.39,0.39,0.85s1.78-.31,2.54-0.24a17.62,17.62,0,0,0,3,0A16.15,16.15,0,0,0,158,217.6C158.52,217.31,158.64,216.15,157.87,216.56Z" transform="translate(-14.98 -11.41)"/><path class="cls-1" d="M165.53,222.56c-1.62.16-2.61,1.79-4,2.43a12.22,12.22,0,0,1-2.63.84,8.53,8.53,0,0,1-3.17-.14c-1-.18-2-0.28-3-0.5a9.51,9.51,0,0,0-2.74-.39c-1.65.12-2.87,1.45-4.18,2.37a4.58,4.58,0,0,1-2.92.89,9.5,9.5,0,0,1-3-1c-0.5-.22-1.24.92-0.66,1.17,1.69,0.74,3.28,1.38,5.11.77s2.82-2.08,4.42-2.78a4.34,4.34,0,0,1,2.71,0c0.95,0.21,1.89.37,2.84,0.51a18.51,18.51,0,0,0,3.13.41,9.34,9.34,0,0,0,2.75-.56,9.12,9.12,0,0,0,2.57-1.22c0.72-.54,1.42-1.51,2.35-1.6a0.89,0.89,0,0,0,.7-0.61C165.89,222.92,165.85,222.53,165.53,222.56Z" transform="translate(-14.98 -11.41)"/><path class="cls-1" d="M157.14,228.11c-2,0-3.89-1-5.79-.15-1.53.71-2.58,2.13-4.21,2.64s-3.46.67-5.17,1.06c-2.06.47-4.13-.2-6.19-0.24-0.53,0-1.12,1.19-.42,1.21,2,0,4,.64,6,0.28,0.91-.16,1.8-0.4,2.72-0.54a24.13,24.13,0,0,0,2.54-.5,7.12,7.12,0,0,0,2.23-1c0.69-.48,1.31-1.09,2-1.54,1.83-1.15,3.88,0,5.83,0C157.25,229.32,157.84,228.12,157.14,228.11Z" transform="translate(-14.98 -11.41)"/><path class="cls-1" d="M139.77,105.5a2.42,2.42,0,0,0-.94-1c-0.26-.14-0.67.47-0.36,0.64a2,2,0,0,1,.76.82C139.39,106.28,139.92,105.77,139.77,105.5Z" transform="translate(-14.98 -11.41)"/><path class="cls-1" d="M109,153.1c-0.29.9-1.51,1.3-2.31,1.41a0.73,0.73,0,0,0-.57.5c-0.05.18,0,.52,0.23,0.49a4.07,4.07,0,0,0,3.45-2.41C110,152.37,109.12,152.6,109,153.1Z" transform="translate(-14.98 -11.41)"/><path class="cls-1" d="M129.49,167.47c-1.22.31-1.72,1.31-2.5,2.23-1,1.15-2.64.86-3.8,1.74a5.68,5.68,0,0,0-1.33,1.51c-0.39.62-.63,1.33-1,2a3.7,3.7,0,0,1-2.67,1.38c-0.44.09-.76,1.09-0.13,1a5.41,5.41,0,0,0,2.8-1.21c1-.93,1.23-2.33,2.08-3.34,1.05-1.24,2.69-.91,3.9-1.84,0.94-.72,1.36-2.13,2.54-2.43C129.79,168.32,130.12,167.32,129.49,167.47Z" transform="translate(-14.98 -11.41)"/><path class="cls-1" d="M121.91,208.05c-1.57.36-3.15,0.57-4.71,1-0.84.23-1.68,0.44-2.53,0.63a0.33,0.33,0,0,0-.06-0.24,5.89,5.89,0,0,0-4.22-2c-0.38,0-.81.88-0.31,0.88a5.55,5.55,0,0,1,3.61,1.57l-1,.18c-0.74.12-1.49,0.28-2.24,0.42a0.25,0.25,0,0,0-.14-0.34,11.74,11.74,0,0,0-2.2-.07,6.86,6.86,0,0,1-2.36-1.07,8.55,8.55,0,0,1-3.52-3.39c-0.21-.43-0.91.25-0.73,0.62a8.78,8.78,0,0,0,3.53,3.48,12.74,12.74,0,0,0,1.85,1c-1.07-.09-2.13-0.29-3.19-0.35-0.38,0-.82.85-0.31,0.88,1.48,0.09,2.94.43,4.42,0.41a34.94,34.94,0,0,0,4.78-.73,39.41,39.41,0,0,0,4.42-1c1.59-.44,3.21-0.66,4.82-1C122.18,208.81,122.47,207.92,121.91,208.05Z" transform="translate(-14.98 -11.41)"/><path class="cls-1" d="M119.26,205.4a12.4,12.4,0,0,1-1.17,1c-0.43.26-.89,0.44-1.32,0.7s-0.46,1.09.08,0.76,1-.49,1.47-0.79,0.8-.67,1.21-1S119.77,205,119.26,205.4Z" transform="translate(-14.98 -11.41)"/><path class="cls-1" d="M114.35,249.61a1.72,1.72,0,0,0-1.65-.65,8.41,8.41,0,0,0,.08-0.84c0-.62,0-1.23,0-1.85a3.32,3.32,0,0,0,1-.05c0.29-.07.5-0.74,0.09-0.63a3.51,3.51,0,0,1-1,0,28.3,28.3,0,0,1,.47-3.16,1.31,1.31,0,0,0,0-.87,1.16,1.16,0,0,0-1-.36,22.16,22.16,0,0,0-3.36.32c-0.73.07-1.46,0.12-2.18,0.17a5,5,0,0,0-.79-2.82c-0.18-.25-0.66.3-0.47,0.57a4.22,4.22,0,0,1,.68,2.29,29.16,29.16,0,0,0-3.7.45,2.79,2.79,0,0,0-1.14-1.31c-0.26-.14-0.67.47-0.36,0.64a2.18,2.18,0,0,1,.81.83l-0.33.08a26.2,26.2,0,0,0-3.24,1.25c-0.29-.4-0.63-0.76-0.95-1.17-0.19-.25-0.67.31-0.47,0.57s0.49,0.58.73,0.87a9.46,9.46,0,0,0-1.14.46,4.21,4.21,0,0,1-.63.37,1.16,1.16,0,0,1-.5,0,0.37,0.37,0,0,0-.4-0.13l-0.15.06c-0.48.05-1,1.06-.48,1.19,0,0.29.13,0.56,0.18,0.86a8.16,8.16,0,0,1,.1,1.92c0,0.66-.07,1.31-0.07,2a5.28,5.28,0,0,0-1.68.06c-0.28.09-.5,0.76-0.09,0.63a3.86,3.86,0,0,1,1.35,0h0.43c0,0.29,0,.58.06,0.86a19.7,19.7,0,0,0,.33,2,5.61,5.61,0,0,1-1.7.27c-0.29,0-.61.66-0.23,0.66a6,6,0,0,0,2.06-.37q0.09,0.38.19,0.76a6.46,6.46,0,0,1,.35,1.41,6.5,6.5,0,0,0,0,1.14c0.15,0.73.9,0.6,1.45,0.54a6.8,6.8,0,0,0,1.62-.39,8.38,8.38,0,0,1,.21,2.41c0,0.46.55,0.14,0.58-.18A9,9,0,0,0,99.3,258l0.46-.21c0.89-.43,1.74-1,2.63-1.37a5.85,5.85,0,0,1,.76-0.29c0,0.11.09,0.23,0.13,0.35a19.39,19.39,0,0,0,.49,2.48c0.15,0.32.68-.18,0.54-0.47a20,20,0,0,1-.51-2.53c0.54-.12,1.09-0.21,1.65-0.34s0.82-.17,1.23-0.23c0.2,0.68.36,1.38,0.56,2.06,0.1,0.33.63-.16,0.54-0.47-0.17-.56-0.31-1.13-0.46-1.69a20.28,20.28,0,0,0,4-.75,1.49,1.49,0,0,0,1.12-1.63,7.54,7.54,0,0,1-.08-1.4c0.05-.59.16-1.18,0.25-1.77v-0.1a1.29,1.29,0,0,1,1.2.47C114,250.38,114.52,249.86,114.35,249.61Zm-2-6.94a11,11,0,0,0-.26,1.51c-0.05.52-.14,1-0.22,1.56a13.52,13.52,0,0,1-2.4-.06c-0.29,0-.61.66-0.23,0.66a13.87,13.87,0,0,0,2.38.07l0.16,0a9.21,9.21,0,0,0-.08,1.07c0,0.57,0,1.12-.07,1.66l-0.39.07a3.34,3.34,0,0,0-2.88,1.77c-0.2.45,0.4,0.3,0.54,0,0.43-1,1.68-1,2.54-1.16l0.13,0c0,0.28-.07.56-0.11,0.84a6.44,6.44,0,0,0-.12,2.74v0l-0.29.1c-0.42.11-.84,0.25-1.27,0.34-0.92.2-1.86,0.19-2.79,0.33a7.32,7.32,0,0,0-.8-1.67c-0.2-.3-0.71.21-0.54,0.47a6.86,6.86,0,0,1,.67,1.31,21,21,0,0,0-3,.71,4.59,4.59,0,0,0-1.08-1.19c-0.26-.2-0.72.38-0.47,0.57a4.4,4.4,0,0,1,.85.87,11,11,0,0,0-1,.48c-0.78.41-1.64,1-2.54,1.34a17.55,17.55,0,0,0-.84-2.23c-0.15-.32-0.67.18-0.54,0.47a18.09,18.09,0,0,1,.77,2,3.75,3.75,0,0,1-1.53.18c-0.22,0-.18,0-0.24-0.16a1.88,1.88,0,0,1,0-.52,3.42,3.42,0,0,0-.13-1.14q-0.21-.71-0.38-1.42c0.16-.11.32-0.22,0.48-0.35s0.16-.77-0.21-0.46c-0.13.1-.26,0.2-0.39,0.29-0.11-.51-0.21-1-0.28-1.53,0-.34-0.08-0.68-0.1-1a7.06,7.06,0,0,0,2-.85c0.27-.18.34-0.82-0.06-0.57a6.52,6.52,0,0,1-2,.82c0-.67,0-1.34,0-2a12.1,12.1,0,0,0,0-1.75,5.26,5.26,0,0,0-.16-0.75l0.1,0a9,9,0,0,0,1.21-.6l1.36-.58,0.07,0.15a4.24,4.24,0,0,1,.28,2.67c-0.1.44,0.51,0.12,0.58-.18a4.54,4.54,0,0,0-.24-2.76l-0.06-.15,0.71-.29a16,16,0,0,1,2.8-.84,6.22,6.22,0,0,1,.22,1.82c0,0.46.56,0.14,0.58-.18a7,7,0,0,0-.16-1.76c0.85-.15,1.71-0.24,2.57-0.31l0.77-.05c0,0.38,0,.76,0,1.11s0.58,0,.58-0.33,0-.54,0-0.82l1.65-.12c1-.09,2-0.32,3-0.34a3.4,3.4,0,0,0,.77,0h0.08A2.23,2.23,0,0,1,112.34,242.67Z" transform="translate(-14.98 -11.41)"/><path class="cls-1" d="M151.17,241.29c-5.61,0-10.66,3-15,6.58-0.55.45-.3,1.42,0.39,0.85,4.11-3.4,8.87-6.19,14.19-6.23C151.28,242.49,151.87,241.28,151.17,241.29Z" transform="translate(-14.98 -11.41)"/><path class="cls-1" d="M242,272.06a9.44,9.44,0,0,0-2.37-3.95c-0.16-.18-0.33-0.35-0.5-0.52a1.37,1.37,0,0,0,.29-0.32,9.62,9.62,0,0,0,1.16-6.52,16.5,16.5,0,0,0-2.39-6.79c-2.82-4.4-8.4-5.87-13.06-6.5A47,47,0,0,0,217,247c-3.08.13-6.08,1-9.12,1.45s-6.38.69-9.27-.66a14.94,14.94,0,0,1-3.86-2.79c-1.18-1.12-2.41-2.14-3.62-3.21a17.7,17.7,0,0,1-3.22-3.79,38.66,38.66,0,0,0-2.55-3.8,10.82,10.82,0,0,0-3.61-2.79,9.34,9.34,0,0,0-4.15-.87,0.7,0.7,0,0,0-.51.37l-1.07-2c1.86-2.5,2.38-5.87,3.22-8.86,0.52-1.83,1.14-3.6,1.58-5.46a52.76,52.76,0,0,0,1.05-6.16c0.68-6,1.59-12.11.83-18.13a16.41,16.41,0,0,0-3.1-8.29c-0.47-1.54-1.11-3-1.72-4.48a37.54,37.54,0,0,1-1.83-5.78c-0.89-3.85-1.15-7.91-2.59-11.59a28.65,28.65,0,0,0-2.36-4.57,0.83,0.83,0,0,0,.56-1,17.09,17.09,0,0,1-1.22-2.47,21.35,21.35,0,0,1-1-2.67,8,8,0,0,1-.13-3.2,8.67,8.67,0,0,0,.09-3l0-.17c0.51,0.26,1,.59,1.5.88a16.54,16.54,0,0,0,2.93,1.3,43.43,43.43,0,0,0,6.44,2.18,7.11,7.11,0,0,0,2.89,0,29.51,29.51,0,0,0,3-1,13.24,13.24,0,0,1,3.05-.71c1-.08,2,0.19,3,0.13,1.86-.12,3-1.8,4.64-2.45a0.78,0.78,0,0,0,.5-0.61c0-.23-0.13-0.44-0.37-0.34a8.42,8.42,0,0,0-2,1.16,6,6,0,0,1-2,1.17,11.37,11.37,0,0,1-2.83-.08,11.1,11.1,0,0,0-2.88.44c-2,.54-3.88,1.62-5.94,1.4a26.24,26.24,0,0,1-6.38-2,23.39,23.39,0,0,1-3.35-1.39,12.78,12.78,0,0,0-2.85-1.48l-0.2-.47a2.27,2.27,0,0,1,.32-2.2,2.46,2.46,0,0,0,.5-1.62,11.64,11.64,0,0,0-.25-1.43c0.24,0.21.49,0.42,0.72,0.63l0.51,0.47c0.14,0.27.29,0.54,0.44,0.8a0.33,0.33,0,0,0,.27.18,1.4,1.4,0,0,1,.09.32c0.1,0.74,1.14,0,1.06-.61a3,3,0,0,0-.89-1.61c-0.82-1.62-1.38-3.38-2.12-5a24.44,24.44,0,0,0-1.5-2.88,11.59,11.59,0,0,1-1.59-2.59,26.4,26.4,0,0,1-.31-2.66,3.31,3.31,0,0,0-.38-1.08,0.69,0.69,0,0,0,.1-0.53,7.27,7.27,0,0,0-.79-1.56,4.89,4.89,0,0,1-.67-1.79,12.76,12.76,0,0,1-.2-4.57h0a0.27,0.27,0,0,0,.19.06,5.26,5.26,0,0,1,1.61.31c-0.36.2-.64,0.9-0.15,0.94,3.82,0.27,6.24,4.36,8.67,7,0.32,0.35,1-.5.7-0.86-2-2.17-3.92-5.12-6.57-6.44,0.69,0.07,1.38.09,2.06,0.09,0.43,0,.91-1,0.34-1a12.86,12.86,0,0,1-3.45-.36,10.64,10.64,0,0,0-2.87-.68,0.37,0.37,0,0,0-.17,0,10.5,10.5,0,0,1,1.64-1.59,3.28,3.28,0,0,0,.91-1.5,3.39,3.39,0,0,1,.28-0.86,4.6,4.6,0,0,0,.4-0.74,0.45,0.45,0,0,0-.08-0.51,1.65,1.65,0,0,0,.32,0,5.41,5.41,0,0,0,1.36-.22,1.62,1.62,0,0,0,.06.64,4.22,4.22,0,0,0,2.69,2.31,5.57,5.57,0,0,0,2.39,0l1-.12a0.38,0.38,0,0,0-.09.29c0.29,1.38,2.16,1.58,3.23,1.56s2.83-.34,3.33-1.64a11.58,11.58,0,0,0,2.7.53,1,1,0,0,0,.83-0.72c0.09-.28,0-0.73-0.33-0.7a8.22,8.22,0,0,1-2.32-.47,23.67,23.67,0,0,0-2.65-.15,23.7,23.7,0,0,0-2.76-.23c-0.93,0-1.85.16-2.77,0.27a4.08,4.08,0,0,1-1.88,0,4.78,4.78,0,0,1-1.4-.84,3.31,3.31,0,0,1-.73-0.94h0c0.23,0,.46-0.16.7-0.22,1.24-.28,2.51-0.17,3.76-0.36a1.06,1.06,0,0,0,.83-0.72c0.09-.26,0-0.76-0.33-0.7-1.22.19-2.46,0.13-3.69,0.34-0.07-.22-0.27-0.33-0.63-0.15a11,11,0,0,1-1.84.68,1.83,1.83,0,0,1-1.4.08,2.2,2.2,0,0,1-.51-1c-0.13-.33-0.27-0.66-0.42-1-0.64-1.38-1.79-3.36-3.4-2.15-0.68.51-.38,1.63,0.46,1,0.35-.27,1.11.93,1.23,1.14a13.84,13.84,0,0,1,1,2.07,2.11,2.11,0,0,0,1,1.32,0.52,0.52,0,0,0-.2.07,3.46,3.46,0,0,1-2.61,0,18.61,18.61,0,0,1-2.43-.78,12.86,12.86,0,0,1-4.63-2.73,5.28,5.28,0,0,0-1.33-1.3c-0.7-.34-1.18.24-1.74,0.58-1.32.78-3.13-.75-4.09-1.6a0.33,0.33,0,0,0-.15-0.08,7.21,7.21,0,0,0-1.69-1.42,10.65,10.65,0,0,0-1.86-1.46,17,17,0,0,0-2.75-.65A21.41,21.41,0,0,1,141,96.67c-0.5-.22-1.24.91-0.66,1.17A25,25,0,0,0,142.78,99L143,99.05l0,0.07a9.83,9.83,0,0,0-.06,1.94,3.31,3.31,0,0,1-1.87,1.92,27,27,0,0,1-4.36,1.8,17,17,0,0,1-4.72.89,23,23,0,0,1-5.2.11,0.9,0.9,0,0,0,0-.22c0-.26,0-0.52,0-0.79a1.65,1.65,0,0,0,0-.33v0a0.9,0.9,0,0,0,.41-0.78,0.31,0.31,0,0,0-.25-0.29v-0.05c-0.52-2-2.28-2.73-4-3.25a23.16,23.16,0,0,0-6.68-.91c-2.36,0-4.72.14-7.07,0.16A69.67,69.67,0,0,1,102,99a18.43,18.43,0,0,1-3.8-.76c-1-.32-2.41-0.67-3.06-1.64A0.3,0.3,0,0,0,95,96.53c1.73-1.4,3.52-2.72,5.75-2.72a0.6,0.6,0,0,0,.43-0.29c0,1,.1,1.93.11,2.9,0,0.46.68,0,.68-0.39,0-1.49-.21-3-0.18-4.46a7.8,7.8,0,0,0-.24-2.94,1.7,1.7,0,0,0-.71-0.91,1.33,1.33,0,0,0-.37-0.08h0a1.58,1.58,0,0,1-.1-0.46c-0.11-1.08,1.05-3.58,2.11-2,0.24,0.35.83-.25,0.63-0.54-0.82-1.2-1.93-.71-2.65.35a4.51,4.51,0,0,0-.75,2,1.77,1.77,0,0,0,.28,1.47,1.5,1.5,0,0,0,.35,0,1.22,1.22,0,0,1,.57.69,5.27,5.27,0,0,1,.24,2.06c0,0.55,0,1.1,0,1.65H101.1c-3.46,0-5.86,2.82-8.56,4.72-0.21.15-.58,0.58-0.3,0.86s0.6,0.4.85,0.68,0.64,0.75,1,1.11a7.72,7.72,0,0,1,1.53,2.38,23.11,23.11,0,0,1,1.28,5.49c0.47,3.48-.68,7.35-3.62,9.18a22,22,0,0,0-2.38,1.57c-0.59.49-1.15,1-1.75,1.51-0.06-.15-0.23-0.21-0.48,0a23.89,23.89,0,0,0-2.53,1.76,9.88,9.88,0,0,0-1.37,2.49c-0.1.18-.14,0.55,0.15,0.55l0.39,0c-0.19.25-.25,0.62,0.08,0.65,1,0.09,2.62,1.56,2.55,2.76,0,0.61.74,0.19,0.77-.23a3.7,3.7,0,0,0-2.52-3.3c1-.2,1.94-0.55,2.93-0.71a12.3,12.3,0,0,1,2.18-.2,11.06,11.06,0,0,1,2.47.42c3,0.73,6.08,1.12,8.66,3.08A11.57,11.57,0,0,1,104,129c0.53,0.59,1,1.26,1.49,1.85a8.29,8.29,0,0,1,2.27,3.34,82.28,82.28,0,0,1,2.55,9.95c0.07,0.45.13,0.91,0.19,1.36a0.37,0.37,0,0,0-.53-0.08c-3.34,2.1-5.94,5.27-8.3,8.5l-0.07.11a5.19,5.19,0,0,0-1.27-1.29c-0.48-.37-1-0.69-1.48-1-0.72-.51-1.4-1.09-2.12-1.59a16.13,16.13,0,0,0-5.23-2,16.67,16.67,0,0,0-5.58-.65c-1.15.08-2.28,0.17-3.43,0.14s-2.39-.13-3.59-0.18H78.87a2.05,2.05,0,0,0-.32-0.43,3.28,3.28,0,0,0,1.74-.64,5.32,5.32,0,0,0,1.43-2.17c0.43-1,.72-2,1.05-3.06a12.23,12.23,0,0,1,1.35-2.8c1.26-2,2.61-3.86,3.79-5.89s2.09-4.26,3.61-6c0.4-.46-0.07-0.89-0.46-0.43a31.42,31.42,0,0,0-3.3,5.43c-1.1,2-2.31,3.84-3.57,5.68a14.71,14.71,0,0,0-2.49,5.18,14.11,14.11,0,0,1-1.08,2.7,2.39,2.39,0,0,1-2.39,1.17,0.67,0.67,0,0,0-.49.46c-0.27.16-.5,0.65-0.2,0.83,0.94,0.56.94,1.57,0.81,2.59a7.59,7.59,0,0,0-.07,2.79,0.36,0.36,0,0,0,.1.55l-0.06,0a1,1,0,0,0-.47.83,18.3,18.3,0,0,1-2.9,10.28c-0.55.77-1.21,1.44-1.82,2.16a10.69,10.69,0,0,0-1.77,2.44,4.77,4.77,0,0,0-.28,2.15c0,0.9,0,1.81.13,2.7a4.9,4.9,0,0,0,.77,2,2.18,2.18,0,0,0,1.5,1.23,0.73,0.73,0,0,0,.55-0.33A3.8,3.8,0,0,0,75.55,179a1.66,1.66,0,0,0,1.78.17l0.07,0.25a18.15,18.15,0,0,0,2.72,5,34.25,34.25,0,0,0,8.53,8.48,35.59,35.59,0,0,0,5.87,3.2,0.35,0.35,0,0,0,.2,0,18.11,18.11,0,0,0,2.13.39,8.89,8.89,0,0,1,2.32,1.15c1.36,0.93,2.43,2.24,3.73,3.25s2.86,2,4.32,2.93a13.79,13.79,0,0,0,3.79,2c1.55,0.4,3.16-.2,4.68-0.52a13.07,13.07,0,0,1,5.08-.18,9.48,9.48,0,0,1,3.75,1.87,7,7,0,0,0,3.2,1.56,1.44,1.44,0,0,0,1.77-1.57,2.64,2.64,0,0,0,.52.32,2.12,2.12,0,0,0,2.87-1.59c0.21-1.12-.57-2.11-1.24-3l0.22,0.09a0.94,0.94,0,0,0,1.17-.54,2.24,2.24,0,0,0-.24-2c-0.47-.76-1.18-1.32-1.59-2.13a8.58,8.58,0,0,1-.87-3.16,14.83,14.83,0,0,0-.11-1.57,0.42,0.42,0,0,0,0-.15,14.32,14.32,0,0,0-1.87-4.92,3.5,3.5,0,0,0-2.62-2,8.17,8.17,0,0,0-1.9,0l-3.14.29c-1.93.17-3.89,0.31-5.81,0.65a15.22,15.22,0,0,1-3.27.46,16.64,16.64,0,0,1-3.4-.64h0a0.31,0.31,0,0,0-.2-0.42c-0.73-.19-1.5-0.18-2.22-0.37a2.67,2.67,0,0,1-1.74-1.58,16.34,16.34,0,0,1-.93-5.3,20.77,20.77,0,0,0-1.23-6.19,23.09,23.09,0,0,0-1.5-2.73A18.41,18.41,0,0,0,98.75,168a5.34,5.34,0,0,0-1.54-1.33,14.09,14.09,0,0,0,2.09-4.85c0.45-1.74.59-3.88,2.19-4.87a0.37,0.37,0,0,0,.08.28,14.4,14.4,0,0,0,1.76,1.79,2.84,2.84,0,0,0,1.61.86c0.21,1.06-.12,2.14.27,3.19a18.57,18.57,0,0,0,1.76,3,27.29,27.29,0,0,0,1.89,2.71c0.35,0.44.63,0.94,1,1.34a4,4,0,0,0,1.14.66,2.21,2.21,0,0,0-.16,1.59,0.56,0.56,0,0,0,.64.28,1.72,1.72,0,0,1,1,.42c-0.76.72-1.7,1.33-1.92,2.45-0.27,1.32.44,2.66,0.64,3.93a1.28,1.28,0,0,1-.19,1.31,10.86,10.86,0,0,0-1.58,1.55c-0.94,1.33-.87,2.95-0.87,4.53,0,0.28.32,0.26,0.48,0.18a0.77,0.77,0,0,0,.39-0.68,13.2,13.2,0,0,1,.09-2.39,3.26,3.26,0,0,1,1.24-2l0.37-.32c-0.08.28,0,.52,0.32,0.52A21.18,21.18,0,0,0,122,179.14a1,1,0,0,0,.52-0.9,0.39,0.39,0,0,0-.64-0.24,20,20,0,0,1-10,2.88h-0.06a2.07,2.07,0,0,0,.29-1.24c-0.07-1.28-.65-2.44-0.74-3.71a2.19,2.19,0,0,1,1-1.79,0.25,0.25,0,0,0,.25.35,2.69,2.69,0,0,0,2.16-.64c0.73-.72,1.12-1.75,1.87-2.46a17.82,17.82,0,0,1,3.19-1.86,9.08,9.08,0,0,0,2.25-2.41c0.42-.54-0.1-1-0.52-0.49a7.28,7.28,0,0,1-2.2,2.25,16.69,16.69,0,0,0-2.73,1.55,8.42,8.42,0,0,0-1.67,2,2.42,2.42,0,0,1-.85,1,2.38,2.38,0,0,1-1,.09,4.11,4.11,0,0,0,.32-0.33,0.54,0.54,0,0,0,.09-0.67,2.78,2.78,0,0,0-1.53-.83c-0.26,0-.31,0-0.28-0.26a6.19,6.19,0,0,0,3.74-1.61c1.27-1,2.37-2.17,3.61-3.19,2.1-1.73,5.46-2.29,6.45-5.26,0.24-.7-0.64-0.48-0.8,0a5.27,5.27,0,0,1-2.76,2.61,20.85,20.85,0,0,0-3.21,1.94c-1.1.91-2.1,2-3.2,2.86a5.6,5.6,0,0,1-3.55,1.64,0.36,0.36,0,0,0-.06-0.37,9.72,9.72,0,0,1-1.24-.69,11.6,11.6,0,0,1-.94-1.24,30.47,30.47,0,0,1-2-2.91,15.59,15.59,0,0,1-1.69-2.94,13.65,13.65,0,0,1-.19-2.81c2.48-1.38,5.18-3,6.69-5.63,0.37-.64-0.39-0.76-0.69-0.24-1.38,2.39-4,3.86-6.26,5.11a0.59,0.59,0,0,0-.18.17c-0.49.19-1.32-.7-1.65-1s-0.45-.42-0.66-0.64l0.12-.09c1.27-1.16,2.7-2.06,3.9-3.31a4.46,4.46,0,0,1,1.84-1.19,1.81,1.81,0,0,0,1-1,0.32,0.32,0,0,0,.31-0.07,0.41,0.41,0,0,0,.46-0.1c2.14-2.1,5.8-3.6,6-7.17,0-.69-0.83-0.21-0.86.26-0.17,2.6-2.72,4-4.61,5.45a12.26,12.26,0,0,0,.06-4.78,53.57,53.57,0,0,0-2.1-9.22c-0.49-1.63-.77-3.34-1.88-4.64-0.43-.5-0.9-0.95-1.33-1.45-0.57-.66-1-1.39-1.64-2-2.42-2.53-5.55-3.37-8.76-4.06a16.33,16.33,0,0,0-5.18-.7,16.61,16.61,0,0,0-2.59.48,14.34,14.34,0,0,1-2.2.49,4.31,4.31,0,0,1,1-1.76,11.94,11.94,0,0,1,1.43-1h0a0.29,0.29,0,0,0,.48.18,24.56,24.56,0,0,0,2.21-1.81,18.31,18.31,0,0,1,2.46-1.69,8.89,8.89,0,0,0,3.54-4.05c1.6-3.56,1.06-7.58,0-11.21a8.67,8.67,0,0,0-1.46-2.93c-0.37-.46-0.8-0.87-1.18-1.32A4.83,4.83,0,0,0,93.57,98l-0.2-.14,0.92-.74a0.33,0.33,0,0,0,0,.24,4.07,4.07,0,0,0,2,1.42,17.88,17.88,0,0,0,3.18,1,38.49,38.49,0,0,0,6.76.56c2.41,0,4.81,0,7.21-.11a31.28,31.28,0,0,1,6.78.32,16.34,16.34,0,0,1,3.55,1,3.6,3.6,0,0,1,2.22,2.28l0,0.09a2.48,2.48,0,0,0-.37,1.44l-0.05.12c-1.26,3.58,1.43,7.68,4,9.8,0.45,0.38,1.3-.68.86-1.05a12.75,12.75,0,0,1-3.06-3.87,11.4,11.4,0,0,1-.48-1,5.82,5.82,0,0,0,2.87-.09c1.09-.24,2.19-0.28,3.28-0.46,0.51-.09,1-0.24,1.51-0.35a11.37,11.37,0,0,1,1.89-.07,5.05,5.05,0,0,0,1.83-.47h0a2.7,2.7,0,0,0,1,1.63,5.51,5.51,0,0,0,1.7,1.37,2.1,2.1,0,0,0,2.83-3.08,5.06,5.06,0,0,0-2.82-1.66l0.12-.1,0.81-.64c0.15,0.13.49-.18,0.51-0.44a4.17,4.17,0,0,0,.5-0.56c1.1-1.5.72-3.44,0.68-5.2a14.94,14.94,0,0,1,1.74.37,5.94,5.94,0,0,1,1.88,1.38,13.49,13.49,0,0,1,1.53,1.15l-0.09.13a14.65,14.65,0,0,1-.63,1.62c-0.3.42-.65,0.81-1,1.22a4.47,4.47,0,0,0-1,2.43,4,4,0,0,0,.21,1.58l-0.16-.37a7.37,7.37,0,0,1-.8-2.09c-0.28-2.1.33-4.29,0.42-6.39,0-.84-1-0.26-1.06.32-0.05,1.27-.24,2.53-0.36,3.8a10.75,10.75,0,0,0,0,3.23,12.23,12.23,0,0,0,.93,2.27,2.54,2.54,0,0,0,1.43,1.7,0.74,0.74,0,0,0,.7-0.39,18.21,18.21,0,0,1,1.11,3c-0.37.15-.74,0.31-1.11,0.46a16.17,16.17,0,0,1-3.83,1c-1,.17-2,0.45-3,0.68a3.87,3.87,0,0,0-2.2,1,0.48,0.48,0,0,0-.09.16h0a0.32,0.32,0,0,0,0-.25,2.18,2.18,0,0,0-1.86-1,16.45,16.45,0,0,1-3.23-.62c-0.28-.1-0.68.52-0.36,0.64a12.79,12.79,0,0,0,2.86.58c0.61,0.07,1.64.11,2,.76-0.38.08-.77,0.14-1.19,0.2a2.13,2.13,0,0,0-1.56.84c-0.85,1.3.57,3.44,2,3.2a1.54,1.54,0,0,0,1.19-1.25c0.09-.35.1-0.72,0.2-1.06a1.15,1.15,0,0,1,1-.74c0.39-.09.78-0.14,1.17-0.24a8.46,8.46,0,0,0,1.42-.56,12.6,12.6,0,0,1,3.7-1,9.71,9.71,0,0,0,3.3-.68c0.48-.24.92-0.52,1.37-0.75a0.92,0.92,0,0,0,.05.24,0.89,0.89,0,0,0-.66,1,5.15,5.15,0,0,0,2.5,2c1.25,0.61,2.56,1.08,3.82,1.67,1.42,0.66,2.81,1.41,4.22,2.09s2.7,1.52,4.12,2.09a0.57,0.57,0,0,0,.58-0.22,10.54,10.54,0,0,0,.18,1.62,7.26,7.26,0,0,0,1.35,2.43,21.4,21.4,0,0,1,1.53,2.73c0.43,0.89.79,1.83,1.15,2.76l0,0a0.4,0.4,0,0,0-.56,0,0.86,0.86,0,0,0-.79.9q0.21,0.85.39,1.71a5.87,5.87,0,0,1,.27,1.42,1.34,1.34,0,0,1-.28.65,5.7,5.7,0,0,0-.58,1.23c-0.49,1.58.58,2.62,0.84,4.08a11.85,11.85,0,0,1-.2,3.19,8.22,8.22,0,0,0,.22,2.86,20.63,20.63,0,0,0,1,2.68c0.18,0.43.36,0.86,0.56,1.28a1.33,1.33,0,0,0-.25.29,4,4,0,0,0-.23.45,0.86,0.86,0,0,0-.07.15,16.57,16.57,0,0,0-.65,4.5c-0.25,2.45-.47,4.89-0.8,7.34-0.3,2.29-.44,4.66-1.42,6.75a42.27,42.27,0,0,0-2.48,6.32,25.1,25.1,0,0,0-.5,2.53,4,4,0,0,1-.92,2.35c-0.46.39-.35,1.13,0.1,1a3.58,3.58,0,0,0-1.39,1.47c-0.63,1.18-.67,2.64-1.4,3.76a0.68,0.68,0,0,0-.09.54,13,13,0,0,1-1.85.22c-1.25,0-2.53-.13-3.79-0.17A42.72,42.72,0,0,1,140,189c-2.25-.87-4.64-1.58-6.42-3.39l-0.08-.06,0.36-.65q0.33-.61.63-1.24a20.57,20.57,0,0,0,5.25.21,54.93,54.93,0,0,0,5.46-.64,27.26,27.26,0,0,1,5.5-.87,26.54,26.54,0,0,1,3.45.64,9.45,9.45,0,0,0,1.34.14,14.63,14.63,0,0,0-.68,1.49c-0.82,2-1.25,4.2-2.08,6.21a0.4,0.4,0,0,0,.28.59,0.88,0.88,0,0,0,.7-0.61c0.73-1.76,1.15-3.64,1.79-5.44a12.43,12.43,0,0,1,.86-2c0.07-.13.15-0.26,0.23-0.39a2.53,2.53,0,0,0,1.18-.65c0.26-.26.59-1,0-1a1.7,1.7,0,0,0-1.45.59,5.35,5.35,0,0,1-.68,0,14.26,14.26,0,0,1-2.3-.38,15.39,15.39,0,0,0-1.94-.37,11,11,0,0,0-3,.26c-1.08.2-2.15,0.48-3.23,0.66s-2.26.28-3.39,0.41a23,23,0,0,1-6.81,0,45.82,45.82,0,0,0,1.56-4.64,72.9,72.9,0,0,0,2.13-8c0.47-2.8.64-5.64,1.11-8.44,0.52-3.06,1.82-5.93,1.86-9.07a0.29,0.29,0,0,0,0-.16,19.81,19.81,0,0,0,.1-2c0-2.28,0-4.58-.11-6.85s-0.53-4.59-.71-6.9c-0.09-1.17-.11-2.34-0.27-3.5s-0.36-2.23-.57-3.33c-0.47-2.46-1.5-4.86-1.34-7.41,0-.58-0.65-0.23-0.74.12a21.32,21.32,0,0,1-3.25,7.05,13.24,13.24,0,0,1-2.27,2.58,2.8,2.8,0,0,1-2.24.84c1.23-3.6,3.91-6.36,5.62-9.68,0.3-.59-0.37-0.69-0.61-0.21-1.81,3.52-4.64,6.4-5.84,10.27a0.32,0.32,0,0,0,.12.42c2.15,0.77,4.26-1.84,5.42-3.41a23.17,23.17,0,0,0,3.1-5.72,36.39,36.39,0,0,0,.94,4.19,34.58,34.58,0,0,1,1.07,6.68c0.11,2.24.44,4.44,0.66,6.67s0.23,4.59.24,6.9a31.89,31.89,0,0,1-.08,3.42,1,1,0,0,0-.26.66c0,0.3,0,.6-0.05.9-0.27.83-.65,1.6-1,2.43-0.17.44,0.19,0.46,0.46,0.28-0.39,1.49-.88,3-1.17,4.48-0.53,2.79-.69,5.63-1.12,8.43a65.23,65.23,0,0,1-2.1,8.17,34.69,34.69,0,0,1-2.72,7.15c-1.17,2.15-2.67,4.51-2.51,7.11,0,0.73,1.1,0,1.06-.61a8.63,8.63,0,0,1,1.34-4.51,15.43,15.43,0,0,0,5.72,3.11,40.7,40.7,0,0,0,7.08,2,52.32,52.32,0,0,0,7.53.77c1.34,0,2.69.17,4,.19a30.45,30.45,0,0,0,4-.51c1.43-.17,2.89.07,4.29-0.36a7,7,0,0,0,2.66-1.06,1.2,1.2,0,0,0,.27-0.36,4,4,0,0,1-.12,3.64,6.61,6.61,0,0,0-1.18,3,3.46,3.46,0,0,0,0,.49c-3,.8-6,1.77-9.13,1.7-0.33,0-.71.76-0.27,0.77,3.27,0.07,6.4-1,9.55-1.8a4.12,4.12,0,0,0,.84,1.4,10.67,10.67,0,0,1-.66,2.6,24.23,24.23,0,0,0-.61,2.93,30.44,30.44,0,0,0-.39,3.11c-0.06,1,0,2.05-.17,3.06a3.93,3.93,0,0,1-.1.47,0.42,0.42,0,0,0,0-.2,0.43,0.43,0,0,0-.69,0,6.68,6.68,0,0,1-3,1.47c-1.16.31-2.34,0.64-3.52,0.84-2.83.49-5.63,0.09-8.47,0.11s-5.7.38-8.56,0.33-5.71-.23-8.54-0.46c-3.09-.25-6-1.33-9.12-1.61-0.52,0-1.12,1.14-.42,1.21,2.81,0.26,5.51,1.26,8.32,1.54s5.93,0.42,8.88.52,5.78-.27,8.67-0.31,5.84,0.37,8.76-.1a37.69,37.69,0,0,0,4-.94,7.75,7.75,0,0,0,3.39-1.73,1.42,1.42,0,0,0,.24-0.3,7.13,7.13,0,0,1-1.85,2.53,23.06,23.06,0,0,0-2.9,3,0.67,0.67,0,0,0-.11.82,0.57,0.57,0,0,0,.75-0.23,39.92,39.92,0,0,1,3.45-3.6,52.63,52.63,0,0,1,4.58,6.07,50,50,0,0,1,4.11,7c2.72,5.27,5.51,10.5,8.62,15.52a23.76,23.76,0,0,1,2.19,4.16c0.5,1.33.9,2.7,1.43,4a22.49,22.49,0,0,0,.79,3.36,0.74,0.74,0,0,0-.23.21,6,6,0,0,1-.69.76l-0.08-.1c-0.25-.28-0.56-0.48-0.79-0.78s-0.67.31-.47,0.57,0.51,0.56.76,0.84c-0.21.18-.42,0.37-0.62,0.56a11.44,11.44,0,0,1-1.31,1.07,3,3,0,0,0-1.08-1.44c-0.26-.14-0.67.47-0.36,0.64a2.5,2.5,0,0,1,.87,1.2l-0.29.2c-0.64.44-1.28,0.86-1.94,1.24a12.62,12.62,0,0,0-1.32-1.34c-0.24-.21-0.71.36-0.47,0.57a12.79,12.79,0,0,1,1.14,1.13l-0.86.45a1.6,1.6,0,0,1-1.06.37,0.82,0.82,0,0,0-.78.67,0.39,0.39,0,0,0,0,.36,10.33,10.33,0,0,1,1,2.36l0.07,0.18a4.66,4.66,0,0,0-1.63.76c-0.31.24-.17,0.76,0.21,0.46a4.29,4.29,0,0,1,1.62-.68,18.45,18.45,0,0,1,.58,2h-0.08a1.54,1.54,0,0,1-.94.08c-0.27-.17-0.72.41-0.47,0.57a2.88,2.88,0,0,0,1.6,0h0c0.2,0.94.39,1.89,0.52,2.85a2.84,2.84,0,0,1-.86-0.19c-0.26-.13-0.67.48-0.36,0.64a5.5,5.5,0,0,0,1.31.29,16.76,16.76,0,0,1,.1,2.12,0.23,0.23,0,0,0,.1.21,4.76,4.76,0,0,1,.66,1.41,7.11,7.11,0,0,1,.29.79,4.73,4.73,0,0,0,.19.8,0.34,0.34,0,0,0,.51.09,6.9,6.9,0,0,1,2.57-.91,14.82,14.82,0,0,0,.41,1.68c0.1,0.33.63-.16,0.54-0.47s-0.25-.88-0.34-1.34a17.46,17.46,0,0,1,1.74-.38,1,1,0,0,1,.16.48c0,0.15,0,.3,0,0.45s0.21,0.17.32,0.12a0.52,0.52,0,0,0,.26-0.45,4.31,4.31,0,0,0,0-.5,0.91,0.91,0,0,0,0-.12,2.64,2.64,0,0,1,.4.06h0.12c-0.1.6-.23,1.19-0.39,1.77a24.38,24.38,0,0,1-2.09,5,40.27,40.27,0,0,1-5.82,8.41c-1.48,1.63-3,3.23-4.46,4.88-0.66.74-1.32,1.45-2,2.14a11.6,11.6,0,0,0-1.73,2.07,0.68,0.68,0,0,0-.08.55c-0.24.61-1.66,0.67-2.25,0.71a29.55,29.55,0,0,1-3.38,0,42,42,0,0,1-4.54-.33,0.34,0.34,0,0,0,0-.16,7.91,7.91,0,0,0-1.35-3.1c-0.58-.9-1.07-1.86-1.66-2.75-1.06-1.64-2.42-2.91-4.37-3a0.37,0.37,0,0,0-.26.13,0.57,0.57,0,0,0-.5.57,10.05,10.05,0,0,0,.74,2.9,9,9,0,0,0,1.8,2.36c0.76,0.69,1.63,1.23,2.44,1.86l0.66,0.54a8.91,8.91,0,0,1-2.57-1.49,0.39,0.39,0,0,0-.42,0,0.44,0.44,0,0,0-.1-0.38,17.22,17.22,0,0,0-3.86-2.59,7,7,0,0,1-2.88-2.64,3.6,3.6,0,0,0,1.59-1.83,4.12,4.12,0,0,0,.21-1.71h0a0.81,0.81,0,0,0,.64-0.56c0.06-.2,0-0.58-0.26-0.54a4.61,4.61,0,0,0-.56.11l-0.07-.34c-0.65-3.19-1.19-6.38-1.65-9.61-0.25-1.72-.51-3.45-0.85-5.15a26,26,0,0,0-1.24-4.74c-1.08-2.66-3.09-4.71-4.72-7a23.92,23.92,0,0,0-3.27-3.89c-1-.88-2.35-1.46-2.94-2.74,1.1-.83,2.17-1.7,3.27-2.54a36.52,36.52,0,0,1,3.92-2.55c1.46-.84,2.94-1.66,4.44-2.43s3.12-1.45,4.7-2.13a8.29,8.29,0,0,0,3.4-2.1,4.47,4.47,0,0,0,.57-2.88c0-.34-0.39-0.32-0.59-0.22a1,1,0,0,0-.47.83c0,0.8.13,1.56-.54,2a17.15,17.15,0,0,1-3.61,1.75,68.6,68.6,0,0,0-7.82,4,39.76,39.76,0,0,0-3.69,2.34c-1.11.81-2.17,1.68-3.26,2.52-2.23,1.73-4.62,3.19-6.86,4.9-4.48,3.44-8.15,8.13-11.46,12.81-1.68,2.38-3.34,4.81-4.79,7.37a64.23,64.23,0,0,1-4.74,7.6c-1,1.31-2.06,2.59-3,3.92-0.76,1-1.35,2.47-2.61,2.87a13.47,13.47,0,0,1-2,.35c-0.73.11-1.45,0.29-2.17,0.44a25.07,25.07,0,0,1-4.73.64,5.69,5.69,0,0,0-.06-2.5c-0.11-.38-0.63,0-0.74.12a2.91,2.91,0,0,1-1.49,1.14,4,4,0,0,1-2.2-.22,8.16,8.16,0,0,1-3.7-3.2,15.68,15.68,0,0,1-2.52-4.68,18,18,0,0,0-1.71-4.66,0.34,0.34,0,0,0-.46-0.11,9,9,0,0,1,.69-3.64,11.87,11.87,0,0,1,2.75-3.44l0.46-.43c-0.07.61-.15,1.22-0.26,1.82s0.69,0.17.77-.23c0.15-.78.22-1.58,0.32-2.37a16,16,0,0,0,4.06-5.35,0.29,0.29,0,0,0-.2-0.43,0.63,0.63,0,0,0-.51.45A13.12,13.12,0,0,1,85.91,271c0-.17.07-0.35,0.11-0.52A19.53,19.53,0,0,1,87.47,267a14.45,14.45,0,0,0,1.16-3.3,29.25,29.25,0,0,0,.38-4.14c0.15-2.81.77-5.54,1.06-8.33s0.5-5.43,1-8.12a73.41,73.41,0,0,1,2.06-8.22,0.59,0.59,0,0,0,.28-0.35c0.33-1.25,1.3-2.16,1.74-3.35s0.52-2.73,1.22-3.93l0.05-.1,1.15-.47c1.11-.45,2.23-0.84,3.32-1.31s2-1,3-1.49c2-1,4.22-1.78,6.34-2.62a43,43,0,0,0,5.83-2.69,17.73,17.73,0,0,0,4.73-3.9,15.78,15.78,0,0,1,2.34-2.4,3.49,3.49,0,0,1,1.72-.64,2.74,2.74,0,0,0,1.28-.61c0.55-.44,1.16-1.17.67-1.89a6,6,0,0,0-1.8-1.48,0.3,0.3,0,0,0-.28,0c-0.07-.13-0.23-0.17-0.46,0a17.09,17.09,0,0,1-3.61,2.08c-1.34.64-2.66,1.32-4,1.9a46.63,46.63,0,0,1-8.35,2.72c-0.39.09-.68,1-0.11,0.85a47.28,47.28,0,0,0,8.76-2.9c1.32-.58,2.6-1.24,3.9-1.85a18.39,18.39,0,0,0,3.53-2h0a8.29,8.29,0,0,1,1.57,1.2c0.3,0.32.31,0.45,0,.74a2.68,2.68,0,0,1-1.44.49c-1.68.3-3,2.05-4.08,3.32a15.36,15.36,0,0,1-2,2,19.58,19.58,0,0,1-2.73,1.79,45,45,0,0,1-5.75,2.6c-1.89.74-3.82,1.4-5.65,2.3-1,.49-2,1.05-3,1.52s-2.07.84-3.11,1.25c-4.16,1.62-8.18,3.6-12.42,5A56,56,0,0,1,76,232.7a0.56,0.56,0,0,0,.05-0.24c2-1.42,4.23-2.27,6.19-3.69s4-2.92,5.94-4.52a41.3,41.3,0,0,0,5.05-5.35,19.53,19.53,0,0,0,3.69-6.18,26.1,26.1,0,0,0,1.18-8,4.77,4.77,0,0,1,2.08-1.34,12.42,12.42,0,0,1,3-.08c0.38,0,.81-0.87.31-0.88a10.12,10.12,0,0,0-3.57.21,7.17,7.17,0,0,0-2.62,2c-0.24.26-.18,0.5,0,0.59a25.7,25.7,0,0,1-.94,7,17.6,17.6,0,0,1-3.49,6.15A40.46,40.46,0,0,1,88,223.49c-1.82,1.55-3.8,2.88-5.68,4.34-2.11,1.64-4.64,2.52-6.78,4.13a0.54,0.54,0,0,0-.21.55l0,0a0.59,0.59,0,0,0-.05.08v0l-0.14.17h0L73.2,233c-1.55-5.61-1.95-11.5-4.08-16.95a54.8,54.8,0,0,0-7.55-14,46.43,46.43,0,0,0-5.48-5.68,19,19,0,0,0-5.29-3.69c-2.4-1-5-.89-7.48-1.14a47.76,47.76,0,0,0-9.26-.48A29,29,0,0,0,24.87,194c-2.73,1.25-5.88,1-8.5,2.57-0.32.19-.43,0.85-0.11,0.83,0,0.16.08,0.27,0.3,0.2,3.36-1.12,6.84,1.37,9.24,3.64A27.53,27.53,0,0,1,32.16,211a63.7,63.7,0,0,1,3.74,13.45c0.85,5.1.68,10.31,0.64,15.46q0,4.5.14,9c0,1.13.05,2.27,0.11,3.4a8.09,8.09,0,0,0,.28,2.05,20.17,20.17,0,0,0-3.85,5.43c-0.68,1.42-1.2,2.91-1.79,4.37-0.3.76-.69,1.47-1,2.21a14.16,14.16,0,0,1-1,2,0.52,0.52,0,0,0,0,.58c0,0.07,0,.13,0,0.2-0.29.26-.57,0.53-0.87,0.76a9.23,9.23,0,0,0-2.23,2,22.62,22.62,0,0,0-1.34,2.67,26.61,26.61,0,0,0-1.46,3.11c-0.42,1.15-.74,2.33-1.07,3.51-0.58,2.09-1.3,4.31-1,6.52,0.19,1.23.92,2.21,1.18,3.41a4.34,4.34,0,0,1-.81,3.62,0.69,0.69,0,0,0-.11.18,8.52,8.52,0,0,1-.71.58,4.64,4.64,0,0,0-.64.84c-0.48.76-.87,1.59-1.33,2.37q-1.36,2.3-2.48,4.75c-1.52,3.28-.64,6.8-0.27,10.25A6.28,6.28,0,0,0,18,317.71,12.09,12.09,0,0,0,19.69,319c0.75,0.49,1.46,1,2.2,1.54a60.84,60.84,0,0,0,9.45,4.76,31.54,31.54,0,0,0,5.59,2.14,9,9,0,0,0,2.61.28,11.24,11.24,0,0,0,1.34-.22,9.44,9.44,0,0,1,1.7-.09,0.32,0.32,0,0,0,.14,0c1.28,0.46,2.67-.15,3.87-0.71,2.58-1.22,5-3.36,5.39-6.54a9.45,9.45,0,0,0-1.43-5.67,7.52,7.52,0,0,0-1.71-2.13,3.72,3.72,0,0,0-2.71-.68,0.62,0.62,0,0,0-.52.75c0.32,0.69.75,1.28,1,2a18.16,18.16,0,0,1,.92,2.61,4.48,4.48,0,0,1-.39,2.5A4.31,4.31,0,0,1,46,321.62a16.12,16.12,0,0,1-1.85,1.15,7.43,7.43,0,0,1-2.27,1,3.18,3.18,0,0,1-2.07-.16,8.52,8.52,0,0,1-2-1.53,0.35,0.35,0,0,0-.48.09L36,320.78a13.45,13.45,0,0,1-1.71-1.95,8.29,8.29,0,0,1-.8-2.09c-0.27-.91-0.65-1.76-1-2.64a27.26,27.26,0,0,1-1.42-5.73A17.14,17.14,0,0,0,29.62,303l-0.06-.07a5.83,5.83,0,0,1,0-1.36c0-.59,0-1.18.09-1.76a15,15,0,0,1,.82-3.31,14.86,14.86,0,0,0,.83-3.19,19.73,19.73,0,0,0,0-3.39c-0.15-2.4-.41-4.79-0.59-7.19,0-.31,0-0.62,0-0.93a0.29,0.29,0,0,0,.22,0,21.55,21.55,0,0,0,3.31-1.13c1-.4,2.08-0.69,3.09-1.11a30.41,30.41,0,0,0,3-1.51A15.85,15.85,0,0,1,42.7,277v0.05c1.61,3.75,4.8,6.11,7.3,9.11,1.2,1.44,2.27,3.08,3.84,4.1a25.88,25.88,0,0,0,4.73,2.1c-0.87,1-2.81.3-3.85,0-1.62-.42-3.41-0.52-4.78-1.63-0.34-.25-1,0.5-0.62.76a23.55,23.55,0,0,1,2,2,23.57,23.57,0,0,0,2.58,1.82,30.15,30.15,0,0,1,2.55,2.18q1.24,1.1,2.54,2.13A93.42,93.42,0,0,0,70.22,307a12.1,12.1,0,0,0,3.1,1.48,6.62,6.62,0,0,0,2.58.1q0.22,1.42.36,2.86c0.21,2.16.47,4.27,0.87,6.4s0.78,4.3,1.16,6.45c0.43,2.43.88,4.87,1.42,7.28a0.41,0.41,0,0,0,.08.18c0.26,0.89.54,1.77,0.74,2.68a16.3,16.3,0,0,1,.35,3.18c0,2.16-.23,4.29-0.3,6.45s0,4.48,0,6.72a22.51,22.51,0,0,0,.34,3,14.1,14.1,0,0,1,.1,2.55c0,0.26,0,.62,0,1a3.7,3.7,0,0,0-.6-0.26,0.75,0.75,0,0,0-.78.68c-0.15.77,0.76,1.53,1.22,2a14.57,14.57,0,0,0,2.64,2c1.09,0.66,2.19,1.29,3.29,1.94A8.18,8.18,0,0,0,90.34,365h0.12a0.31,0.31,0,0,0,.18.22,3.32,3.32,0,0,0,2.35.13,1.71,1.71,0,0,0,.93-0.86,4.66,4.66,0,0,1,.3-1l0.08-.1a8.14,8.14,0,0,1,1-.77,3,3,0,0,1,1.95-.36h0.09c0,0.25.09,0.49,0.12,0.74h0c0,1.4.42,2.8-.12,4.15-0.15.38,0.34,0.26,0.45,0,0.57-1.44.12-2.86,0.15-4.35h0a0.22,0.22,0,0,0,0-.06c0-.09,0-0.18,0-0.27a5.18,5.18,0,0,0,5-.07,6.09,6.09,0,0,0,2.14-2,4.3,4.3,0,0,0,.59-1.29h0a0.4,0.4,0,0,0,.59-0.09q0.22,0.73.41,1.48a5.8,5.8,0,0,1,.24,3.52c-0.15.38,0.34,0.26,0.45,0a5.31,5.31,0,0,0-.06-3.23c-0.18-.73-0.37-1.46-0.58-2.17a3.83,3.83,0,0,0,1.76-.93c0.2-.2.44-0.79,0.72-0.66a2.78,2.78,0,0,1,.59,1,0.31,0.31,0,0,0,.45.09,12.11,12.11,0,0,0-.14,2.32c0,0.33.5,0,.48-0.28a10.82,10.82,0,0,1,.18-2.3l0.1,0a6.09,6.09,0,0,0,2.78-2.16,4,4,0,0,0,.3.45,0.12,0.12,0,0,0,.1,0c0,0.15,0,.3,0,0.45,0,0.8,0,2.33.87,2.65,0.23,0.09.57-.43,0.3-0.53-0.88-.32-0.81-2.41-0.57-3.14a4.28,4.28,0,0,1,.55-0.91,3.3,3.3,0,0,0,.41-1,8.08,8.08,0,0,0,.26-2.25,14.13,14.13,0,0,0-1.5-4.88c-0.73-1.64-1.76-3.11-2.54-4.72a0.17,0.17,0,0,0-.25,0l-0.12.1c0-.12-0.13-0.19-0.33-0.13a10.75,10.75,0,0,1-2.39.59,2.4,2.4,0,0,1-2.08-1.17,3.68,3.68,0,0,0-1-1.27,0.66,0.66,0,0,0-.77.52c-1.32-.54-2.15-2.13-2.94-3.29-0.58-.85-1.13-1.73-1.73-2.56a5.38,5.38,0,0,1-1.31-2.39,0.32,0.32,0,0,0-.06-0.18,0.52,0.52,0,0,0,0-.33c-0.72-2.12-2.33-3.71-3.07-5.84-0.42-1.21-.83-2.44-1.22-3.67s-0.67-2.58-1-3.87c-0.4-1.52-.84-3-1.21-4.52a5.07,5.07,0,0,0,2.54,0,20.52,20.52,0,0,0,3.77-1.83c1.54-.9,3.34-1.51,4.54-2.92,1.09,1.22,1,3.27,1.33,4.8,0.28,1.18.54,2.41,0.71,3.62a6.73,6.73,0,0,0,.38,2.58c0.3,0.51.85-.21,0.93-0.54a25.52,25.52,0,0,1,2.12-5.51c0.43-.85.87-1.69,1.37-2.48a17.58,17.58,0,0,0,1.38-2.47,0.49,0.49,0,0,0,0-.2,11,11,0,0,1,1-2.37,10.21,10.21,0,0,1,2.07-1.91c0.81-.7,1.63-1.38,2.49-2a16.45,16.45,0,0,1,2.76-1.58,57.65,57.65,0,0,0,5.34-3.18,21.05,21.05,0,0,1,2.84-1.52c1-.42,2-0.77,3-1.27a0.72,0.72,0,0,0,.29-1,4.59,4.59,0,0,1,.8-2c0.34-.65.66-1.31,1-1.93a5.52,5.52,0,0,1,1-1.14l-0.14.4a5.32,5.32,0,0,0-.37,1.93c0,0.07,0,.14,0,0.22,0,0.49,0,1.19.63,1.19a1.75,1.75,0,0,0,.71-0.26,6.65,6.65,0,0,1,1.3-.45c0.49-.12,1-0.24,1.48-0.34H138c1,0,2,0,3,.09a3.48,3.48,0,0,0,1.83,0,1.87,1.87,0,0,0,.89-1.63,5.07,5.07,0,0,0,.2-1.83c0-.2,0-0.42,0-0.66,0.14,0.21.3,0.41,0.45,0.61s0.1,0.41.17,0.6a7.13,7.13,0,0,0,1,2.28,1.35,1.35,0,0,0,.51.4,0.54,0.54,0,0,0,.25.08,2.06,2.06,0,0,0,1.44-.34c0.25-.15.49-0.32,0.74-0.49,0.45-.07.89-0.1,1.34-0.21a2,2,0,0,1-1.38,1.8,0.89,0.89,0,0,0-.58,1c0.43,1.59,1.84,2.58,3.11,3.36a18.27,18.27,0,0,1,4,2.67,0.3,0.3,0,0,0,.24.1,0.59,0.59,0,0,0,0,.5,10.13,10.13,0,0,1,1.16,3.14,28.39,28.39,0,0,0,.22,2.87,1.72,1.72,0,0,0,.5,1,11.78,11.78,0,0,0-3,4.78,7,7,0,0,0-.28,5.38,7.34,7.34,0,0,0,3.41,3.19,40.68,40.68,0,0,0,5.87,2.48c4.74,1.68,9.73,2.79,14.26,5.1a19.76,19.76,0,0,1,5.59,4.51c0.83,0.91,1.64,1.83,2.5,2.7s1.87,1.68,2.8,2.53c2.12,1.95,4,4.12,6.06,6.17,1,1,2.15,2,3.22,2.94,0.7,0.65,1.33,1.53,2.28,1.67h0a13.18,13.18,0,0,0,4.15,1.66,18.57,18.57,0,0,0,2.69.09c1,0,1.95,0,2.92,0,3.34-.12,6.9-0.59,9.75-2.61a5.67,5.67,0,0,0,2.3-2.55c1.21,0.88,2.47,1.57,3.92.78,1.3-.7,2.24-2,1.27-3.46-0.17-.25-0.35-0.48-0.54-0.72a7.91,7.91,0,0,0,3-2,2.31,2.31,0,0,0,.68-1.64,2.56,2.56,0,0,0-.87-1.42c-1.11-1.14-2.36-2.15-3.51-3.26-0.31-.3-0.62-0.59-0.93-0.87-0.58-1.05-1.3-2.21-2.49-2.38a0.34,0.34,0,0,0-.14,0c-1.35-.36-2.38-1.44-3.84-1.29a19.83,19.83,0,0,1-5.4-.05,21.44,21.44,0,0,1-5.44-1.73c-1.71-.79-3.38-1.68-5.11-2.43s-3.58-1.58-5.32-2.49-3.57-2.07-5.3-3.2-3.45-2.3-5.17-3.46a32.1,32.1,0,0,1-4.25-3.63,25.33,25.33,0,0,0-4.51-3.68,22.39,22.39,0,0,1-4.71-3.18,2.29,2.29,0,0,0,0-.55c-0.09-.52-0.24-1-0.28-1.54a25.19,25.19,0,0,1,0-2.58,0.72,0.72,0,0,0,0-.18,11.29,11.29,0,0,1,1.53-1.71c0.64-.63,1.24-1.29,1.84-2,1.31-1.47,2.65-2.91,4-4.36a43.43,43.43,0,0,0,6.24-8.66,30.66,30.66,0,0,0,2.25-4.86,23.18,23.18,0,0,0,1.06-5.12c0.18-1.88.13-3.76,0.22-5.64s0.3-3.7.27-5.56a19.13,19.13,0,0,0-1.21-5.91,30.76,30.76,0,0,1-1.34-4.89,0.5,0.5,0,0,0,0-.3l0-.1q0-.19,0-0.38a0.28,0.28,0,0,0-.22-0.29c-0.38-1-.7-2-1.07-3.07a19.06,19.06,0,0,0-1.83-3.75c-1.56-2.48-3-5-4.47-7.6q-1.16-2.08-2.27-4.19a9.41,9.41,0,0,1,6.74,3.1c1.84,2,2.91,4.68,4.77,6.69a39,39,0,0,0,3.29,3c1.2,1,2.29,2.22,3.57,3.16a12.81,12.81,0,0,0,8.24,2.37,61.5,61.5,0,0,0,8.73-1.36,26,26,0,0,1,4.65-.47c1.27,0,2.55.09,3.81,0.18,5.05,0.35,10.75,1.19,14.69,4.92a13.24,13.24,0,0,1,3.36,6.59c0.54,2.36.71,5.2-.69,7.28l0,0.09c-0.88-.8-1.83-1.53-2.71-2.35a18.69,18.69,0,0,1-3.52-4.33c-0.3-.52-1.16.33-0.91,0.78a18.75,18.75,0,0,0,2.62,3.49,41.22,41.22,0,0,0,3.13,2.81c1.87,1.62,4,3.79,4,6.55,0,2.46-1.31,4.78-2.49,6.79-0.63,1.08-1.3,2.13-1.93,3.21s-1.18,2.23-1.85,3.29a23.92,23.92,0,0,1-11.6,9.83,11,11,0,0,1-3.88.84c-1,0-2.4-.28-2.87-1.38a7.43,7.43,0,0,1-.21-2.56c0-.88-0.25-2.17-1-2.64a2,2,0,0,0-1.09-.12,1.47,1.47,0,0,1-.68-0.15,1.4,1.4,0,0,1-.73-0.63,3.83,3.83,0,0,1,.94-0.78,5.4,5.4,0,0,0,1.19-1.23c0.69-1,.87-2.48,1.74-3.35a4.2,4.2,0,0,1,2-.86c0.32-.09.64-0.18,0.95-0.29-1,1.56-2.24,3.08-2.3,5a2.18,2.18,0,0,0,1.84,2.22,6.53,6.53,0,0,0,4.38-.68,8.43,8.43,0,0,0,5.19-7.87,8.86,8.86,0,0,0-4.53-8.18c-2.76-1.53-7-2.13-9.53.16a0.38,0.38,0,0,0-.15,0c-2.1-.23-4.39-0.66-6.2.8a8.78,8.78,0,0,0-2.28,3.21c-0.53,1.14-.78,2.79-2.15,3.07l-0.11,0a9.4,9.4,0,0,0-1.45,0l-0.43,0a4.06,4.06,0,0,1-1.81-.48c-0.45-.3-1.2.67-0.78,1l0.08,0.05a0.25,0.25,0,0,0,.12.16,3.39,3.39,0,0,0,1.88.42,11.66,11.66,0,0,0,1.25,0,5.15,5.15,0,0,0,.68-0.05,1.31,1.31,0,0,1,1.34,1.14c0.31,2.44-1.39,4.06-3.16,5.19a20.19,20.19,0,0,1-3.09,1.6,9.68,9.68,0,0,1-3.34.94,3.74,3.74,0,0,1-3-1.65,2.75,2.75,0,0,0-2.26-1.35c-1.23.08-2,1.06-3,1.65-1.34.77-3.23,0.36-4.54-.3-0.44-.22-1.12.8-0.6,1.06a6.55,6.55,0,0,0,4.21.6c1.23-.27,2-1.38,3.09-1.81s1.9,0.59,2.62,1.43a4,4,0,0,0,3.31,1.45,11.37,11.37,0,0,0,3.62-1.07,20.86,20.86,0,0,0,3.41-1.81c2-1.32,3.59-3,3.75-5.61a2.47,2.47,0,0,0-.69-2.14,3.5,3.5,0,0,0,.8-0.88,10,10,0,0,0,.86-1.9,10.32,10.32,0,0,1,1.09-2.1,3.76,3.76,0,0,1,2.43-1.72,14.11,14.11,0,0,1,4,.17,0.39,0.39,0,0,0,.23-0.05,0.45,0.45,0,0,0,.53-0.11c2-1.91,5.33-1.41,7.64-.49a8.23,8.23,0,0,1,5.13,6.29,9.13,9.13,0,0,1-.49,4.56,6.21,6.21,0,0,1-2.68,3.1,7.22,7.22,0,0,1-3.9,1.27c-0.85,0-2.15-.32-2.29-1.41a5.27,5.27,0,0,1,1.1-3,29.72,29.72,0,0,0,1.62-2.68c0.16-.36,0-0.92-0.44-0.61-1.19.81-2.7,0.71-3.87,1.55a6.25,6.25,0,0,0-1.92,3,4.22,4.22,0,0,1-.93,1.52c-0.42.4-.92,0.69-1.34,1.08-0.74.7-1,1.61-.05,2.26a2.28,2.28,0,0,0,1.32.48,1,1,0,0,1,1.11.32,5.75,5.75,0,0,1,.51,3.17,2.89,2.89,0,0,0,1,2.45A5.1,5.1,0,0,0,220,299a18.55,18.55,0,0,0,7.52-3.06,26.13,26.13,0,0,0,6.25-5.73,67.07,67.07,0,0,0,4.32-7,29.36,29.36,0,0,0,3.65-7.23A7.93,7.93,0,0,0,242,272.06Zm-64.4-162.23c0.62,0,1.24.14,1.87,0.2s1.17,0,1.75,0c-0.36,1-2,1-2.82,1s-2.41-.17-2.64-1.23h0A11.12,11.12,0,0,1,177.56,109.83Zm-59,94.22q-0.64,0-1.28.11a0.26,0.26,0,0,0,0-.19,5.12,5.12,0,0,1,.57-3.87,0.33,0.33,0,0,0,0-.1,15,15,0,0,1,1.55.28A9.37,9.37,0,0,0,118.57,204.06Zm1.75-8.43,1,0.73a3.58,3.58,0,0,0-1.79,2.87c-0.39-.07-0.78-0.13-1.17-0.18a6.48,6.48,0,0,1,1.86-3.12A0.32,0.32,0,0,0,120.32,195.63Zm7.11-6.82a21.71,21.71,0,0,1,1.06,2.09,10.94,10.94,0,0,1,.55,1.34,3.94,3.94,0,0,1-.78-0.19c-1.05-.4-2.16-0.74-3.22-1.18a8.06,8.06,0,0,1,2.36-2Zm-1.16-.85v0h0l0,0h0a0.37,0.37,0,0,0,.13-0.14,2.73,2.73,0,0,1,.67.64l0.11,0.15h0a8.54,8.54,0,0,0-2.51,2.2c-0.31-.13-0.61-0.27-0.91-0.43a4.08,4.08,0,0,1,2.1-2.3,0.11,0.11,0,0,0,.07.11A0.27,0.27,0,0,0,126.27,188ZM98.54,160.88a13.22,13.22,0,0,1-2.18,5.46,10.72,10.72,0,0,0-2.87-.05c-0.52,0-1.11,1.23-.42,1.21a10.64,10.64,0,0,1,2.58,0A4.11,4.11,0,0,1,97.89,169a19.29,19.29,0,0,1,1.64,2.58,19.06,19.06,0,0,1,1.43,2.67,22.32,22.32,0,0,1,1.13,6.29,15.4,15.4,0,0,0,1,5,3.56,3.56,0,0,0,1.29,1.56,5,5,0,0,0-1.06.74,11.6,11.6,0,0,0-1.38,1.64,0.67,0.67,0,0,0-.11.82,0.57,0.57,0,0,0,.75-0.23,5.81,5.81,0,0,1,2.38-2.16,1.08,1.08,0,0,0,.49-0.41c0.64,0.13,1.31.14,1.94,0.31a0.38,0.38,0,0,0,.18,0,0.22,0.22,0,0,0,.18.21,12.39,12.39,0,0,0,5.21.56c0.95-.16,1.87-0.41,2.83-0.53s1.85-.2,2.77-0.3c1.88-.19,3.76-0.4,5.65-0.52a4.1,4.1,0,0,1,1.92.25,4.81,4.81,0,0,0-2.55,2.61,9.25,9.25,0,0,1-1-.65c-0.39-.29-1.08.58-0.7,0.86a15.66,15.66,0,0,0,4.13,2c0.69,0.25,1.37.54,2.07,0.76,0.42,0.13,1,0,1.22.46a9.91,9.91,0,0,1,.31,2.54,9.8,9.8,0,0,0,.76,2.56,8,8,0,0,0,1.26,1.77,3.57,3.57,0,0,1,.61.92,2,2,0,0,1,.1.42c-0.17-.08-0.39-0.16-0.47-0.22-0.25-.18-0.5-0.38-0.74-0.57-0.82-.65-1.63-1.32-2.39-2-0.35-.33-1.05.53-0.7,0.86,0.79,0.75,1.63,1.44,2.48,2.12l0.1,0.08a0.61,0.61,0,0,0-.25.7c0.31,0.51.68,1,1,1.48a3,3,0,0,1,.73,1.7,1,1,0,0,1-1.44.55,3,3,0,0,1-1-.84c-1.16-1.35-2.05-3.42-4.07-3.21a0.75,0.75,0,0,0-.47.41,0.46,0.46,0,0,0,0,.62,19.94,19.94,0,0,1,3.08,3.26,5.29,5.29,0,0,1,.5.72c0,0.06.05,0.16,0.09,0.21l-0.25,0a3.16,3.16,0,0,1-1.68-.47c-1.07-.56-2-1.38-3-2a7.94,7.94,0,0,0-3.7-1.08c-0.36,0-.72,0-1.08,0a8.68,8.68,0,0,1,.87-3.67,5.61,5.61,0,0,1,.79.3c1.13,0.53,2,1.09,3.2.51,0.45-.22.54-1.16-0.09-0.85-1.09.52-2.08-.48-3.08-0.82a7.24,7.24,0,0,0-.74-0.21c0.08-1.05.64-2.37,1.64-2.61a0.26,0.26,0,0,0,.14-0.11,3,3,0,0,0,2.82.5,0.77,0.77,0,0,0,.5-0.61c0-.23-0.13-0.44-0.37-0.34-1.06.41-2.13-.32-3-0.92a8.26,8.26,0,0,0-2.66-1.53c-0.43-.1-1,0.85-0.54,1a5.18,5.18,0,0,1,1.77.89,0.25,0.25,0,0,0-.11.07A7.36,7.36,0,0,0,118,199c-0.38-.06-0.77-0.12-1.14-0.2s-1,.85-0.54,1,0.85,0.16,1.28.22l0,0a5.63,5.63,0,0,0-.65,4.22c-0.45.07-.89,0.15-1.33,0.25-1.49.33-3,.86-4.49,0.33a18.84,18.84,0,0,1-3.66-2.06,42.33,42.33,0,0,1-4-2.76c-1.28-1-2.35-2.34-3.73-3.24a9.73,9.73,0,0,0-2.12-1.08,5.63,5.63,0,0,0-1.08-.27,5.94,5.94,0,0,1-1.12-.14,0.33,0.33,0,0,0-.21-0.28,33.15,33.15,0,0,1-9.56-6.19,34,34,0,0,1-3.83-4.26,23.12,23.12,0,0,1-3-4.82,10.59,10.59,0,0,1-.66-2.13A14.23,14.23,0,0,0,78,176c-0.07-.94.21-1.88,0.19-2.83a0.34,0.34,0,0,0-.52-0.25,1,1,0,0,0-.54.71,11.52,11.52,0,0,0-.07,4.6v0l-0.07,0c-0.08,0-.2,0-0.29-0.08a3.18,3.18,0,0,1-1.16-1,3.44,3.44,0,0,1-.35-3.25,7.72,7.72,0,0,0,.44-3.7c-0.13-.59-0.77-0.16-1,0.16-1,1.65-.9,3.58-1.28,5.41a5,5,0,0,1-1.21-3c-0.06-.82-0.08-1.65-0.09-2.47a3.19,3.19,0,0,1,1-2.2,36.5,36.5,0,0,0,3.26-4.17,18,18,0,0,0,1.86-4.68,24,24,0,0,0,.7-5.63,0.27,0.27,0,0,0-.29-0.28l0.09-.06a20.32,20.32,0,0,1,2.45-1.65,4.07,4.07,0,0,1,3.05-.37c1,0.24,1.93.62,2.94,0.77a17.46,17.46,0,0,1,3.2.54c3.43,1.17,6.36,3.85,10,4.11A8.54,8.54,0,0,0,98.54,160.88Zm2.62-5.23a0.6,0.6,0,0,0,0,.19A12.82,12.82,0,0,1,95.47,154c-1.82-1-3.66-2.16-5.69-2.54-1.08-.2-2.18-0.22-3.25-0.51a14.44,14.44,0,0,0-3-.72c-1.66-.09-3.15,1-4.48,2-0.24-1.24.27-2.68,0.12-3.89,1.06,0.06,2.12.13,3.18,0.16,1.22,0,2.42-.1,3.64-0.16a21.5,21.5,0,0,1,6.72,1.07A10.84,10.84,0,0,1,96,150.79c0.81,0.53,1.55,1.17,2.34,1.74,0.6,0.43,1.23.82,1.79,1.3S101.36,154.92,101.16,155.64Zm9.56-7.92c0,1,.11,2.59-0.7,3.25h0a0.61,0.61,0,0,0-.75.42c-0.15.46-1,.56-1.43,0.81a8.71,8.71,0,0,0-1.46,1.33c-1.08,1.1-2.39,1.89-3.52,2.92a0.71,0.71,0,0,0-.21.35l-0.37-.43a0.23,0.23,0,0,0-.22-0.08,0.53,0.53,0,0,0,0-.22,0.32,0.32,0,0,0-.25-0.28,0.52,0.52,0,0,0,.08-0.16,1.84,1.84,0,0,0,0-.79,0.84,0.84,0,0,0,.41-0.29c2.22-3,4.64-6.08,7.78-8.06a1.09,1.09,0,0,0,.46-0.59C110.65,146.51,110.7,147.11,110.72,147.72Zm16.38-38.87a0.26,0.26,0,0,0-.26.14,6,6,0,0,1-.38-2.69l0.09-.09a11.29,11.29,0,0,0,2.51.11,0.32,0.32,0,0,0,0,.35,3.76,3.76,0,0,1,.75,2,0.26,0.26,0,0,0,0,.08A5.26,5.26,0,0,1,127.11,108.85Zm3.23-.16-0.09,0a0.46,0.46,0,0,0,.14-0.32,4.29,4.29,0,0,0-.72-2.1l1.56-.13a0.36,0.36,0,0,0-.05.19,1.53,1.53,0,0,0,.38.85,1.93,1.93,0,0,1,.28,1.27h0A13.58,13.58,0,0,0,130.34,108.69Zm2.57-.33-0.57.06a0.55,0.55,0,0,0,.09-0.29,2.4,2.4,0,0,0-.19-1.21,2.78,2.78,0,0,1-.46-0.8l0.41,0c0.41,0,.82-0.06,1.22-0.11a0.35,0.35,0,0,0-.05.21,10.62,10.62,0,0,0,.86,1.89A12,12,0,0,1,132.91,108.37Zm2.71-.5a4.6,4.6,0,0,0-.78.09,0.24,0.24,0,0,0,0-.06c-0.17-.72-0.78-1.25-0.89-2l0.85-.17a0.26,0.26,0,0,0,0,.38,3.64,3.64,0,0,1,1.56,1.77C136.1,107.88,135.86,107.86,135.62,107.86Zm1.31,0a0.29,0.29,0,0,0,0-.19,3.74,3.74,0,0,0-1.62-2.08c0.51-.13,1-0.29,1.52-0.46a0.29,0.29,0,0,0,0,.43,3.52,3.52,0,0,1,1.36,2A4.3,4.3,0,0,1,136.93,107.87Zm6.78,0.59a1.75,1.75,0,0,1,.05,1.72c-0.57,1-2,.55-2.74.14a5.27,5.27,0,0,1-1.33-1.15,2.64,2.64,0,0,1-.94-1.5l0.27-.14,0.44-.25a1.89,1.89,0,0,0,.68,1.55c0.67,0.53,1.9,1.34,2.76,1A1.33,1.33,0,0,0,143.71,108.46Zm-1.36-.86a2.27,2.27,0,0,1,.8.6,0.76,0.76,0,0,1-.65,1.26,4.53,4.53,0,0,1-1.92-.91,1.72,1.72,0,0,1-.73-1.52l0.42-.3A7.42,7.42,0,0,1,142.35,107.6ZM140.64,106l-0.2,0a0.11,0.11,0,0,0-.07-0.08,1.24,1.24,0,0,1-.24-0.1,0.27,0.27,0,0,0-.27.16,2.48,2.48,0,0,0-.35.87q-0.37.23-.76,0.42a0.23,0.23,0,0,0,0,0,3.88,3.88,0,0,0-1.47-2.24h0c1-.37,2.09-0.74,3.1-1.23-0.06.15,0,.3,0.14,0.28a1.68,1.68,0,0,1,1.31,1C141.44,105.41,141,105.71,140.64,106Zm1.72-1.42a2.25,2.25,0,0,0-1.32-1.2c0.25-.14.49-0.29,0.73-0.45a3.89,3.89,0,0,0,1.38-1.41,2.38,2.38,0,0,0,.19-0.71C143.41,102.21,143.37,103.6,142.36,104.61Zm5.33,11.45c-1,.16-2.1.23-3.14,0.42a12.34,12.34,0,0,0-2.83.94,14,14,0,0,1-2.42.71,2,2,0,0,0-1.43,1c-0.28.54-.16,1.25-0.44,1.76-0.54,1-1.85-.4-2.09-1a0.93,0.93,0,0,1,.27-1.26,3.5,3.5,0,0,1,1.23-.24,6.11,6.11,0,0,0,2.75-1,0.56,0.56,0,0,0,.21-0.36c0.41-.09.83-0.14,1.13-0.21,1-.22,2.06-0.49,3.11-0.66a13.27,13.27,0,0,0,3.17-.92,11.49,11.49,0,0,1,2.89-1,0.26,0.26,0,0,0,.35,0h0.17c0.27,0,.58-0.61.27-0.65a0.94,0.94,0,0,0,0-.42,0.34,0.34,0,0,0,0-.15c0-.28,0-0.57,0-0.85a2.12,2.12,0,0,1,1.81.19,2.47,2.47,0,0,1,.85,2,1.21,1.21,0,0,1-.25,1,2.39,2.39,0,0,1-1,.28c-0.45.07-1.28,0.19-1.44-.35a2.77,2.77,0,0,1,1-.13c0.29,0,.61-0.63.23-0.66C150.43,114.39,149.28,115.82,147.69,116.06Zm13.47,5.48c-1.38-.66-2.75-1.38-4.13-2-1.22-.59-2.48-1.07-3.71-1.62a6,6,0,0,1-2.48-1.62,2.93,2.93,0,0,0,1.29,0,2,2,0,0,0,1.93-1.29,3.46,3.46,0,0,0-.62-3,2.45,2.45,0,0,0-2.59-.45c-0.08-.86-0.21-1.72-0.35-2.55a4.67,4.67,0,0,1-.13-1.61c0.07-.34.09-0.39,0.31-0.18a4.63,4.63,0,0,1,.84,1.82,12.5,12.5,0,0,1,.48,1.81c0.07,0.4.63,0,.58-0.33a13.63,13.63,0,0,0-.65-2.35c-0.19-.52-0.53-1.69-1.18-1.75-0.8-.07-1,1.22-1,1.81,0.09,1.61.5,3.19,0.56,4.81a0.37,0.37,0,0,0-.07.36,0.64,0.64,0,0,1,.07.2,6.14,6.14,0,0,0-.93.19,0.68,0.68,0,0,0,.09-0.5,16.93,16.93,0,0,0-1.36-3.44,4.72,4.72,0,0,1-1-2.66,3.32,3.32,0,0,1,1-2,10.76,10.76,0,0,0,.95-1.28,3.35,3.35,0,0,0,.32-0.72c0-.15.06-0.31,0.09-0.46,1.08,0.92,2.49,1.93,3.9,1.71a2.5,2.5,0,0,0,1.06-.42c0.33-.22.52-0.52,0.92-0.3a3.38,3.38,0,0,1,.76.78,6.6,6.6,0,0,0,.87.86A17,17,0,0,0,162,108a8.48,8.48,0,0,0,4,.71c-0.09.26-.14,0.53-0.22,0.79a3.43,3.43,0,0,1-1.36,1.43,4.86,4.86,0,0,0-1.64,2.94,14.69,14.69,0,0,0,.23,4.68,5.3,5.3,0,0,0,.6,1.8h0l-0.87-.42a13.37,13.37,0,0,1-2.15-1.31,28,28,0,0,0-5.86-3.78c-0.51-.2-1.24.94-0.66,1.17a23.55,23.55,0,0,1,5.17,3.3,17.08,17.08,0,0,0,2.19,1.47c0.66,0.34,1.35.61,2,1a2.48,2.48,0,0,1,1.32,1.6C163.52,122.87,162.37,122.13,161.16,121.55ZM163,185.49a4.39,4.39,0,0,0,1.3-2.22,0.32,0.32,0,0,0,.32.37,18.35,18.35,0,0,1,5.81,1.34l-0.4.22a4.52,4.52,0,0,1-2.1.52c-1.32,0-2.59-.43-3.89-0.42a2.77,2.77,0,0,0-1.12.25Zm4.73,4.58a2.56,2.56,0,0,1-1,.4c-0.45.13-.9,0.3-1.36,0.41a24.52,24.52,0,0,1-3.7.24c-0.34,0-.68.09-1,0.15l0.06-.09a16.3,16.3,0,0,0,1.21-3.32,1.9,1.9,0,0,1,1.13-1.29,3.4,3.4,0,0,1,1.51,0c0.63,0.11,1.26.22,1.89,0.28a0.67,0.67,0,0,0,0,.53,6.58,6.58,0,0,0-1.85,3,0.35,0.35,0,0,0,.45.42,1,1,0,0,0,.61-0.74,4.4,4.4,0,0,1,1.28-2,15.15,15.15,0,0,1,1.15,1.8A0.71,0.71,0,0,0,167.72,190.08Zm7.74,37.73a59,59,0,0,0-4-7.15c-0.85-1.2-1.7-2.39-2.54-3.59a24.06,24.06,0,0,0-2.63-3.28,6.16,6.16,0,0,0,1-2.16,15.44,15.44,0,0,0,.22-2.84,29.18,29.18,0,0,1,.35-3.33,22.59,22.59,0,0,1,.67-3.3,11.61,11.61,0,0,0,.66-2.53,0.57,0.57,0,0,0,0-.69,2.78,2.78,0,0,1-.81-3.09c0.21-.51.55-1,0.8-1.44a6.18,6.18,0,0,0,.61-1.7c0.43-2.15-.72-3.94-1.89-5.56L168,187l0.05-.07,0.19,0c1.27-.18,2.22-1,3.41-1.38,0.38-.12.92-0.87,0.41-1.17a17.35,17.35,0,0,0-7.06-1.89,0.8,0.8,0,0,0-.66.53c0.15-.62.25-1.26,0.35-1.87a25.85,25.85,0,0,1,2-6.1c0.43-1,1-1.91,1.29-2.93a19.57,19.57,0,0,0,.63-3.41c0.35-2.47.72-4.95,0.92-7.44,0.1-1.23.24-2.45,0.34-3.67,0-.41,0-0.85.09-1.29a31.23,31.23,0,0,1,2.09,3.87,26,26,0,0,1,1.64,5.64c0.74,3.84,1.28,7.7,2.66,11.37,0.62,1.66,1.39,3.26,2,4.94a0.52,0.52,0,0,0,0,.54l0.2,0.23c0.06,0.22.12,0.44,0.18,0.66a0.33,0.33,0,0,0,.5.25c2.83,4.23,2.78,10.29,2.47,15.23-0.17,2.82-.52,5.63-0.83,8.44a54.33,54.33,0,0,1-2.28,11.23c-0.54,1.62-.92,3.3-1.39,4.95a15.43,15.43,0,0,1-1.72,4.37Zm-93,58.67a18.34,18.34,0,0,0,3.13,5.15A6.77,6.77,0,0,0,90,294.36a3.58,3.58,0,0,0,3.08-1c0.14,1.42-.42,3.46-1.88,3.38s-2.87-1.12-4.09-1.87a10.29,10.29,0,0,1-3.86-3.79,30.86,30.86,0,0,1-1.92-5.91c-0.19-.64-0.42-1.28-0.56-1.93a5.69,5.69,0,0,1-.16-1.14,1.34,1.34,0,0,1,0-.44s0-.05,0-0.06l0.08,0,0.05,0C81.62,283,81.86,284.83,82.46,286.47ZM36.79,224.68A64,64,0,0,0,33.17,211a29,29,0,0,0-6.26-10.13c-2.17-2.18-5.2-4.5-8.31-4.51,1.75-.49,3.61-0.61,5.32-1.24,1.31-.48,2.56-1.15,3.87-1.65a26.41,26.41,0,0,1,4.16-1.24,29.27,29.27,0,0,1,9,0c1.49,0.16,3,.33,4.46.41a16.3,16.3,0,0,1,3.69.5,14.64,14.64,0,0,1,5.44,3.21,50.24,50.24,0,0,1,5.4,5.28,49.73,49.73,0,0,1,7.91,13.72,49.34,49.34,0,0,1,2.75,9.36c0.55,2.81,1,5.64,1.72,8.41l-0.59.06a0.8,0.8,0,0,0-.53.7c-0.52.21-1,.48-1.53,0.73-1.37.67-2.76,1.3-4.14,1.92-2.65,1.19-5.29,2.4-7.94,3.58-1.29.57-2.53,1.27-3.82,1.85s-2.66,1.19-3.94,1.91-2.43,1.53-3.63,2.33a35.35,35.35,0,0,0-3.37,2.42l-3.63,3.08a7.21,7.21,0,0,0-1.5,1.66,9.64,9.64,0,0,1-.16-1.53c0-1-.05-2-0.09-3q-0.16-4.14-.15-8.29C37.32,235.24,37.57,229.92,36.79,224.68Zm5,100a8.21,8.21,0,0,0,2.47-1.13,14.34,14.34,0,0,0,2.18-1.4A5.07,5.07,0,0,0,47.72,320a8.38,8.38,0,0,0,.7-2.62,7.89,7.89,0,0,0-.75-2.86,14.72,14.72,0,0,0-.58-1.42c-0.1-.19-0.21-0.38-0.32-0.56a2.68,2.68,0,0,1,1.53.62A7,7,0,0,1,49.79,315a9.29,9.29,0,0,1,1.46,5c-0.12,3.07-2.53,5-5,6.06a6.2,6.2,0,0,1-2.06.65c-1,.07-1.67-0.56-2.52-1.07-0.5-.31-1-0.56-1.54-0.86A4.52,4.52,0,0,0,41.74,324.65ZM30.53,293.2a13.94,13.94,0,0,1-.84,3.44,15.43,15.43,0,0,0-.86,3.65,9.71,9.71,0,0,0,.07,3.51,0.17,0.17,0,0,0,.16.14,19.59,19.59,0,0,1,1.29,5.2,27.12,27.12,0,0,0,1.41,5.59,27.89,27.89,0,0,1,1,2.74,7.22,7.22,0,0,0,1,2.37,24.17,24.17,0,0,0,1.85,2c0.69,0.74,1.37,1.49,2.09,2.19a10.41,10.41,0,0,0,2.16,1.67c0.51,0.29,1,.6,1.5.91-0.28,0-.55.08-0.83,0.13a7.05,7.05,0,0,1-2.75-.07A23.93,23.93,0,0,1,33.09,325c-1.55-.67-3.07-1.41-4.61-2.1a43.93,43.93,0,0,1-4.55-2.24c-1.41-.84-2.75-1.83-4.1-2.77a5.69,5.69,0,0,1-2.67-3.58,21.69,21.69,0,0,1-.27-2.19c-0.09-.87-0.26-1.72-0.36-2.59a11.58,11.58,0,0,1,.33-5.41c0.31-.84.77-1.61,1.15-2.42s0.9-1.76,1.4-2.61,0.91-1.67,1.39-2.49a3,3,0,0,1,.8-0.93,2.42,2.42,0,0,0,.74-0.8h0a5.48,5.48,0,0,0,.66-5.38,8.51,8.51,0,0,1-.92-3.41,14,14,0,0,1,.59-3.6,33.38,33.38,0,0,1,2.42-7.06c0.52-1,.92-2.08,1.49-3a8.07,8.07,0,0,1,2.33-2.07c0.14-.11.28-0.23,0.42-0.36,0,0.47.12,0.94,0.18,1.43a29.73,29.73,0,0,1,0,3.53,29,29,0,0,0,.42,3.31c0.13,1.19-.15,2.41-0.11,3.62,0.07,2.47.42,4.94,0.59,7.41A26.83,26.83,0,0,1,30.53,293.2Zm10-16.08c-1,.52-2,1.1-3,1.55s-2.2.76-3.29,1.19A21.55,21.55,0,0,1,31,281a0.58,0.58,0,0,0-.34.31c0-.7,0-1.41.09-2.12a13.11,13.11,0,0,0-.33-3.2,25.3,25.3,0,0,1-.08-3.85,11.61,11.61,0,0,0-.11-1.63,9.75,9.75,0,0,1-.15-1.18l0.19-.15a2.63,2.63,0,0,1,1.49-.39,1.79,1.79,0,0,0,1.52-1.47c0.23-.62-0.56-0.42-0.71,0s-0.19.56-.65,0.58a3.53,3.53,0,0,0-1.19.22,2.83,2.83,0,0,0-.38.19,15.84,15.84,0,0,0,.79-1.59c0.31-.67.66-1.31,1-2,0.61-1.41,1.08-2.88,1.72-4.28a18.88,18.88,0,0,1,3.49-5.18A0.66,0.66,0,0,0,38,255a0.53,0.53,0,0,0,.16-0.47l0-.09q0.45-.41.92-0.79a0.62,0.62,0,0,0,.17-0.86c0.32-.29.67-0.56,1-0.81,1.07-.87,2.08-1.81,3.14-2.69a40.26,40.26,0,0,1,3.32-2.35c1.14-.76,2.26-1.53,3.46-2.19s2.41-1.2,3.64-1.75,2.33-1.18,3.52-1.72q3.74-1.7,7.49-3.38c1.42-.64,2.85-1.27,4.26-1.95,0.69-.33,1.36-0.71,2.07-1s1.4-.38,2.08-0.67a1,1,0,0,0,.47-0.42,61,61,0,0,0,10.85-2,110.65,110.65,0,0,0,11-4.27,33.63,33.63,0,0,0-1,3.49,18,18,0,0,1-1.45,2.62,0.64,0.64,0,0,0-.36.37,70.3,70.3,0,0,0-3.29,16.13c-0.22,2.84-.87,5.61-1.1,8.45-0.11,1.39-.12,2.79-0.28,4.17a12.52,12.52,0,0,1-1.1,3.83,25.45,25.45,0,0,0-1.6,3.78,12.45,12.45,0,0,0-.3,1.49c-0.65.61-1.3,1.21-1.91,1.85a10.4,10.4,0,0,0-2.31,3.43,10.65,10.65,0,0,0-.58,3.58c-0.67.28-1.94,0.83-2.06-.28a6.42,6.42,0,0,1,.61-2.52c0.69-1.82,1.81-3.52,2-5.51,0-.36-0.32-0.39-0.52-0.19a14.55,14.55,0,0,0-2.55,3.3,13,13,0,0,0-1.34,3.72,3.27,3.27,0,0,1-.84,1.75,6,6,0,0,1-1.4.9,15.13,15.13,0,0,1-3.42,1.2,13.74,13.74,0,0,1-8.1-.87,35.07,35.07,0,0,1-3.87-2c-1.25-.69-2.52-1.35-3.76-2.09a21.7,21.7,0,0,1-3.9-2.86,4.79,4.79,0,0,1-1.35-1.76c-0.29-.78-0.12-1.64-0.4-2.43a0.22,0.22,0,0,0-.21-0.13,2.12,2.12,0,0,0-1.71.87,3.34,3.34,0,0,0-.4,1.86c0,0.83-.05,1.34-0.84,1.57s-1.65.35-2.46,0.59A17.92,17.92,0,0,0,40.56,277.12ZM71,306.37c-1.91-1.13-3.85-2.21-5.73-3.4a62.09,62.09,0,0,1-5.39-3.84q-1.25-1-2.46-2c-0.82-.72-1.59-1.51-2.46-2.16S53,293.71,52.15,293l-0.25-.22c0.95,0.25,1.93.4,2.85,0.64,1.42,0.36,3.33.76,4.36-.68l0.05-.09,0.66,0.3c0.36,0.17.9-.65,0.48-0.85-1.95-.93-4.19-1.41-6-2.66a20.29,20.29,0,0,1-3.68-4c-2.39-2.88-5.45-5.15-7.07-8.68,0.75-.22,1.51-0.36,2.27-0.54a2.5,2.5,0,0,0,1.54-.92,3.34,3.34,0,0,0,.44-2,2.37,2.37,0,0,1,.14-1,0.88,0.88,0,0,1,.73-0.35c0.19,0.68.07,1.42,0.29,2.1a4.19,4.19,0,0,0,1,1.62,19.11,19.11,0,0,0,3.49,2.78c1.26,0.81,2.58,1.52,3.89,2.23s2.63,1.52,4,2.14a14.93,14.93,0,0,0,8.4,1.35,15.61,15.61,0,0,0,3.41-1,8.11,8.11,0,0,0,2.85-1.72c1.07-1.12,1-2.72,1.55-4.13a11.87,11.87,0,0,1,2.27-3.7,15.67,15.67,0,0,1-1,2.59,20.12,20.12,0,0,0-1.2,3.16c-0.19.69-.49,1.67,0,2.28a1.66,1.66,0,0,0,2,.17,6.2,6.2,0,0,0,.28,2.76l0.16,0.55a0.74,0.74,0,0,0-.22.31C79,288,78,290.68,76.95,293.27c-0.51,1.25-1.08,2.47-1.63,3.69a4.43,4.43,0,0,1-1,1.54,5.87,5.87,0,0,0-1,1.19,0.46,0.46,0,0,0,.08.67,3,3,0,0,1,1,1.88c0.29,1,.61,2,0.86,3,0.21,0.84.39,1.69,0.54,2.55A8,8,0,0,1,71,306.37Zm37.41,37.23a8.37,8.37,0,0,0,1.79-.28,2.69,2.69,0,0,0,.84-0.23,1.75,1.75,0,0,0,.43-0.72c0.8,1.59,1.82,3.06,2.52,4.71s1.56,3.61,1.33,5.54a6.63,6.63,0,0,1-.24,1.29,6,6,0,0,1-.67,1.16,2.33,2.33,0,0,0-.16.34A4,4,0,0,1,114,355a0.27,0.27,0,0,0-.15-0.31,13.2,13.2,0,0,1-.46-1.29c-0.09-.27-0.53.14-0.45,0.39s0.24,0.73.38,1.08a0.69,0.69,0,0,0-.09.13,4.22,4.22,0,0,1-2.26,1.87,17.22,17.22,0,0,0,.26-1.92,12.24,12.24,0,0,0-1.06-4.72,36.28,36.28,0,0,0-1.79-4.48,10.62,10.62,0,0,0-1.44-2.33C107.42,343.42,107.9,343.6,108.41,343.6Zm-15.22-22.1c0.36,1.32.83,2.6,1.25,3.9a15.55,15.55,0,0,0,1.65,3.7,15.31,15.31,0,0,1,1.8,3.29,0.28,0.28,0,0,0,.09.13,0.39,0.39,0,0,0,0,.09A4.93,4.93,0,0,0,99.16,335c0.71,1,1.36,2,2,3,0.92,1.36,1.9,3.19,3.59,3.5a0.6,0.6,0,0,0,.57-0.28c0.11,0.17.22,0.33,0.34,0.49a5.65,5.65,0,0,0,1.09,1.18,0.49,0.49,0,0,0-.2.2l-0.24-.19a0.26,0.26,0,0,0-.34.1,9.94,9.94,0,0,0-.59,1,1.48,1.48,0,0,1-.47.62c-0.26.08-.39-0.24-0.49-0.44a16.23,16.23,0,0,0-1.51-2.74c-0.16-.2-0.56.26-0.39,0.48a9.47,9.47,0,0,1,1.15,2,2.29,2.29,0,0,0,.77,1.26c0.76,0.31,1.29-1,1.66-1.66a8.26,8.26,0,0,1,1.84,2.76,37.48,37.48,0,0,1,1.72,4.34c0.58,1.67,1.24,3.33,1,5.15-0.06.41-.14,0.82-0.21,1.22-0.33-.6-0.7-1.27-1.45-0.84a6.34,6.34,0,0,0-1,1,3.41,3.41,0,0,1-1.55.63c-0.08-.25-0.16-0.49-0.25-0.74a19,19,0,0,1-.67-2c-0.15-.61-0.24-1.23-0.4-1.83a16.68,16.68,0,0,0-1.57-3,0.14,0.14,0,0,0-.25,0c-0.55-1.42-1.13-2.84-1.74-4.23a0.17,0.17,0,0,0-.25,0c-0.46.27-.85,0.66-1.32,0.9-0.27.14-.4,0.24-0.55,0a3.27,3.27,0,0,1-.2-0.92,22.88,22.88,0,0,0-.72-3.65c-0.1-.27-0.54.14-0.45,0.39a13.23,13.23,0,0,1,.54,2.55,7.71,7.71,0,0,0,.4,2.07c0.38,0.81,1.61-.29,2.18-0.72q1,2.3,1.9,4.65c0.06,0.15.2,0.09,0.31,0a11.11,11.11,0,0,1,1.18,2.16c0.38,1.15.48,2.38,0.92,3.52q0.18,0.48.35,1h-0.07a0.87,0.87,0,0,0-.69.55,4.59,4.59,0,0,0-.24.91,3.31,3.31,0,0,1-.89,1.49,4.52,4.52,0,0,1-5.64.73,0.4,0.4,0,0,0-.47.06,0.22,0.22,0,0,0-.16-0.18c0-.21-0.08-0.42-0.12-0.64a12.88,12.88,0,0,1-.12-2.1,10.84,10.84,0,0,0-.54-3.74,29.51,29.51,0,0,0-1.48-3.14,18.88,18.88,0,0,1-1.08-4c-0.06-.22-0.28-0.13-0.39,0-0.52.68-1,1.36-1.51,2.07-0.16.24-.31,0.5-0.48,0.73a1.17,1.17,0,0,1-.27.34c-0.22.1-.17,0-0.26-0.2a42.64,42.64,0,0,1-1.87-4.78c-0.1-.27-0.54.14-0.45,0.39,0.37,1,.67,2.08,1.07,3.09a12.22,12.22,0,0,0,.67,1.46,1.33,1.33,0,0,0,.42.65c0.49,0.2,1-.68,1.21-1q0.71-1.07,1.47-2.09a15.75,15.75,0,0,0,.79,3.2c0.5,1.11,1.12,2.15,1.58,3.27a10.08,10.08,0,0,1,.65,3.86,13.76,13.76,0,0,0,.11,2.1c0,0.15.05,0.3,0.08,0.45a3.32,3.32,0,0,0-1.76.41,9.42,9.42,0,0,0-1.51,1.09,0.76,0.76,0,0,0-.27.19l-0.12.15-0.15.13a0.63,0.63,0,0,0-.18.74,0.46,0.46,0,0,1-.18.35,2.5,2.5,0,0,1-1.77-.18,0.32,0.32,0,0,0-.23,0,0.27,0.27,0,0,0-.28-0.22,7.5,7.5,0,0,1-3.15-1.16c-1-.57-2-1.18-3-1.75a15.13,15.13,0,0,1-2.16-1.48,0.6,0.6,0,0,0,.16-0.67,4.88,4.88,0,0,0-.42-0.54,5.1,5.1,0,0,1-.14-0.95,10.09,10.09,0,0,1,0-1.6c0.12-1.94-.45-3.8-0.45-5.74,0-2.24-.1-4.48,0-6.71,0.09-2,.33-4.05.29-6.09a16.51,16.51,0,0,0-.35-3.29c-0.25-1.13-.62-2.22-0.92-3.33v0c-0.93-4.3-1.61-8.66-2.43-13-0.42-2.21-.69-4.4-0.92-6.64a43.3,43.3,0,0,0-1.1-6.46c-0.27-1.07-.6-2.11-0.91-3.17a3.58,3.58,0,0,0-.9-1.73c0.26-.28.57-0.52,0.83-0.8a5.28,5.28,0,0,0,.88-1.43c0.58-1.29,1.18-2.57,1.72-3.88,1-2.37,1.86-4.79,2.71-7.21,0.11,0.36.21,0.73,0.31,1.1a26.1,26.1,0,0,0,1.17,3.72,10.67,10.67,0,0,0,4.55,4.85c1.42,0.86,3.22,2.21,4.94,1.83l0.25-.07a0.57,0.57,0,0,0-.08.25c-0.08,1.73-1.81,2.77-2.1,4.46a3.72,3.72,0,0,0,.06,1.3c0.13,0.74.24,1.48,0.35,2.22,0.2,1.36.39,2.72,0.59,4.08,0.14,0.95.27,1.9,0.45,2.84-0.13.27-.14,0.57,0.13,0.65,0,0.2.09,0.4,0.13,0.6,0.29,1.22.66,2.41,1,3.61S92.85,320.24,93.19,321.49ZM102.88,308l-0.1.14a5.29,5.29,0,0,1-2.06,1.64c-0.8.43-1.62,0.81-2.4,1.27A18,18,0,0,1,95,312.65a6,6,0,0,1-3-.15c-0.13-.59-0.24-1.19-0.34-1.8-0.21-1.36-.4-2.72-0.59-4.08s-0.5-2.66-.62-4a3.85,3.85,0,0,1,1-2.37,5.07,5.07,0,0,0,1.08-2.61,0.34,0.34,0,0,0-.15-0.36,3.9,3.9,0,0,0,1.12-1.6,23.87,23.87,0,0,0,4.17-.52c1.36-.27,2.7-0.52,4.07-0.75a4.45,4.45,0,0,0,2.94-1.67c0.82-1,1.5-2.17,2.31-3.21a65,65,0,0,0,5.35-7.55c1-1.76,2-3.52,3.06-5.24h0c1.25,0,2.5-.16,3.76-0.17a7,7,0,0,1,3.69.7,3.26,3.26,0,0,1,1.34,1.55,2.19,2.19,0,0,0-.66,1.43,0.84,0.84,0,0,0,.54.83,4.64,4.64,0,0,1-1.28,1.43,26.85,26.85,0,0,0-2.1,1.76c-1.22,1.16-2.33,2.45-3.5,3.67a30.56,30.56,0,0,1-3.84,3.18c-2.67,2-4.46,5-6.61,7.58a19.82,19.82,0,0,0-3,4.48A11.83,11.83,0,0,0,102.88,308Zm45.56-18.4c-0.79.55-1.66,1.31-2.3,0.13l-0.16-.31a8.48,8.48,0,0,0-.37-0.93c-0.12-.35-0.22-0.7-0.32-1a5.31,5.31,0,0,0-1-2.31c-0.2-.21-0.54.05-0.68,0.21-1.09,1.25-.42,2.85-0.7,4.34-0.14.76-.74,0.72-1.37,0.71s-1.39-.14-2.09-0.13a12.67,12.67,0,0,0-2.52.41c-0.49.11-1,.22-1.47,0.38a4.67,4.67,0,0,0-.6.24,0.76,0.76,0,0,1-.52,0,7.33,7.33,0,0,1,.49-1.82,12.47,12.47,0,0,0,.86-2.59c0-.23,0-0.34-0.15-0.37a0.23,0.23,0,0,0-.2-0.31,2.58,2.58,0,0,0-1.86,1.41,10.56,10.56,0,0,0-.78,1.4,11.57,11.57,0,0,0-.83,1.32c-0.4.72-.77,1.45-1.15,2.18a7.06,7.06,0,0,0-.31.65l-0.31.31a14.36,14.36,0,0,1-3.54,2.07,53.23,53.23,0,0,0-7.37,4.15c-1.11.78-2.2,1.6-3.3,2.42a25,25,0,0,0-3,2.43c-0.18.19-.35,0.38-0.51,0.57a5.27,5.27,0,0,0-.93,1.14,7.59,7.59,0,0,0-.49,1l-0.22.44a10.45,10.45,0,0,0-1.34,3c-0.19.3-.39,0.61-0.57,0.91-0.5.84-.94,1.73-1.38,2.61a29.42,29.42,0,0,0-1.4,3.34,6.32,6.32,0,0,0-.08-1.08c-0.25-1.23-.5-2.47-0.74-3.71-0.31-1.58-.3-3.51-1.39-4.75h0a10.81,10.81,0,0,1,1-5.26,24.06,24.06,0,0,1,3-4.08c1.08-1.29,2-2.68,3.08-4a19.72,19.72,0,0,1,4-3.61c2.82-2,4.83-5.06,7.56-7.21a7.87,7.87,0,0,0,2.6-2.9,11.53,11.53,0,0,0,2.54-2.09,28.9,28.9,0,0,0,6.77-8.47,20.77,20.77,0,0,0,1.77-5.43,0.35,0.35,0,0,0-.45-0.42,1,1,0,0,0-.61.74,18.44,18.44,0,0,1-1.6,4.9,24.36,24.36,0,0,1-2.95,4.43,32.62,32.62,0,0,1-3.8,3.81c-0.44.38-.86,0.81-1.32,1.16l0,0a3.74,3.74,0,0,0-1.27-3,6.08,6.08,0,0,0-4-1.22c-1.37,0-2.73.13-4.09,0.16,0.32-.5.64-1,1-1.48,1.7-2.53,3.49-5,5.41-7.33a47.61,47.61,0,0,1,6.2-6.51c2-1.65,4.13-3,6.21-4.49a6.15,6.15,0,0,0,2.35,2.42,14.78,14.78,0,0,1,2.72,2.73c0.85,1.06,1.62,2.2,2.46,3.28a37.17,37.17,0,0,1,2.46,3.35c1.55,2.52,2.06,5.58,2.54,8.51,0.53,3.2.89,6.43,1.48,9.62,0.2,1.06.49,2.13,0.68,3.2A9.9,9.9,0,0,0,148.44,289.58Zm10.2,9.18c-0.7-.54-1.45-1-2.12-1.6a8.51,8.51,0,0,1-1.76-2.19,7.14,7.14,0,0,1-.71-2.45c1.75,0.18,3,1.49,3.9,3,0.51,0.81,1,1.66,1.48,2.47a9.21,9.21,0,0,1,1.15,2.26C159.89,299.83,159.28,299.26,158.64,298.76Zm-1.72,1.88a15.56,15.56,0,0,0,7.47,1.6,25.44,25.44,0,0,0,5.92-.14,4.13,4.13,0,0,0,1.2-.46,11,11,0,0,0,.11,2.3c0.07,0.37.19,0.74,0.23,1.11s-0.16.46-.48,0.64a14.31,14.31,0,0,1-5.46,1.67,13.5,13.5,0,0,1-5.55-.71c-0.66-.2-1.33-0.39-2-0.62a1,1,0,0,1-.82-1.08c-0.13-.93-0.08-1.88-0.2-2.81A6.05,6.05,0,0,0,156.92,300.64Zm19.19,7.89a22.35,22.35,0,0,1,4.25,3.15c1.38,1.3,2.7,2.68,4.19,3.83s3.35,2.31,5,3.43,3.36,2.23,5.1,3.23a58.13,58.13,0,0,0,5.25,2.62c1.8,0.81,3.59,1.62,5.36,2.49a24.9,24.9,0,0,0,5.31,2.09,19,19,0,0,0,5.84.53,5.21,5.21,0,0,1,2.72.1c0.45,0.2.87,0.46,1.31,0.67a5.13,5.13,0,0,0-1.77.42c-0.9.4-1.74,1.14-2.74,1.2-0.47,0-1,1.14-.38,1.1a6,6,0,0,0,2.53-1,4.69,4.69,0,0,1,2.7-.63,5.07,5.07,0,0,1,2.91,1.4l0.16,0.31a0.29,0.29,0,0,0,.35.16c0.45,0.42.88,0.87,1.31,1.28,0.62,0.58,1.22,1.16,1.86,1.71a4.86,4.86,0,0,1,1.46,1.57c0.22,0.57-.5,1-0.87,1.32a7.66,7.66,0,0,1-1.73,1,0.93,0.93,0,0,0-.51.5,20.87,20.87,0,0,1-2.5-3c-0.83-1.39-1.45-3-2.78-3.94a0.45,0.45,0,0,0-.57.09,3.4,3.4,0,0,1-4.14.65,13.83,13.83,0,0,1-3.54-2.86c-0.37-.38-1.16.57-0.78,1a12.55,12.55,0,0,0,4.2,3.18,4.19,4.19,0,0,0,4.28-.87,9.43,9.43,0,0,1,2.05,2.93,17,17,0,0,0,2.46,3.3c0.45,0.5.91,1,1.32,1.55s0.63,1,0,1.53c-1.32,1-2.57.16-3.72-.71a0.41,0.41,0,0,0-.49,0,5,5,0,0,0-1.93-2.21,9.74,9.74,0,0,1-2.13-2.84,3.71,3.71,0,0,0-2.24-2.05,8.17,8.17,0,0,0-2.22.23,6.9,6.9,0,0,1-2.15-.07,7,7,0,0,1-3.77-2.62c-0.34-.4-1.13.53-0.78,1a8.3,8.3,0,0,0,3,2.43,6.71,6.71,0,0,0,3.31.4c1.12-.11,2.17-0.59,3.09.34a16.68,16.68,0,0,1,1.77,2.73,12.83,12.83,0,0,0,2.28,2.26,2.07,2.07,0,0,1,.85,1.42,2.6,2.6,0,0,1-1.15,1.44c-2.49,2-5.78,2.56-8.83,2.73a42.3,42.3,0,0,1-6,0,11.06,11.06,0,0,1-4.12-1.54,0.26,0.26,0,0,0-.27-0.16h-0.17c-0.84-.13-1.47-1.12-2.08-1.66-0.9-.8-1.81-1.57-2.68-2.42-1.76-1.72-3.38-3.6-5.14-5.32s-3.54-3.13-5.16-4.88a32.84,32.84,0,0,0-5-4.86,26.33,26.33,0,0,0-6-2.94c-2.25-.84-4.55-1.55-6.83-2.28s-4.63-1.5-6.88-2.45a16.88,16.88,0,0,1-4.41-2.39,4.7,4.7,0,0,1-1.65-4.83,10.34,10.34,0,0,1,3.32-5.84l0.12-.11c0.59,0.2,1.2.37,1.8,0.55a14.22,14.22,0,0,0,6.09.73,15,15,0,0,0,5.94-1.92,3.15,3.15,0,0,0,.72-0.6A19.52,19.52,0,0,0,176.1,308.52Zm11.27-52.69v0a27.29,27.29,0,0,1,1.42,5.15,31.55,31.55,0,0,1-.08,5.69c-0.12,1.81-.09,3.62-0.19,5.42,0,0.77-.11,1.54-0.2,2.3a4.5,4.5,0,0,0-1.25,0c-0.16-.21-0.33-0.41-0.49-0.6s-0.68.32-.47,0.57l0.16,0.19c-0.37.09-.75,0.18-1.12,0.25l-0.12,0c0-.13,0-0.25,0-0.37,0-.39-0.58,0-0.58.33,0,0.05,0,.11,0,0.16a8.05,8.05,0,0,0-2.16.72,4.94,4.94,0,0,0-.1-0.51c-0.09-.31-0.23-0.6-0.34-0.91a4.94,4.94,0,0,0-.64-1.32c0-.42,0-0.85,0-1.27l0.6,0.11a1.77,1.77,0,0,0,2-.84c0.28-.35-0.06-0.68-0.35-0.32a1.1,1.1,0,0,1-1.06.55c-0.36,0-.73-0.11-1.09-0.18l-0.12,0a30.58,30.58,0,0,0-.49-3h0.14a7.7,7.7,0,0,1,1.6.06c0.29,0.06.68-.57,0.36-0.64a15.23,15.23,0,0,0-2.24-.1l-0.15-.67c-0.13-.59-0.29-1.18-0.47-1.76a1.63,1.63,0,0,1,1.22,0c0.27,0.12.68-.49,0.36-0.64a2.3,2.3,0,0,0-1.76.15l-0.15-.42c-0.24-.62-0.42-1.29-0.7-1.89,0.4-.17.78-0.42,1.12-0.6l0.82-.45a9.1,9.1,0,0,1,.65,1c0.17,0.31.69-.2,0.54-0.47a9.61,9.61,0,0,0-.57-0.91q0.68-.41,1.34-0.86l0.72-.49c0.28,0.61.56,1.23,0.81,1.86,0.13,0.33.66-.17,0.54-0.47-0.24-.61-0.5-1.2-0.77-1.79a11.91,11.91,0,0,0,1.15-.92l0.92-.82,0,0a4.17,4.17,0,0,1,.51,2.12c0,0.39.58,0,.58-0.33a4.42,4.42,0,0,0-.54-2.26l0-.07A7.94,7.94,0,0,0,187.38,255.83Z" transform="translate(-14.98 -11.41)"/><path class="cls-1" d="M134.69,74.83a0.2,0.2,0,0,0-.14-0.12,34.29,34.29,0,0,0-7.64-1.61,26.26,26.26,0,0,1-4.19-.14l-0.12,0a4.49,4.49,0,0,1-1.9-.86c-0.34-.27-1,0.5-0.62.76a4.89,4.89,0,0,0,2,.93c0.7,2.54,3.1,3.94,5.45,4.32a7.42,7.42,0,0,0,7.17-2.64C135,75.17,134.88,74.89,134.69,74.83Zm-7,2.35a6.4,6.4,0,0,1-4.5-3,0.8,0.8,0,0,0,.25-0.26c0.89,0.05,1.79,0,2.64,0a30.45,30.45,0,0,1,7.7,1.53A6.57,6.57,0,0,1,127.73,77.19Z" transform="translate(-14.98 -11.41)"/><path class="cls-1" d="M134.92,72.81c-0.38,0-.81.88-0.31,0.88S135.43,72.81,134.92,72.81Z" transform="translate(-14.98 -11.41)"/><path class="cls-1" d="M132.88,71.44c-1-.27-1.8-1.07-2.8-1.37a5.06,5.06,0,0,1-1.73-.38c-0.45-.32-0.76-0.8-1.24-1.09s-1,.56-0.62.76a5,5,0,0,1,.87.76c-2.46-.16-4.95,0-7.27-1.07-0.36-.17-0.9.65-0.48,0.85,2.94,1.37,6.11.74,9.18,1.29a0.61,0.61,0,0,0,.52-0.33h0.06c1.11,0.18,2,1.13,3,1.42C132.78,72.39,133.3,71.55,132.88,71.44Z" transform="translate(-14.98 -11.41)"/><path class="cls-1" d="M101.71,63.11c-0.88.36-1.43-.55-2-1.15-0.28-.31-0.92.44-0.62,0.76,0.71,0.77,1.36,1.68,2.48,1.23a0.7,0.7,0,0,0,.44-0.54A0.25,0.25,0,0,0,101.71,63.11Z" transform="translate(-14.98 -11.41)"/><path class="cls-1" d="M102.82,64.7c-1.12-.58-2.22,0-3.34.3-0.38.1-.67,1-0.11,0.85,1-.25,2-0.81,3-0.29C102.69,65.73,103.23,64.91,102.82,64.7Z" transform="translate(-14.98 -11.41)"/><path class="cls-1" d="M109,69.1c-1.94,1.08-3.57-1.43-5.48-1.16a3.61,3.61,0,0,0-1.54.73,0.45,0.45,0,0,0,.05-0.57c-0.83-.83-1.84-0.55-2.85-0.47a5,5,0,0,0,2-1.41c0.39-.46-0.07-0.9-0.46-0.43a4.57,4.57,0,0,1-2.22,1.28c-0.34.12-.61,0.9-0.22,0.87-0.17.25-.21,0.59,0.1,0.59,1,0,2.16-.5,3,0.34a0.23,0.23,0,0,0,.21.07,3.15,3.15,0,0,1-2,.8c-0.38,0-.82.85-0.31,0.88a2.39,2.39,0,0,0,.4,0h0.07a9.07,9.07,0,0,0,2.76.19c1.07-.24,2-1.19,3-0.35,0.26,0.21.7-.21,0.71-0.54a3.15,3.15,0,0,0,2.79-.06C109.5,69.65,109.58,68.8,109,69.1Zm-5.5.55a3.15,3.15,0,0,1-1.73.33l-0.44-.06,0,0a4.28,4.28,0,0,1,2.08-1.09,3.06,3.06,0,0,1,1.49.44A3.84,3.84,0,0,0,103.53,69.66Z" transform="translate(-14.98 -11.41)"/><path class="cls-1" d="M158,81.29A11.71,11.71,0,0,0,157,80.06c-0.38-.43-0.73-0.88-1.1-1.31a8.56,8.56,0,0,0-2.63-2,0.31,0.31,0,0,0,0,0c-0.49-2.29-1.36-4.44-3.76-4.87h-0.06a1.52,1.52,0,0,0-.22-1.1,1,1,0,0,0-.71-0.41,6.46,6.46,0,0,0,2-1.59,8.44,8.44,0,0,0,1-2.79,4,4,0,0,0-.1-2.6,2.85,2.85,0,0,0-1.71-.9A11.84,11.84,0,0,1,145,59.15a19.79,19.79,0,0,1-2.14-2.74,3.75,3.75,0,0,0-1.53-1.73,0.3,0.3,0,0,0-.26,0,6.79,6.79,0,0,0-1-.34,0.39,0.39,0,0,0,0-.37,10.48,10.48,0,0,1-.89-2.35,13.83,13.83,0,0,0-1.1-2.5c-0.37-.71-0.47-2.42-1.41-2.53a6.25,6.25,0,0,0-2.89.87,29.17,29.17,0,0,0-3.24,1.7,13.68,13.68,0,0,0-4.15,3.62,0.52,0.52,0,0,0-.1.48,18,18,0,0,0-2.42.11c-1,.14-2,0.38-2.94.61s-1.92.4-2.86,0.65a17.13,17.13,0,0,0-5.48,2.56,1.12,1.12,0,0,0-.21.19l-1-.21c-2.13-.43-4.26-0.86-6.41-1.19-2.81-.44-6-0.91-8.66.37a6.25,6.25,0,0,0-3.18,3.7,0.37,0.37,0,0,1-.13.28l0,0a0.93,0.93,0,0,0-.11.21A15.75,15.75,0,0,0,91.62,68a4.48,4.48,0,0,0,1.07,3.17,2.1,2.1,0,0,0,.62.36,3.42,3.42,0,0,0-1.45,3.89c0.54,1.4,2.3,1.88,3.58,1.8A3.15,3.15,0,0,0,98,75.63a0.2,0.2,0,0,0,.13.15l0.2,0.08a0.27,0.27,0,0,0,.21,0,11.65,11.65,0,0,0-.24,2.25,3.61,3.61,0,0,0,.18,2.5,5,5,0,0,0,1.93,1.7,2.65,2.65,0,0,0,2.45-.17,4.14,4.14,0,0,0,1.75-1.37,7,7,0,0,0,.88-2.54,6.61,6.61,0,0,0-.23-2.84,2.33,2.33,0,0,0-1.65-1.85,3.6,3.6,0,0,0-2.25.31c-0.36.16-.43,0.89,0.07,0.66a2.74,2.74,0,0,1,2-.15,2.41,2.41,0,0,1,1.25,2,5.68,5.68,0,0,1-.08,2.77,3,3,0,0,1-1.24,2,2.61,2.61,0,0,1-2.5.45A4.33,4.33,0,0,1,99,79.87c-0.4-.76,0-1.83,0-2.66s0.1-2.4,1.07-2.44c0.33,0,.71-0.79.27-0.77a1.34,1.34,0,0,0-.6.18,1.18,1.18,0,0,0,.1-0.3c0.08-.38.13-1.22-0.35-1.32-0.19,0-.45.38-0.24,0.43s0.28,0.76.21,1a2.79,2.79,0,0,1-1,.94l-0.08,0A4,4,0,0,0,97,70.14a0.44,0.44,0,0,0-.54.23,0.53,0.53,0,0,0-.29.71,2.43,2.43,0,0,1-.44,3,1.47,1.47,0,0,1-1.67.11,1.17,1.17,0,0,1-.58-0.93,3,3,0,0,1,.32-1c0.09-.24,0-0.34-0.13-0.34a0.64,0.64,0,0,0,.1-0.29,2.08,2.08,0,0,1,.68.39c0.48,0.45.7,1.13,1.18,1.58,0.31,0.3.94-.47,0.62-0.76a13.67,13.67,0,0,1-1-1.38,3,3,0,0,0-1.37-.82c-1.12-.46-1.4-1.82-1.46-3a14.84,14.84,0,0,1,1-6.71C95,60.8,96.57,59.83,98.25,60s2.7,1.66,3.83,2.86c0.67,0.7,1.38,1.34,2.06,2s1.09,1.23,1.64,1.84a4.83,4.83,0,0,0,3.79,2c0.38,0,.8-0.91.31-0.88-1.64.11-2.83-1.11-3.87-2.31-1.23-1.42-2.64-2.63-3.86-4a5.8,5.8,0,0,0-3.5-2.33c-1.68-.22-3.18.71-4.81,0.91v0c1.1-3.18,4.27-3.72,7.09-3.6A74.08,74.08,0,0,1,111.7,58.2c2.17,0.42,4.51,1,6.51-.34a0.67,0.67,0,0,0,.34-0.6,0.26,0.26,0,0,0-.43-0.16c-1.47,1-3.23.81-4.91,0.47a16.06,16.06,0,0,1,4.16-1.93,54.71,54.71,0,0,1,5.53-1.28,16.58,16.58,0,0,1,3.07-.21c1,0,2-.08,3-0.09a20.21,20.21,0,0,1,3.07.31c1,0.14,2,.18,3,0.25s2.08,0.25,3.13.38a8,8,0,0,1,2.85.72,0.26,0.26,0,0,0,.23,0,6.18,6.18,0,0,1,1.11,1.56,23.16,23.16,0,0,0,1.79,2.29,12.51,12.51,0,0,0,3.87,3.16,22.67,22.67,0,0,0,2.24.9,1.39,1.39,0,0,1,.74,1.62,7.66,7.66,0,0,1-.81,3c-0.45.83-1.42,1.13-2.13,1.66a0.54,0.54,0,0,0-.22.52l-0.23.06c-0.37.12-.66,1-0.11,0.85,0.72-.23,1.44,0,1.2,1a1,1,0,0,1-1.63.56c-0.34-.23-0.93.45-0.62,0.76a12.79,12.79,0,0,0,2.53,1.68c0.93,0.58,1.76,1.26,2.74,1.75a11.3,11.3,0,0,1,3,1.81c0.77,0.75,1.39,1.64,2.13,2.41L157,81.56a0.5,0.5,0,0,0-.09.23,2.22,2.22,0,0,1-1.23,1,13.61,13.61,0,0,1-1.82.85C152,84.42,150,83.91,148,84a0.7,0.7,0,0,0-.5.81v0a2.27,2.27,0,0,0,0,1.76,1.53,1.53,0,0,0,1.21.47,4.59,4.59,0,0,1,2.69.75A3.75,3.75,0,0,0,153,89h0a14,14,0,0,1-3,.62c-2.44.43-4.85,0.83-7.29,0.19-1.19-.31-2.35-0.73-3.56-1a5.27,5.27,0,0,0-2.75-.1,6.29,6.29,0,0,0-1.07.58c-0.39.23-.81,0.37-1.2,0.61a1.94,1.94,0,0,0-1,1.4c-0.08.94,1,1.38,1.64,1.6a12.51,12.51,0,0,0,4.28.53,5.71,5.71,0,0,0,3.46-.88c0.4-.33.22-1-0.28-0.62a5,5,0,0,1-2.93.63,12.47,12.47,0,0,1-3.81-.43c-0.37-.11-1.84-0.54-1.55-1.21a2.15,2.15,0,0,1,1.08-.65c0.41-.2.77-0.49,1.19-0.67a5.32,5.32,0,0,1,3.09.22c1.17,0.29,2.31.72,3.49,1a12.21,12.21,0,0,0,3.34.22,30.25,30.25,0,0,0,3.24-.45,28.28,28.28,0,0,0,2.89-.5c0.48,1.12.4,3-.66,3.74a5.3,5.3,0,0,1-2.17.57c-0.83.12-1.65,0.31-2.48,0.46a38.89,38.89,0,0,1-5.95.42c-1.86.06-3.72,0-5.58,0.07a29.39,29.39,0,0,1-6.34-.31c-0.39-.08-0.9.77-0.48,0.85a28.34,28.34,0,0,0,6.09.35c2.15,0,4.31,0,6.46-.1a40.52,40.52,0,0,0,6.72-.64c1.44-.29,3.34-0.22,4.43-1.43a4.6,4.6,0,0,0,.81-4.3,9.63,9.63,0,0,0,3.7-3.47C157.85,84.89,159.19,83,158,81.29ZM98.8,75L99,74.91l-0.1.15Zm-3.06-.21a3.73,3.73,0,0,0,1.42-3.32,3.5,3.5,0,0,1,.79,2.3,2.5,2.5,0,0,1-2.24,2.63,3.63,3.63,0,0,1-2.85-1,2.31,2.31,0,0,1,.26-3.09c-0.33.89-.62,1.78,0.25,2.47A2,2,0,0,0,95.74,74.8Zm40.65-20.94c-1.08-.13-2.17-0.15-3.26-0.26s-2.08-.36-3.14-0.4-2,0-3.05.07h-0.13l0,0a13.32,13.32,0,0,1,4.44-3.69,24.13,24.13,0,0,1,3.6-1.73,2.56,2.56,0,0,1,1.47-.32c0.46,0.21.6,1.35,0.76,1.79,0.32,0.87.88,1.6,1.17,2.49a21.37,21.37,0,0,0,.81,2.39C138.18,54,137.25,54,136.39,53.86Zm15,21.93a19.19,19.19,0,0,1-1.59-1.1c-0.52-.37-1.09-0.65-1.63-1a2.27,2.27,0,0,0,1-1,3.46,3.46,0,0,1,2.32,1.57,7.06,7.06,0,0,1,.79,2C152,76.1,151.69,76,151.42,75.8Zm5.44,9.27c-0.38.34-1,.56-1.3,0.88a4.45,4.45,0,0,0-.74,1l-0.33.29a0.63,0.63,0,0,0-.17.62,0.72,0.72,0,0,1-.3.29A1.22,1.22,0,0,1,153,88c-0.51-.32-0.85-0.87-1.37-1.19a4.33,4.33,0,0,0-1.95-.53,3.5,3.5,0,0,1-1.32-.19,1,1,0,0,1-.12-1.19c1.23,0,2.47.2,3.7,0.09a8,8,0,0,0,2.43-.67,11.65,11.65,0,0,0,2.19-1.17l0.35-.27c0,0.13.07,0.27,0.11,0.41A3,3,0,0,1,156.86,85.06Z" transform="translate(-14.98 -11.41)"/><path class="cls-1" d="M101.46,76.25a0.39,0.39,0,0,0-.39-0.24,0.49,0.49,0,0,0-.29.13,0.74,0.74,0,0,0-.22.32,0.41,0.41,0,0,0,0,.3,2.71,2.71,0,0,0,.39.24,0.49,0.49,0,0,0,.29-0.13A0.61,0.61,0,0,0,101.46,76.25Z" transform="translate(-14.98 -11.41)"/><path class="cls-1" d="M109.42,72a2.27,2.27,0,0,0-2.27.63,8.73,8.73,0,0,0-1.47,2.62c-0.06.15,0.13,0.1,0.18,0a11,11,0,0,1,1.06-2.09,2.17,2.17,0,0,1,2.38-.94C109.4,72.26,109.53,72,109.42,72Z" transform="translate(-14.98 -11.41)"/><path class="cls-1" d="M109.53,72.66a2.49,2.49,0,0,0-2.31,1,6.51,6.51,0,0,0-1.44,2.79c0,0.15.18,0,.19-0.06a6.21,6.21,0,0,1,1.23-2.45,2.33,2.33,0,0,1,2.25-1.06C109.54,72.9,109.65,72.68,109.53,72.66Z" transform="translate(-14.98 -11.41)"/><path class="cls-1" d="M110.13,74a2.93,2.93,0,0,0-2.32,1.23A4.67,4.67,0,0,0,106.43,78c0,0.15.18,0,.19-0.06a4.23,4.23,0,0,1,1.18-2.45,2.83,2.83,0,0,1,2.25-1.25C110.15,74.21,110.26,74,110.13,74Z" transform="translate(-14.98 -11.41)"/><path class="cls-1" d="M111.31,74.74c-1.76.58-3.72,2-3.75,4.19,0,0.13.19,0,.19-0.11,0-2,1.91-3.33,3.53-3.86C111.37,74.92,111.45,74.69,111.31,74.74Z" transform="translate(-14.98 -11.41)"/><path class="cls-1" d="M110.61,78.68a2.64,2.64,0,0,0-1.54,1.23,10.11,10.11,0,0,0-1.3,2.61c-0.05.16,0.14,0.11,0.18,0a10.48,10.48,0,0,1,1-2.12,2.89,2.89,0,0,1,1.6-1.5C110.62,78.88,110.73,78.66,110.61,78.68Z" transform="translate(-14.98 -11.41)"/><path class="cls-1" d="M111.06,81.44a1.32,1.32,0,0,0-1,.71,10,10,0,0,0-1,1.78c-0.07.15,0.1,0.18,0.15,0.05a11.16,11.16,0,0,1,.69-1.32,1.76,1.76,0,0,1,1.07-1C111.08,81.67,111.18,81.45,111.06,81.44Z" transform="translate(-14.98 -11.41)"/><path class="cls-1" d="M122.56,77.05c-0.64.5-1,1.34-1.66,1.78-0.09.06-.11,0.27,0,0.19,0.71-.45,1-1.3,1.7-1.81C122.73,77.13,122.69,77,122.56,77.05Z" transform="translate(-14.98 -11.41)"/><path class="cls-1" d="M132.11,79.6c-0.7.63-1.67,0.05-2.44,0.58s-1.27,1.38-2.17,1.47c-0.09,0-.2.23-0.08,0.22a4.17,4.17,0,0,0,2-1.32,2.19,2.19,0,0,1,1.68-.41,1.4,1.4,0,0,0,1-.39C132.28,79.67,132.23,79.5,132.11,79.6Z" transform="translate(-14.98 -11.41)"/><path class="cls-1" d="M134.44,80.47c-0.41.09-.91,0.14-1-0.44a2.43,2.43,0,0,1,.25-1c0.06-.15-0.14-0.1-0.18,0a2,2,0,0,0-.22,1.39,0.72,0.72,0,0,0,.91.31,6.67,6.67,0,0,1-1.34,1.63c-0.1.08-.05,0.26,0.07,0.15a7.19,7.19,0,0,0,1.52-1.89C134.54,80.54,134.52,80.46,134.44,80.47Z" transform="translate(-14.98 -11.41)"/><path class="cls-1" d="M139.49,85.37c-0.27-.86-0.3-1.78-0.57-2.65,0,0-.07,0-0.1,0-0.55.31-.78,1-1.29,1.32-0.09.06-.11,0.28,0,0.19a2.5,2.5,0,0,0,.54-0.51l0.25-.33,0.17-.21q0.14-.29.25,0a2.59,2.59,0,0,1,.3,1.25,8.37,8.37,0,0,0,.26,1.16C139.34,85.64,139.52,85.47,139.49,85.37Z" transform="translate(-14.98 -11.41)"/><path class="cls-1" d="M142.73,82.13c-1.45-.72-2.9-1.44-4.28-2.3a3.91,3.91,0,0,1-1-.74,1.19,1.19,0,0,1,.7-1.1c0.1-.05.12-0.27,0-0.19a2,2,0,0,0-.87,1,1.4,1.4,0,0,1-.14-0.49,2.51,2.51,0,0,1,1-2c0.1-.08.05-0.26-0.07-0.15-0.83.72-1.55,2.16-.74,3.16l0.06,0.11a0.06,0.06,0,0,0,.06,0,9.93,9.93,0,0,0,2.34,1.46c0.94,0.51,1.89,1,2.85,1.47C142.7,82.38,142.84,82.18,142.73,82.13Z" transform="translate(-14.98 -11.41)"/><path class="cls-1" d="M121.27,93.12a6.37,6.37,0,0,0-1.5-1.8c-0.88-.6-2-0.76-2.85-1.34-0.09-.06-0.24.14-0.16,0.19,0.81,0.53,1.74.72,2.57,1.18a5.54,5.54,0,0,1,1.75,1.93C121.16,93.38,121.33,93.21,121.27,93.12Z" transform="translate(-14.98 -11.41)"/><path class="cls-1" d="M120,95.17c-0.48-.14-1-0.22-1.46-0.4a1.2,1.2,0,0,1-.65-0.42c-0.3-.49.23-0.95,0.52-1.29,0.1-.12,0-0.23-0.12-0.11-0.39.48-1.12,1.23-.37,1.79a5.83,5.83,0,0,0,2,.64C120,95.41,120.11,95.2,120,95.17Z" transform="translate(-14.98 -11.41)"/><path class="cls-1" d="M131.28,97.92a44.8,44.8,0,0,1-4.87.66,11.7,11.7,0,0,1-1.74,0,13.14,13.14,0,0,1-2.44-.3c-0.39-.09-1.46-0.38-0.85-0.94,0,0,.11-0.16,0-0.18-1-.28-2.15.21-3.07-0.46-0.09-.06-0.24.13-0.16,0.19,0.91,0.66,2,.22,3,0.45-0.88,1.07,2,1.34,2.54,1.39a15.43,15.43,0,0,0,2.49.08,36.86,36.86,0,0,0,5-.68C131.35,98.11,131.42,97.89,131.28,97.92Z" transform="translate(-14.98 -11.41)"/><path class="cls-1" d="M116.4,92.35A10.1,10.1,0,0,0,115,90.5a8.57,8.57,0,0,0-2-1.05l-0.37-.18a0.1,0.1,0,0,0,0-.15c-1.12-.58-1.55-2-2.37-2.92-0.07-.08-0.23.11-0.16,0.19,0.67,0.76,1.09,1.83,1.82,2.52-1.17-.61-2.32-1.27-3.54-1.78-0.09,0-.23.17-0.12,0.21,1.53,0.64,2.95,1.5,4.44,2.22a9.89,9.89,0,0,1,2.16,1.12,10.23,10.23,0,0,1,1.43,1.85C116.3,92.62,116.46,92.44,116.4,92.35Z" transform="translate(-14.98 -11.41)"/><path class="cls-1" d="M115.6,90c-0.64-.51-1.34-0.94-2-1.49a5.73,5.73,0,0,1-1.37-2c-0.55-1.23-1-2.27-2.36-2.66-0.1,0-.23.18-0.12,0.21,1.49,0.43,1.86,1.74,2.51,3.06s2,2.14,3.13,3.07C115.53,90.24,115.68,90.05,115.6,90Z" transform="translate(-14.98 -11.41)"/><path class="cls-1" d="M104.41,76.71c-0.17-1.3-1.58-1.79-2.65-1.73-0.33,0-.7.79-0.27,0.77a2.17,2.17,0,0,1,2.16,1,3.05,3.05,0,0,1-1.17,3.07,1.47,1.47,0,0,1-1.4,0,2.88,2.88,0,0,0-.47-0.16h0a0.16,0.16,0,0,0-.09-0.14V79.45c0-.3-0.15-0.59-0.16-0.91s0-.6,0-0.9a3.66,3.66,0,0,1,.4-1.94c0.3-.49-0.3-0.58-0.54-0.19a4.27,4.27,0,0,0-.54,2.21,5.13,5.13,0,0,0,.26,2.39,0.53,0.53,0,0,0,.39.33l0.11,0h0a0.2,0.2,0,0,0,.16.06h0a2.53,2.53,0,0,0,.56.21,1.93,1.93,0,0,0,1.55-.33A4.44,4.44,0,0,0,104.41,76.71Z" transform="translate(-14.98 -11.41)"/><path class="cls-1" d="M93.41,67.25c-0.53,0-1.12,1.21-.42,1.21C93.51,68.46,94.1,67.25,93.41,67.25Z" transform="translate(-14.98 -11.41)"/><path class="cls-1" d="M95.14,68.68c-0.53,0-1.12,1.21-.42,1.21C95.24,69.89,95.83,68.68,95.14,68.68Z" transform="translate(-14.98 -11.41)"/><path class="cls-1" d="M124.38,79.61c0-.29-0.29-0.26-0.48-0.18a5,5,0,0,0-.67.36,0.76,0.76,0,0,0-.39.68,0.29,0.29,0,0,0,.48.18,5,5,0,0,1,.67-0.36A0.74,0.74,0,0,0,124.38,79.61Z" transform="translate(-14.98 -11.41)"/><path class="cls-1" d="M126.9,80.48h-1.21c-0.33,0-.71.77-0.27,0.77h1.21C127,81.25,127.34,80.48,126.9,80.48Z" transform="translate(-14.98 -11.41)"/></svg>